  0
SECTION
  2
HEADER
  9
$ACADVER
  1
AC1014
  9
$ACADMAINTVER
 70
     9
  9
$DWGCODEPAGE
  3
ANSI_932
  9
$INSBASE
 10
0.0
 20
0.0
 30
0.0
  9
$EXTMIN
 10
99.99999999999989
 20
74.999998
 30
0.0
  9
$EXTMAX
 10
2017.329998
 20
1435.000005000001
 30
0.0
  9
$LIMMIN
 10
0.0
 20
0.0
  9
$LIMMAX
 10
420.0
 20
297.0
  9
$ORTHOMODE
 70
     0
  9
$REGENMODE
 70
     1
  9
$FILLMODE
 70
     1
  9
$QTEXTMODE
 70
     0
  9
$MIRRTEXT
 70
     1
  9
$DRAGMODE
 70
     2
  9
$LTSCALE
 40
1.0
  9
$OSMODE
 70
    37
  9
$ATTMODE
 70
     1
  9
$TEXTSIZE
 40
2.5
  9
$TRACEWID
 40
1.0
  9
$TEXTSTYLE
  7
STANDARD
  9
$CLAYER
  8
0
  9
$CELTYPE
  6
BYLAYER
  9
$CECOLOR
 62
   256
  9
$CELTSCALE
 40
1.0
  9
$DELOBJ
 70
     1
  9
$DISPSILH
 70
     0
  9
$DIMSCALE
 40
1.0
  9
$DIMASZ
 40
2.5
  9
$DIMEXO
 40
0.625
  9
$DIMDLI
 40
3.75
  9
$DIMRND
 40
0.0
  9
$DIMDLE
 40
0.0
  9
$DIMEXE
 40
1.25
  9
$DIMTP
 40
0.0
  9
$DIMTM
 40
0.0
  9
$DIMTXT
 40
2.5
  9
$DIMCEN
 40
2.5
  9
$DIMTSZ
 40
0.0
  9
$DIMTOL
 70
     0
  9
$DIMLIM
 70
     0
  9
$DIMTIH
 70
     0
  9
$DIMTOH
 70
     0
  9
$DIMSE1
 70
     0
  9
$DIMSE2
 70
     0
  9
$DIMTAD
 70
     1
  9
$DIMZIN
 70
     8
  9
$DIMBLK
  1

  9
$DIMASO
 70
     1
  9
$DIMSHO
 70
     1
  9
$DIMPOST
  1

  9
$DIMAPOST
  1

  9
$DIMALT
 70
     0
  9
$DIMALTD
 70
     3
  9
$DIMALTF
 40
0.03937007874016
  9
$DIMLFAC
 40
1.0
  9
$DIMTOFL
 70
     1
  9
$DIMTVP
 40
0.0
  9
$DIMTIX
 70
     0
  9
$DIMSOXD
 70
     0
  9
$DIMSAH
 70
     0
  9
$DIMBLK1
  1

  9
$DIMBLK2
  1

  9
$DIMSTYLE
  2
ISO-25
  9
$DIMCLRD
 70
     0
  9
$DIMCLRE
 70
     0
  9
$DIMCLRT
 70
     0
  9
$DIMTFAC
 40
1.0
  9
$DIMGAP
 40
0.625
  9
$DIMJUST
 70
     0
  9
$DIMSD1
 70
     0
  9
$DIMSD2
 70
     0
  9
$DIMTOLJ
 70
     0
  9
$DIMTZIN
 70
     8
  9
$DIMALTZ
 70
     0
  9
$DIMALTTZ
 70
     0
  9
$DIMFIT
 70
     3
  9
$DIMUPT
 70
     0
  9
$DIMUNIT
 70
     2
  9
$DIMDEC
 70
     2
  9
$DIMTDEC
 70
     2
  9
$DIMALTU
 70
     2
  9
$DIMALTTD
 70
     3
  9
$DIMTXSTY
  7
STANDARD
  9
$DIMAUNIT
 70
     0
  9
$LUNITS
 70
     2
  9
$LUPREC
 70
     4
  9
$SKETCHINC
 40
1.0
  9
$FILLETRAD
 40
10.0
  9
$AUNITS
 70
     0
  9
$AUPREC
 70
     0
  9
$MENU
  1
.
  9
$ELEVATION
 40
0.0
  9
$PELEVATION
 40
0.0
  9
$THICKNESS
 40
0.0
  9
$LIMCHECK
 70
     0
  9
$CHAMFERA
 40
0.0
  9
$CHAMFERB
 40
0.0
  9
$CHAMFERC
 40
0.0
  9
$CHAMFERD
 40
0.0
  9
$SKPOLY
 70
     0
  9
$TDCREATE
 40
2458376.596914005
  9
$TDUPDATE
 40
2458376.596914907
  9
$TDINDWG
 40
0.0000000116
  9
$TDUSRTIMER
 40
0.0000000116
  9
$USRTIMER
 70
     1
  9
$ANGBASE
 50
0.0
  9
$ANGDIR
 70
     0
  9
$PDMODE
 70
     0
  9
$PDSIZE
 40
0.0
  9
$PLINEWID
 40
0.0
  9
$COORDS
 70
     1
  9
$SPLFRAME
 70
     0
  9
$SPLINETYPE
 70
     6
  9
$SPLINESEGS
 70
     8
  9
$ATTDIA
 70
     0
  9
$ATTREQ
 70
     1
  9
$HANDLING
 70
     1
  9
$HANDSEED
  5
3B7
  9
$SURFTAB1
 70
     6
  9
$SURFTAB2
 70
     6
  9
$SURFTYPE
 70
     6
  9
$SURFU
 70
     6
  9
$SURFV
 70
     6
  9
$UCSNAME
  2

  9
$UCSORG
 10
0.0
 20
0.0
 30
0.0
  9
$UCSXDIR
 10
1.0
 20
0.0
 30
0.0
  9
$UCSYDIR
 10
0.0
 20
1.0
 30
0.0
  9
$PUCSNAME
  2

  9
$PUCSORG
 10
0.0
 20
0.0
 30
0.0
  9
$PUCSXDIR
 10
1.0
 20
0.0
 30
0.0
  9
$PUCSYDIR
 10
0.0
 20
1.0
 30
0.0
  9
$USERI1
 70
     0
  9
$USERI2
 70
     0
  9
$USERI3
 70
     0
  9
$USERI4
 70
     0
  9
$USERI5
 70
     0
  9
$USERR1
 40
0.0
  9
$USERR2
 40
0.0
  9
$USERR3
 40
0.0
  9
$USERR4
 40
0.0
  9
$USERR5
 40
0.0
  9
$WORLDVIEW
 70
     1
  9
$SHADEDGE
 70
     3
  9
$SHADEDIF
 70
    70
  9
$TILEMODE
 70
     1
  9
$MAXACTVP
 70
    64
  9
$PINSBASE
 10
0.0
 20
0.0
 30
0.0
  9
$PLIMCHECK
 70
     0
  9
$PEXTMIN
 10
1.000000000000000E+20
 20
1.000000000000000E+20
 30
1.000000000000000E+20
  9
$PEXTMAX
 10
-1.000000000000000E+20
 20
-1.000000000000000E+20
 30
-1.000000000000000E+20
  9
$PLIMMIN
 10
0.0
 20
0.0
  9
$PLIMMAX
 10
420.0
 20
297.0
  9
$UNITMODE
 70
     0
  9
$VISRETAIN
 70
     1
  9
$PLINEGEN
 70
     0
  9
$PSLTSCALE
 70
     1
  9
$TREEDEPTH
 70
  3020
  9
$PICKSTYLE
 70
     1
  9
$CMLSTYLE
  2
STANDARD
  9
$CMLJUST
 70
     0
  9
$CMLSCALE
 40
20.0
  9
$PROXYGRAPHICS
 70
     1
  9
$MEASUREMENT
 70
     1
  0
ENDSEC
  0
SECTION
  2
CLASSES
  0
CLASS
  1
ACDBDICTIONARYWDFLT
  2
AcDbDictionaryWithDefault
  3
ObjectDBX Classes
 90
        0
280
     0
281
     0
  0
CLASS
  1
VISUALSTYLE
  2
AcDbVisualStyle
  3
ObjectDBX Classes
 90
     4095
280
     0
281
     0
  0
CLASS
  1
MATERIAL
  2
AcDbMaterial
  3
ObjectDBX Classes
 90
     1153
280
     0
281
     0
  0
CLASS
  1
SCALE
  2
AcDbScale
  3
ObjectDBX Classes
 90
     1153
280
     0
281
     0
  0
CLASS
  1
TABLESTYLE
  2
AcDbTableStyle
  3
ObjectDBX Classes
 90
     4095
280
     0
281
     0
  0
CLASS
  1
MLEADERSTYLE
  2
AcDbMLeaderStyle
  3
ACDB_MLEADERSTYLE_CLASS
 90
     4095
280
     0
281
     0
  0
CLASS
  1
SUN
  2
AcDbSun
  3
SCENEOE
 90
     1153
280
     0
281
     0
  0
CLASS
  1
DICTIONARYVAR
  2
AcDbDictionaryVar
  3
ObjectDBX Classes
 90
        0
280
     0
281
     0
  0
CLASS
  1
XRECORD
  2
AcDbXrecord
  3
ObjectDBX Classes
 90
        0
280
     0
281
     0
  0
CLASS
  1
LWPOLYLINE
  2
AcDbPolyline
  3
ObjectDBX Classes
 90
        0
280
     0
281
     1
  0
CLASS
  1
HATCH
  2
AcDbHatch
  3
ObjectDBX Classes
 90
        0
280
     0
281
     1
  0
CLASS
  1
ACDBPLACEHOLDER
  2
AcDbPlaceHolder
  3
ObjectDBX Classes
 90
        0
280
     0
281
     0
  0
CLASS
  1
LAYOUT
  2
AcDbLayout
  3
ObjectDBX Classes
 90
        0
280
     0
281
     0
  0
ENDSEC
  0
SECTION
  2
TABLES
  0
TABLE
  2
VPORT
  5
8
102
{ACAD_XDICTIONARY
360
3AC
102
}
330
0
100
AcDbSymbolTable
 70
     1
  0
VPORT
  5
29
330
8
100
AcDbSymbolTableRecord
100
AcDbViewportTableRecord
  2
*ACTIVE
 70
     0
 10
0.0
 20
0.0
 11
1.0
 21
1.0
 12
1060.064999
 22
755.0000015000003
 13
0.0
 23
0.0
 14
10.0
 24
10.0
 15
10.0
 25
10.0
 16
0.0
 26
0.0
 36
1.0
 17
0.0
 27
0.0
 37
0.0
 40
1360.000007
 41
1.411860285380131
 42
50.0
 43
0.0
 44
0.0
 50
0.0
 51
0.0
 71
     0
 72
  1000
 73
     1
 74
     3
 75
     0
 76
     0
 77
     0
 78
     0
  0
ENDTAB
  0
TABLE
  2
LTYPE
  5
5
330
0
100
AcDbSymbolTable
 70
     7
  0
LTYPE
  5
14
330
5
100
AcDbSymbolTableRecord
100
AcDbLinetypeTableRecord
  2
BYBLOCK
 70
     0
  3

 72
    65
 73
     0
 40
0.0
  0
LTYPE
  5
15
330
5
100
AcDbSymbolTableRecord
100
AcDbLinetypeTableRecord
  2
BYLAYER
 70
     0
  3

 72
    65
 73
     0
 40
0.0
  0
LTYPE
  5
16
330
5
100
AcDbSymbolTableRecord
100
AcDbLinetypeTableRecord
  2
CONTINUOUS
 70
     0
  3
Solid line
 72
    65
 73
     0
 40
0.0
  0
LTYPE
  5
6E
330
5
100
AcDbSymbolTableRecord
100
AcDbLinetypeTableRecord
  2
EXLTYPE0
 70
     0
  3
öjÉ³
 72
    65
 73
     2
 40
4.0
 49
3.0
 74
     0
 49
-1.0
 74
     0
  0
LTYPE
  5
6F
330
5
100
AcDbSymbolTableRecord
100
AcDbLinetypeTableRecord
  2
EXLTYPE1
 70
     0
  3
ō_É³
 72
    65
 73
     2
 40
1.2
 49
0.6
 74
     0
 49
-0.6
 74
     0
  0
LTYPE
  5
70
330
5
100
AcDbSymbolTableRecord
100
AcDbLinetypeTableRecord
  2
EXLTYPE2
 70
     0
  3
łĻō_ŹĮÉ³
 72
    65
 73
     4
 40
8.0
 49
5.0
 74
     0
 49
-1.0
 74
     0
 49
1.0
 74
     0
 49
-1.0
 74
     0
  0
LTYPE
  5
71
330
5
100
AcDbSymbolTableRecord
100
AcDbLinetypeTableRecord
  2
EXLTYPE3
 70
     0
  3
ō±ō_ŹĮÉ³
 72
    65
 73
     6
 40
10.0
 49
5.0
 74
     0
 49
-1.0
 74
     0
 49
1.0
 74
     0
 49
-1.0
 74
     0
 49
1.0
 74
     0
 49
-1.0
 74
     0
  0
LTYPE
  5
72
330
5
100
AcDbSymbolTableRecord
100
AcDbLinetypeTableRecord
  2
EXLTYPE4
 70
     0
  3
ÄOō_ŹĮÉ³
 72
    65
 73
     8
 40
37.0
 49
30.0
 74
     0
 49
-1.0
 74
     0
 49
1.0
 74
     0
 49
-1.0
 74
     0
 49
1.0
 74
     0
 49
-1.0
 74
     0
 49
1.0
 74
     0
 49
-1.0
 74
     0
  0
LTYPE
  5
73
330
5
100
AcDbSymbolTableRecord
100
AcDbLinetypeTableRecord
  2
EXLTYPE5
 70
     0
  3
Älō_ŹĮÉ³
 72
    65
 73
    10
 40
39.0
 49
30.0
 74
     0
 49
-1.0
 74
     0
 49
1.0
 74
     0
 49
-1.0
 74
     0
 49
1.0
 74
     0
 49
-1.0
 74
     0
 49
1.0
 74
     0
 49
-1.0
 74
     0
 49
1.0
 74
     0
 49
-1.0
 74
     0
  0
ENDTAB
  0
TABLE
  2
LAYER
  5
2
330
0
100
AcDbSymbolTable
 70
     2
  0
LAYER
  5
10
330
2
100
AcDbSymbolTableRecord
100
AcDbLayerTableRecord
  2
0
 70
     0
 62
     7
  6
CONTINUOUS
  0
LAYER
  5
21D
330
2
100
AcDbSymbolTableRecord
100
AcDbLayerTableRecord
  2
DEFPOINTS
 70
     0
 62
     7
  6
CONTINUOUS
  0
ENDTAB
  0
TABLE
  2
STYLE
  5
3
330
0
100
AcDbSymbolTable
 70
     4
  0
STYLE
  5
11
330
3
100
AcDbSymbolTableRecord
100
AcDbTextStyleTableRecord
  2
STANDARD
 70
     0
 40
0.0
 41
1.0
 50
0.0
 71
     0
 42
2.5
  3
monotxt
  4
extfont
  0
STYLE
  5
74
330
3
100
AcDbSymbolTableRecord
100
AcDbTextStyleTableRecord
  2
EXCADSTD
 70
     0
 40
0.0
 41
1.0
 50
0.0
 71
     0
 42
2.5
  3
monotxt
  4
extfont
  0
STYLE
  5
75
330
3
100
AcDbSymbolTableRecord
100
AcDbTextStyleTableRecord
  2
EXCADVERT
 70
     4
 40
0.0
 41
1.0
 50
0.0
 71
     0
 42
2.5
  3
monotxt
  4
extfont
  0
STYLE
  5
21B
330
3
100
AcDbSymbolTableRecord
100
AcDbTextStyleTableRecord
  2
EXCADDIM1
 70
     0
 40
0.0
 41
0.92
 50
0.0
 71
     0
 42
2.5
  3
monotxt
  4
extfont
  0
ENDTAB
  0
TABLE
  2
VIEW
  5
6
330
0
100
AcDbSymbolTable
 70
     0
  0
ENDTAB
  0
TABLE
  2
UCS
  5
7
330
0
100
AcDbSymbolTable
 70
     0
  0
ENDTAB
  0
TABLE
  2
APPID
  5
9
330
0
100
AcDbSymbolTable
 70
     2
  0
APPID
  5
12
330
9
100
AcDbSymbolTableRecord
100
AcDbRegAppTableRecord
  2
ACAD
 70
     0
  0
APPID
  5
3B6
330
9
100
AcDbSymbolTableRecord
100
AcDbRegAppTableRecord
  2
ACAD_MLEADERVER
 70
     0
  0
ENDTAB
  0
TABLE
  2
DIMSTYLE
  5
A
330
0
100
AcDbSymbolTable
 70
     1
  0
DIMSTYLE
105
27
102
{ACAD_REACTORS
330
21C
330
22A
330
236
330
242
330
24F
330
28E
330
2CE
330
2DC
330
2E8
330
2F3
330
30F
330
31B
330
327
330
334
102
}
330
A
100
AcDbSymbolTableRecord
100
AcDbDimStyleTableRecord
  2
ISO-25
 70
     0
  3

  4

  5

  6

  7

 40
1.0
 41
2.5
 42
0.625
 43
3.75
 44
1.25
 45
0.0
 46
0.0
 47
0.0
 48
0.0
140
2.5
141
2.5
142
0.0
143
0.03937007874016
144
1.0
145
0.0
146
1.0
147
0.625
 71
     0
 72
     0
 73
     0
 74
     0
 75
     0
 76
     0
 77
     1
 78
     8
170
     0
171
     3
172
     1
173
     0
174
     0
175
     0
176
     0
177
     0
178
     0
270
     2
271
     2
272
     2
273
     2
274
     3
340
11
275
     0
280
     0
281
     0
282
     0
283
     0
284
     8
285
     0
286
     0
287
     5
288
     0
  0
ENDTAB
  0
TABLE
  2
BLOCK_RECORD
  5
1
330
0
100
AcDbSymbolTable
 70
    29
  0
BLOCK_RECORD
  5
1F
330
1
100
AcDbSymbolTableRecord
100
AcDbBlockTableRecord
  2
*MODEL_SPACE
  0
BLOCK_RECORD
  5
1B
330
1
100
AcDbSymbolTableRecord
100
AcDbBlockTableRecord
  2
*PAPER_SPACE
  0
BLOCK_RECORD
  5
76
330
1
100
AcDbSymbolTableRecord
100
AcDbBlockTableRecord
  2
EX_NORM
  0
BLOCK_RECORD
  5
79
330
1
100
AcDbSymbolTableRecord
100
AcDbBlockTableRecord
  2
EX_BNORM
  0
BLOCK_RECORD
  5
7C
330
1
100
AcDbSymbolTableRecord
100
AcDbBlockTableRecord
  2
EX_BCIR
  0
BLOCK_RECORD
  5
7F
330
1
100
AcDbSymbolTableRecord
100
AcDbBlockTableRecord
  2
EX_RCIVIL
  0
BLOCK_RECORD
  5
82
330
1
100
AcDbSymbolTableRecord
100
AcDbBlockTableRecord
  2
EX_SLANT
  0
BLOCK_RECORD
  5
85
330
1
100
AcDbSymbolTableRecord
100
AcDbBlockTableRecord
  2
EX_NONE
  0
BLOCK_RECORD
  5
88
330
1
100
AcDbSymbolTableRecord
100
AcDbBlockTableRecord
  2
EX_CIVIL
  0
BLOCK_RECORD
  5
8B
330
1
100
AcDbSymbolTableRecord
100
AcDbBlockTableRecord
  2
EX_WCIR
  0
BLOCK_RECORD
  5
8E
330
1
100
AcDbSymbolTableRecord
100
AcDbBlockTableRecord
  2
EX_WCIR2
  0
BLOCK_RECORD
  5
91
330
1
100
AcDbSymbolTableRecord
100
AcDbBlockTableRecord
  2
EX_WNORM
  0
BLOCK_RECORD
  5
94
330
1
100
AcDbSymbolTableRecord
100
AcDbBlockTableRecord
  2
EX_NNORM
  0
BLOCK_RECORD
  5
97
330
1
100
AcDbSymbolTableRecord
100
AcDbBlockTableRecord
  2
EX_BBOX
  0
BLOCK_RECORD
  5
9A
330
1
100
AcDbSymbolTableRecord
100
AcDbBlockTableRecord
  2
EX_WBOX
  0
BLOCK_RECORD
  5
9D
330
1
100
AcDbSymbolTableRecord
100
AcDbBlockTableRecord
  2
EX_INTEGRAL
  0
BLOCK_RECORD
  5
21E
330
1
100
AcDbSymbolTableRecord
100
AcDbBlockTableRecord
  2
*D15
  0
BLOCK_RECORD
  5
22B
330
1
100
AcDbSymbolTableRecord
100
AcDbBlockTableRecord
  2
*D16
  0
BLOCK_RECORD
  5
237
330
1
100
AcDbSymbolTableRecord
100
AcDbBlockTableRecord
  2
*D17
  0
BLOCK_RECORD
  5
243
330
1
100
AcDbSymbolTableRecord
100
AcDbBlockTableRecord
  2
*D18
  0
BLOCK_RECORD
  5
250
330
1
100
AcDbSymbolTableRecord
100
AcDbBlockTableRecord
  2
*D19
  0
BLOCK_RECORD
  5
28F
330
1
100
AcDbSymbolTableRecord
100
AcDbBlockTableRecord
  2
*D20
  0
BLOCK_RECORD
  5
2CF
330
1
100
AcDbSymbolTableRecord
100
AcDbBlockTableRecord
  2
*D21
  0
BLOCK_RECORD
  5
2DD
330
1
100
AcDbSymbolTableRecord
100
AcDbBlockTableRecord
  2
*D22
  0
BLOCK_RECORD
  5
2E9
330
1
100
AcDbSymbolTableRecord
100
AcDbBlockTableRecord
  2
*D23
  0
BLOCK_RECORD
  5
2F4
330
1
100
AcDbSymbolTableRecord
100
AcDbBlockTableRecord
  2
*D24
  0
BLOCK_RECORD
  5
310
330
1
100
AcDbSymbolTableRecord
100
AcDbBlockTableRecord
  2
*D25
  0
BLOCK_RECORD
  5
31C
330
1
100
AcDbSymbolTableRecord
100
AcDbBlockTableRecord
  2
*D26
  0
BLOCK_RECORD
  5
328
330
1
100
AcDbSymbolTableRecord
100
AcDbBlockTableRecord
  2
*D27
  0
BLOCK_RECORD
  5
335
330
1
100
AcDbSymbolTableRecord
100
AcDbBlockTableRecord
  2
*D28
  0
ENDTAB
  0
ENDSEC
  0
SECTION
  2
BLOCKS
  0
BLOCK
  5
20
330
1F
100
AcDbEntity
  8
0
100
AcDbBlockBegin
  2
*MODEL_SPACE
 70
     0
 10
0.0
 20
0.0
 30
0.0
  3
*MODEL_SPACE
  1

  0
ENDBLK
  5
21
330
1F
100
AcDbEntity
  8
0
100
AcDbBlockEnd
  0
BLOCK
  5
1C
330
1B
100
AcDbEntity
 67
     1
  8
0
100
AcDbBlockBegin
  2
*PAPER_SPACE
 70
     0
 10
0.0
 20
0.0
 30
0.0
  3
*PAPER_SPACE
  1

  0
ENDBLK
  5
1D
330
1B
100
AcDbEntity
 67
     1
  8
0
100
AcDbBlockEnd
  0
BLOCK
  5
77
330
76
100
AcDbEntity
  8
0
100
AcDbBlockBegin
  2
EX_NORM
 70
     0
 10
0.0
 20
0.0
 30
0.0
  3
EX_NORM
  1

  0
LINE
  5
A0
330
76
100
AcDbEntity
  8
0
  6
CONTINUOUS
 62
     0
100
AcDbLine
 10
0.0
 20
0.0
 30
0.0
 11
-1.0
 21
0.0
 31
0.0
  0
LINE
  5
A1
330
76
100
AcDbEntity
  8
0
  6
CONTINUOUS
 62
     0
100
AcDbLine
 10
0.0
 20
0.0
 30
0.0
 11
-1.0
 21
0.166666667
 31
0.0
  0
LINE
  5
A2
330
76
100
AcDbEntity
  8
0
  6
CONTINUOUS
 62
     0
100
AcDbLine
 10
0.0
 20
0.0
 30
0.0
 11
-1.0
 21
-0.166666667
 31
0.0
  0
ENDBLK
  5
78
330
76
100
AcDbEntity
  8
0
100
AcDbBlockEnd
  0
BLOCK
  5
7A
330
79
100
AcDbEntity
  8
0
100
AcDbBlockBegin
  2
EX_BNORM
 70
     0
 10
0.0
 20
0.0
 30
0.0
  3
EX_BNORM
  1

  0
LINE
  5
A3
330
79
100
AcDbEntity
  8
0
  6
CONTINUOUS
 62
     0
100
AcDbLine
 10
0.0
 20
0.0
 30
0.0
 11
-1.0
 21
0.0
 31
0.0
  0
LINE
  5
A4
330
79
100
AcDbEntity
  8
0
  6
CONTINUOUS
 62
     0
100
AcDbLine
 10
0.0
 20
0.0
 30
0.0
 11
-1.0
 21
0.166666667
 31
0.0
  0
LINE
  5
A5
330
79
100
AcDbEntity
  8
0
  6
CONTINUOUS
 62
     0
100
AcDbLine
 10
0.0
 20
0.0
 30
0.0
 11
-1.0
 21
-0.166666667
 31
0.0
  0
LINE
  5
A6
330
79
100
AcDbEntity
  8
0
  6
CONTINUOUS
 62
     0
100
AcDbLine
 10
0.0
 20
0.0
 30
0.0
 11
-1.0
 21
0.083333333
 31
0.0
  0
LINE
  5
A7
330
79
100
AcDbEntity
  8
0
  6
CONTINUOUS
 62
     0
100
AcDbLine
 10
0.0
 20
0.0
 30
0.0
 11
-1.0
 21
-0.083333333
 31
0.0
  0
LINE
  5
A8
330
79
100
AcDbEntity
  8
0
  6
CONTINUOUS
 62
     0
100
AcDbLine
 10
-1.0
 20
0.166666667
 30
0.0
 11
-1.0
 21
-0.166666667
 31
0.0
  0
ENDBLK
  5
7B
330
79
100
AcDbEntity
  8
0
100
AcDbBlockEnd
  0
BLOCK
  5
7D
330
7C
100
AcDbEntity
  8
0
100
AcDbBlockBegin
  2
EX_BCIR
 70
     0
 10
0.0
 20
0.0
 30
0.0
  3
EX_BCIR
  1

  0
LINE
  5
A9
330
7C
100
AcDbEntity
  8
0
  6
CONTINUOUS
 62
     0
100
AcDbLine
 10
0.0
 20
0.0
 30
0.0
 11
-1.0
 21
0.0
 31
0.0
  0
CIRCLE
  5
AA
330
7C
100
AcDbEntity
  8
0
  6
CONTINUOUS
 62
     0
100
AcDbCircle
 10
0.0
 20
0.0
 30
0.0
 40
0.5
  0
CIRCLE
  5
AB
330
7C
100
AcDbEntity
  8
0
  6
CONTINUOUS
 62
     0
100
AcDbCircle
 10
0.0
 20
0.0
 30
0.0
 40
0.25
  0
ENDBLK
  5
7E
330
7C
100
AcDbEntity
  8
0
100
AcDbBlockEnd
  0
BLOCK
  5
80
330
7F
100
AcDbEntity
  8
0
100
AcDbBlockBegin
  2
EX_RCIVIL
 70
     0
 10
0.0
 20
0.0
 30
0.0
  3
EX_RCIVIL
  1

  0
LINE
  5
AC
330
7F
100
AcDbEntity
  8
0
  6
CONTINUOUS
 62
     0
100
AcDbLine
 10
0.0
 20
0.0
 30
0.0
 11
-1.0
 21
0.0
 31
0.0
  0
LINE
  5
AD
330
7F
100
AcDbEntity
  8
0
  6
CONTINUOUS
 62
     0
100
AcDbLine
 10
-1.0
 20
-0.25
 30
0.0
 11
0.0
 21
-0.25
 31
0.0
  0
LINE
  5
AE
330
7F
100
AcDbEntity
  8
0
  6
CONTINUOUS
 62
     0
100
AcDbLine
 10
-1.0
 20
-0.125
 30
0.0
 11
0.0
 21
-0.125
 31
0.0
  0
ENDBLK
  5
81
330
7F
100
AcDbEntity
  8
0
100
AcDbBlockEnd
  0
BLOCK
  5
83
330
82
100
AcDbEntity
  8
0
100
AcDbBlockBegin
  2
EX_SLANT
 70
     0
 10
0.0
 20
0.0
 30
0.0
  3
EX_SLANT
  1

  0
LINE
  5
AF
330
82
100
AcDbEntity
  8
0
  6
CONTINUOUS
 62
     0
100
AcDbLine
 10
0.0
 20
0.0
 30
0.0
 11
-1.0
 21
0.0
 31
0.0
  0
LINE
  5
B0
330
82
100
AcDbEntity
  8
0
  6
CONTINUOUS
 62
     0
100
AcDbLine
 10
0.707106781
 20
0.707106781
 30
0.0
 11
-0.707106781
 21
-0.707106781
 31
0.0
  0
ENDBLK
  5
84
330
82
100
AcDbEntity
  8
0
100
AcDbBlockEnd
  0
BLOCK
  5
86
330
85
100
AcDbEntity
  8
0
100
AcDbBlockBegin
  2
EX_NONE
 70
     0
 10
0.0
 20
0.0
 30
0.0
  3
EX_NONE
  1

  0
LINE
  5
B1
330
85
100
AcDbEntity
  8
0
  6
CONTINUOUS
 62
     0
100
AcDbLine
 10
0.0
 20
0.0
 30
0.0
 11
-1.0
 21
0.0
 31
0.0
  0
ENDBLK
  5
87
330
85
100
AcDbEntity
  8
0
100
AcDbBlockEnd
  0
BLOCK
  5
89
330
88
100
AcDbEntity
  8
0
100
AcDbBlockBegin
  2
EX_CIVIL
 70
     0
 10
0.0
 20
0.0
 30
0.0
  3
EX_CIVIL
  1

  0
LINE
  5
B2
330
88
100
AcDbEntity
  8
0
  6
CONTINUOUS
 62
     0
100
AcDbLine
 10
0.0
 20
0.0
 30
0.0
 11
-1.0
 21
0.0
 31
0.0
  0
LINE
  5
B3
330
88
100
AcDbEntity
  8
0
  6
CONTINUOUS
 62
     0
100
AcDbLine
 10
-1.0
 20
0.25
 30
0.0
 11
0.0
 21
0.25
 31
0.0
  0
LINE
  5
B4
330
88
100
AcDbEntity
  8
0
  6
CONTINUOUS
 62
     0
100
AcDbLine
 10
-1.0
 20
0.125
 30
0.0
 11
0.0
 21
0.125
 31
0.0
  0
ENDBLK
  5
8A
330
88
100
AcDbEntity
  8
0
100
AcDbBlockEnd
  0
BLOCK
  5
8C
330
8B
100
AcDbEntity
  8
0
100
AcDbBlockBegin
  2
EX_WCIR
 70
     0
 10
0.0
 20
0.0
 30
0.0
  3
EX_WCIR
  1

  0
LINE
  5
B5
330
8B
100
AcDbEntity
  8
0
  6
CONTINUOUS
 62
     0
100
AcDbLine
 10
0.0
 20
0.0
 30
0.0
 11
-1.0
 21
0.0
 31
0.0
  0
CIRCLE
  5
B6
330
8B
100
AcDbEntity
  8
0
  6
CONTINUOUS
 62
     0
100
AcDbCircle
 10
0.0
 20
0.0
 30
0.0
 40
0.5
  0
ENDBLK
  5
8D
330
8B
100
AcDbEntity
  8
0
100
AcDbBlockEnd
  0
BLOCK
  5
8F
330
8E
100
AcDbEntity
  8
0
100
AcDbBlockBegin
  2
EX_WCIR2
 70
     0
 10
0.0
 20
0.0
 30
0.0
  3
EX_WCIR2
  1

  0
LINE
  5
B7
330
8E
100
AcDbEntity
  8
0
  6
CONTINUOUS
 62
     0
100
AcDbLine
 10
-0.5
 20
0.0
 30
0.0
 11
-1.0
 21
0.0
 31
0.0
  0
CIRCLE
  5
B8
330
8E
100
AcDbEntity
  8
0
  6
CONTINUOUS
 62
     0
100
AcDbCircle
 10
0.0
 20
0.0
 30
0.0
 40
0.5
  0
ENDBLK
  5
90
330
8E
100
AcDbEntity
  8
0
100
AcDbBlockEnd
  0
BLOCK
  5
92
330
91
100
AcDbEntity
  8
0
100
AcDbBlockBegin
  2
EX_WNORM
 70
     0
 10
0.0
 20
0.0
 30
0.0
  3
EX_WNORM
  1

  0
LINE
  5
B9
330
91
100
AcDbEntity
  8
0
  6
CONTINUOUS
 62
     0
100
AcDbLine
 10
-1.0
 20
0.0
 30
0.0
 11
-1.0
 21
0.0
 31
0.0
  0
LINE
  5
BA
330
91
100
AcDbEntity
  8
0
  6
CONTINUOUS
 62
     0
100
AcDbLine
 10
0.0
 20
0.0
 30
0.0
 11
-1.0
 21
0.166666667
 31
0.0
  0
LINE
  5
BB
330
91
100
AcDbEntity
  8
0
  6
CONTINUOUS
 62
     0
100
AcDbLine
 10
0.0
 20
0.0
 30
0.0
 11
-1.0
 21
-0.166666667
 31
0.0
  0
LINE
  5
BC
330
91
100
AcDbEntity
  8
0
  6
CONTINUOUS
 62
     0
100
AcDbLine
 10
-1.0
 20
0.166666667
 30
0.0
 11
-1.0
 21
-0.166666667
 31
0.0
  0
ENDBLK
  5
93
330
91
100
AcDbEntity
  8
0
100
AcDbBlockEnd
  0
BLOCK
  5
95
330
94
100
AcDbEntity
  8
0
100
AcDbBlockBegin
  2
EX_NNORM
 70
     0
 10
0.0
 20
0.0
 30
0.0
  3
EX_NNORM
  1

  0
LINE
  5
BD
330
94
100
AcDbEntity
  8
0
  6
CONTINUOUS
 62
     0
100
AcDbLine
 10
0.0
 20
0.0
 30
0.0
 11
-1.0
 21
0.0
 31
0.0
  0
LINE
  5
BE
330
94
100
AcDbEntity
  8
0
  6
CONTINUOUS
 62
     0
100
AcDbLine
 10
0.0
 20
0.0
 30
0.0
 11
-1.0
 21
0.166666667
 31
0.0
  0
LINE
  5
BF
330
94
100
AcDbEntity
  8
0
  6
CONTINUOUS
 62
     0
100
AcDbLine
 10
0.0
 20
0.0
 30
0.0
 11
-1.0
 21
-0.166666667
 31
0.0
  0
LINE
  5
C0
330
94
100
AcDbEntity
  8
0
  6
CONTINUOUS
 62
     0
100
AcDbLine
 10
-1.0
 20
0.166666667
 30
0.0
 11
-1.0
 21
-0.166666667
 31
0.0
  0
ENDBLK
  5
96
330
94
100
AcDbEntity
  8
0
100
AcDbBlockEnd
  0
BLOCK
  5
98
330
97
100
AcDbEntity
  8
0
100
AcDbBlockBegin
  2
EX_BBOX
 70
     0
 10
0.0
 20
0.0
 30
0.0
  3
EX_BBOX
  1

  0
LINE
  5
C1
330
97
100
AcDbEntity
  8
0
  6
CONTINUOUS
 62
     0
100
AcDbLine
 10
0.0
 20
0.0
 30
0.0
 11
-1.0
 21
0.0
 31
0.0
  0
LINE
  5
C2
330
97
100
AcDbEntity
  8
0
  6
CONTINUOUS
 62
     0
100
AcDbLine
 10
-0.5
 20
0.5
 30
0.0
 11
0.5
 21
0.5
 31
0.0
  0
LINE
  5
C3
330
97
100
AcDbEntity
  8
0
  6
CONTINUOUS
 62
     0
100
AcDbLine
 10
0.5
 20
0.5
 30
0.0
 11
0.5
 21
-0.5
 31
0.0
  0
LINE
  5
C4
330
97
100
AcDbEntity
  8
0
  6
CONTINUOUS
 62
     0
100
AcDbLine
 10
0.5
 20
-0.5
 30
0.0
 11
-0.5
 21
-0.5
 31
0.0
  0
LINE
  5
C5
330
97
100
AcDbEntity
  8
0
  6
CONTINUOUS
 62
     0
100
AcDbLine
 10
-0.5
 20
-0.5
 30
0.0
 11
-0.5
 21
0.5
 31
0.0
  0
LINE
  5
C6
330
97
100
AcDbEntity
  8
0
  6
CONTINUOUS
 62
     0
100
AcDbLine
 10
-0.25
 20
0.25
 30
0.0
 11
0.25
 21
0.25
 31
0.0
  0
LINE
  5
C7
330
97
100
AcDbEntity
  8
0
  6
CONTINUOUS
 62
     0
100
AcDbLine
 10
0.25
 20
0.25
 30
0.0
 11
0.25
 21
-0.25
 31
0.0
  0
LINE
  5
C8
330
97
100
AcDbEntity
  8
0
  6
CONTINUOUS
 62
     0
100
AcDbLine
 10
0.25
 20
-0.25
 30
0.0
 11
-0.25
 21
-0.25
 31
0.0
  0
LINE
  5
C9
330
97
100
AcDbEntity
  8
0
  6
CONTINUOUS
 62
     0
100
AcDbLine
 10
-0.25
 20
-0.25
 30
0.0
 11
-0.25
 21
0.25
 31
0.0
  0
ENDBLK
  5
99
330
97
100
AcDbEntity
  8
0
100
AcDbBlockEnd
  0
BLOCK
  5
9B
330
9A
100
AcDbEntity
  8
0
100
AcDbBlockBegin
  2
EX_WBOX
 70
     0
 10
0.0
 20
0.0
 30
0.0
  3
EX_WBOX
  1

  0
LINE
  5
CA
330
9A
100
AcDbEntity
  8
0
  6
CONTINUOUS
 62
     0
100
AcDbLine
 10
-0.5
 20
0.0
 30
0.0
 11
-1.0
 21
0.0
 31
0.0
  0
LINE
  5
CB
330
9A
100
AcDbEntity
  8
0
  6
CONTINUOUS
 62
     0
100
AcDbLine
 10
-0.5
 20
0.5
 30
0.0
 11
0.5
 21
0.5
 31
0.0
  0
LINE
  5
CC
330
9A
100
AcDbEntity
  8
0
  6
CONTINUOUS
 62
     0
100
AcDbLine
 10
0.5
 20
0.5
 30
0.0
 11
0.5
 21
-0.5
 31
0.0
  0
LINE
  5
CD
330
9A
100
AcDbEntity
  8
0
  6
CONTINUOUS
 62
     0
100
AcDbLine
 10
0.5
 20
-0.5
 30
0.0
 11
-0.5
 21
-0.5
 31
0.0
  0
LINE
  5
CE
330
9A
100
AcDbEntity
  8
0
  6
CONTINUOUS
 62
     0
100
AcDbLine
 10
-0.5
 20
-0.5
 30
0.0
 11
-0.5
 21
0.5
 31
0.0
  0
ENDBLK
  5
9C
330
9A
100
AcDbEntity
  8
0
100
AcDbBlockEnd
  0
BLOCK
  5
9E
330
9D
100
AcDbEntity
  8
0
100
AcDbBlockBegin
  2
EX_INTEGRAL
 70
     0
 10
0.0
 20
0.0
 30
0.0
  3
EX_INTEGRAL
  1

  0
LINE
  5
CF
330
9D
100
AcDbEntity
  8
0
  6
CONTINUOUS
 62
     0
100
AcDbLine
 10
0.0
 20
0.0
 30
0.0
 11
-1.0
 21
0.0
 31
0.0
  0
ARC
  5
D0
330
9D
100
AcDbEntity
  8
0
  6
CONTINUOUS
 62
     0
100
AcDbCircle
 10
0.542115
 20
0.164992
 30
0.0
 40
0.56667
100
AcDbArc
 50
73.07249033629006
 51
196.9275130221199
  0
ARC
  5
D1
330
9D
100
AcDbEntity
  8
0
  6
CONTINUOUS
 62
     0
100
AcDbCircle
 10
-0.542115
 20
-0.164992
 30
0.0
 40
0.56667
100
AcDbArc
 50
253.0724869220464
 51
16.9275130559125
  0
ENDBLK
  5
9F
330
9D
100
AcDbEntity
  8
0
100
AcDbBlockEnd
  0
BLOCK
  5
21F
330
21E
100
AcDbEntity
  8
0
100
AcDbBlockBegin
  2
*D15
 70
     1
 10
0.0
 20
0.0
 30
0.0
  3
*D15
  1

  0
LINE
  5
221
330
21E
100
AcDbEntity
  8
0
  6
CONTINUOUS
 62
     2
100
AcDbLine
 10
452.5999960000099
 20
617.3300049999901
 30
0.0
 11
564.5
 21
617.3300049999901
 31
0.0
  0
LINE
  5
222
330
21E
100
AcDbEntity
  8
0
  6
CONTINUOUS
 62
     2
100
AcDbLine
 10
505.99999600001
 20
567.3300049999901
 30
0.0
 11
564.5
 21
567.3300049999901
 31
0.0
  0
LINE
  5
223
330
21E
100
AcDbEntity
  8
0
  6
CONTINUOUS
 62
     2
100
AcDbLine
 10
557.0
 20
602.3300049999901
 30
0.0
 11
557.0
 21
582.3300049999901
 31
0.0
  0
INSERT
  5
224
330
21E
100
AcDbEntity
  8
0
 62
     2
100
AcDbBlockReference
  2
EX_NORM
 10
557.0
 20
617.3300049999901
 30
0.0
 41
15.0
 42
15.0
 43
15.0
 50
90.0
  0
INSERT
  5
225
330
21E
100
AcDbEntity
  8
0
 62
     2
100
AcDbBlockReference
  2
EX_NORM
 10
557.0
 20
567.3300049999901
 30
0.0
 41
15.0
 42
15.0
 43
15.0
 50
270.0
  0
MTEXT
  5
226
330
21E
100
AcDbEntity
  8
0
 62
     2
100
AcDbMText
 10
545.2500000000003
 20
594.83000499999
 30
0.0
 40
12.8622054
 41
0.0
 71
     5
 72
     1
  1
50
  7
EXCADDIM1
 11
-3.828568698926949E-16
 21
1.0
 31
0.0
  0
POINT
  5
227
330
21E
100
AcDbEntity
  8
DEFPOINTS
 62
     0
100
AcDbPoint
 10
445.0999960000099
 20
617.3300049999901
 30
0.0
  0
POINT
  5
228
330
21E
100
AcDbEntity
  8
DEFPOINTS
 62
     0
100
AcDbPoint
 10
498.49999600001
 20
567.3300049999901
 30
0.0
  0
POINT
  5
229
330
21E
100
AcDbEntity
  8
DEFPOINTS
 62
     0
100
AcDbPoint
 10
557.0
 20
567.3300049999901
 30
0.0
  0
ENDBLK
  5
220
330
21E
100
AcDbEntity
  8
0
100
AcDbBlockEnd
  0
BLOCK
  5
22C
330
22B
100
AcDbEntity
  8
0
100
AcDbBlockBegin
  2
*D16
 70
     1
 10
0.0
 20
0.0
 30
0.0
  3
*D16
  1

  0
LINE
  5
22E
330
22B
100
AcDbEntity
  8
0
  6
CONTINUOUS
 62
     2
100
AcDbLine
 10
505.99999600001
 20
517.3300079999901
 30
0.0
 11
564.5
 21
517.3300079999901
 31
0.0
  0
LINE
  5
22F
330
22B
100
AcDbEntity
  8
0
  6
CONTINUOUS
 62
     2
100
AcDbLine
 10
557.0
 20
532.3300079999901
 30
0.0
 11
557.0
 21
552.3300049999901
 31
0.0
  0
INSERT
  5
230
330
22B
100
AcDbEntity
  8
0
 62
     2
100
AcDbBlockReference
  2
EX_NORM
 10
557.0
 20
517.3300079999901
 30
0.0
 41
15.0
 42
15.0
 43
15.0
 50
270.0
  0
INSERT
  5
231
330
22B
100
AcDbEntity
  8
0
 62
     2
100
AcDbBlockReference
  2
EX_NORM
 10
557.0
 20
567.3300049999901
 30
0.0
 41
15.0
 42
15.0
 43
15.0
 50
90.0
  0
MTEXT
  5
232
330
22B
100
AcDbEntity
  8
0
 62
     2
100
AcDbMText
 10
545.75
 20
542.3300064999901
 30
0.0
 40
12.8622054
 41
0.0
 71
     5
 72
     1
  1
50
  7
EXCADDIM1
 11
0.0
 21
1.0
 31
0.0
  0
POINT
  5
233
330
22B
100
AcDbEntity
  8
DEFPOINTS
 62
     0
100
AcDbPoint
 10
498.49999600001
 20
517.3300079999901
 30
0.0
  0
POINT
  5
234
330
22B
100
AcDbEntity
  8
DEFPOINTS
 62
     0
100
AcDbPoint
 10
557.0
 20
567.3300049999901
 30
0.0
  0
POINT
  5
235
330
22B
100
AcDbEntity
  8
DEFPOINTS
 62
     0
100
AcDbPoint
 10
557.0
 20
567.3300049999901
 30
0.0
  0
ENDBLK
  5
22D
330
22B
100
AcDbEntity
  8
0
100
AcDbBlockEnd
  0
BLOCK
  5
238
330
237
100
AcDbEntity
  8
0
100
AcDbBlockBegin
  2
*D17
 70
     1
 10
0.0
 20
0.0
 30
0.0
  3
*D17
  1

  0
LINE
  5
23A
330
237
100
AcDbEntity
  8
0
  6
CONTINUOUS
 62
     2
100
AcDbLine
 10
399.0000030002355
 20
794.3300016861501
 30
0.0
 11
564.5
 21
794.3300016861501
 31
0.0
  0
LINE
  5
23B
330
237
100
AcDbEntity
  8
0
  6
CONTINUOUS
 62
     2
100
AcDbLine
 10
557.0
 20
779.3300016861501
 30
0.0
 11
557.0
 21
632.3300049999901
 31
0.0
  0
INSERT
  5
23C
330
237
100
AcDbEntity
  8
0
 62
     2
100
AcDbBlockReference
  2
EX_NORM
 10
557.0
 20
794.3300016861501
 30
0.0
 41
15.0
 42
15.0
 43
15.0
 50
90.0
  0
INSERT
  5
23D
330
237
100
AcDbEntity
  8
0
 62
     2
100
AcDbBlockReference
  2
EX_NORM
 10
557.0
 20
617.3300049999901
 30
0.0
 41
15.0
 42
15.0
 43
15.0
 50
270.0
  0
MTEXT
  5
23E
330
237
100
AcDbEntity
  8
0
 62
     2
100
AcDbMText
 10
545.7500000000001
 20
705.8300033430701
 30
0.0
 40
12.8622054
 41
0.0
 71
     5
 72
     1
  1
177
  7
EXCADDIM1
 11
0.0
 21
1.0
 31
0.0
  0
POINT
  5
23F
330
237
100
AcDbEntity
  8
DEFPOINTS
 62
     0
100
AcDbPoint
 10
395.5000030598401
 20
794.3300016861501
 30
0.0
  0
POINT
  5
240
330
237
100
AcDbEntity
  8
DEFPOINTS
 62
     0
100
AcDbPoint
 10
557.0
 20
617.3300049999901
 30
0.0
  0
POINT
  5
241
330
237
100
AcDbEntity
  8
DEFPOINTS
 62
     0
100
AcDbPoint
 10
557.0
 20
617.3300049999901
 30
0.0
  0
ENDBLK
  5
239
330
237
100
AcDbEntity
  8
0
100
AcDbBlockEnd
  0
BLOCK
  5
244
330
243
100
AcDbEntity
  8
0
100
AcDbBlockBegin
  2
*D18
 70
     1
 10
0.0
 20
0.0
 30
0.0
  3
*D18
  1

  0
LINE
  5
246
330
243
100
AcDbEntity
  8
0
  6
CONTINUOUS
 62
     2
100
AcDbLine
 10
263.4999950000001
 20
668.9999914468788
 30
0.0
 11
263.4999950000001
 21
854.0000040000002
 31
0.0
  0
LINE
  5
247
330
243
100
AcDbEntity
  8
0
  6
CONTINUOUS
 62
     2
100
AcDbLine
 10
378.50000000001
 20
827.6600011330191
 30
0.0
 11
378.50000000001
 21
854.0000040000002
 31
0.0
  0
LINE
  5
248
330
243
100
AcDbEntity
  8
0
  6
CONTINUOUS
 62
     2
100
AcDbLine
 10
278.4999950000001
 20
846.5000040000002
 30
0.0
 11
363.50000000001
 21
846.5000040000002
 31
0.0
  0
INSERT
  5
249
330
243
100
AcDbEntity
  8
0
 62
     2
100
AcDbBlockReference
  2
EX_NORM
 10
263.4999950000001
 20
846.5000040000002
 30
0.0
 41
15.0
 42
15.0
 43
15.0
 50
180.0
  0
INSERT
  5
24A
330
243
100
AcDbEntity
  8
0
 62
     2
100
AcDbBlockReference
  2
EX_NORM
 10
378.50000000001
 20
846.5000040000002
 30
0.0
 41
15.0
 42
15.0
 43
15.0
  0
MTEXT
  5
24B
330
243
100
AcDbEntity
  8
0
 62
     2
100
AcDbMText
 10
320.9999975000052
 20
857.7500040000002
 30
0.0
 40
12.8622054
 41
0.0
 71
     5
 72
     1
  1
115
  7
EXCADDIM1
  0
POINT
  5
24C
330
243
100
AcDbEntity
  8
DEFPOINTS
 62
     0
100
AcDbPoint
 10
263.4999950000001
 20
635.6699920000099
 30
0.0
  0
POINT
  5
24D
330
243
100
AcDbEntity
  8
DEFPOINTS
 62
     0
100
AcDbPoint
 10
378.50000000001
 20
794.3300016861502
 30
0.0
  0
POINT
  5
24E
330
243
100
AcDbEntity
  8
DEFPOINTS
 62
     0
100
AcDbPoint
 10
378.50000000001
 20
846.5000040000002
 30
0.0
  0
ENDBLK
  5
245
330
243
100
AcDbEntity
  8
0
100
AcDbBlockEnd
  0
BLOCK
  5
251
330
250
100
AcDbEntity
  8
0
100
AcDbBlockBegin
  2
*D19
 70
     1
 10
0.0
 20
0.0
 30
0.0
  3
*D19
  1

  0
LINE
  5
253
330
250
100
AcDbEntity
  8
0
  6
CONTINUOUS
 62
     2
100
AcDbLine
 10
395.5000030598401
 20
797.0000015836303
 30
0.0
 11
395.5000030598401
 21
854.0000040000002
 31
0.0
  0
LINE
  5
254
330
250
100
AcDbEntity
  8
0
  6
CONTINUOUS
 62
     2
100
AcDbLine
 10
378.50000000001
 20
823.1700038974802
 30
0.0
 11
378.50000000001
 21
854.0000040000002
 31
0.0
  0
LINE
  5
255
330
250
100
AcDbEntity
  8
0
  6
CONTINUOUS
 62
     2
100
AcDbLine
 10
395.5000030598401
 20
846.5000040000002
 30
0.0
 11
378.50000000001
 21
846.5000040000002
 31
0.0
  0
LINE
  5
256
330
250
100
AcDbEntity
  8
0
  6
CONTINUOUS
 62
     2
100
AcDbLine
 10
410.5000030598401
 20
846.5000040000002
 30
0.0
 11
425.5000030598401
 21
846.5000040000002
 31
0.0
  0
LINE
  5
257
330
250
100
AcDbEntity
  8
0
  6
CONTINUOUS
 62
     2
100
AcDbLine
 10
363.50000000001
 20
846.5000040000002
 30
0.0
 11
348.50000000001
 21
846.5000040000002
 31
0.0
  0
INSERT
  5
258
330
250
100
AcDbEntity
  8
0
 62
     2
100
AcDbBlockReference
  2
EX_NORM
 10
395.5000030598401
 20
846.5000040000002
 30
0.0
 41
15.0
 42
15.0
 43
15.0
 50
180.0
  0
INSERT
  5
259
330
250
100
AcDbEntity
  8
0
 62
     2
100
AcDbBlockReference
  2
EX_NORM
 10
378.50000000001
 20
846.5000040000002
 30
0.0
 41
15.0
 42
15.0
 43
15.0
  0
MTEXT
  5
25A
330
250
100
AcDbEntity
  8
0
 62
     2
100
AcDbMText
 10
428.5000025830034
 20
857.7500040000002
 30
0.0
 40
12.8622054
 41
0.0
 71
     5
 72
     1
  1
17
  7
EXCADDIM1
  0
POINT
  5
25B
330
250
100
AcDbEntity
  8
DEFPOINTS
 62
     0
100
AcDbPoint
 10
395.5000030598401
 20
794.3300016861502
 30
0.0
  0
POINT
  5
25C
330
250
100
AcDbEntity
  8
DEFPOINTS
 62
     0
100
AcDbPoint
 10
378.50000000001
 20
820.5000040000002
 30
0.0
  0
POINT
  5
25D
330
250
100
AcDbEntity
  8
DEFPOINTS
 62
     0
100
AcDbPoint
 10
378.50000000001
 20
846.5000040000002
 30
0.0
  0
ENDBLK
  5
252
330
250
100
AcDbEntity
  8
0
100
AcDbBlockEnd
  0
BLOCK
  5
290
330
28F
100
AcDbEntity
  8
0
100
AcDbBlockBegin
  2
*D20
 70
     1
 10
0.0
 20
0.0
 30
0.0
  3
*D20
  1

  0
LINE
  5
292
330
28F
100
AcDbEntity
  8
0
  6
CONTINUOUS
 62
     2
100
AcDbLine
 10
680.3499939999998
 20
595.9800049999901
 30
0.0
 11
648.8499999999999
 21
595.9800049999901
 31
0.0
  0
LINE
  5
293
330
28F
100
AcDbEntity
  8
0
  6
CONTINUOUS
 62
     2
100
AcDbLine
 10
680.3499939999998
 20
638.6800049999902
 30
0.0
 11
648.8499999999999
 21
638.6800049999902
 31
0.0
  0
LINE
  5
294
330
28F
100
AcDbEntity
  8
0
  6
CONTINUOUS
 62
     2
100
AcDbLine
 10
656.3499999999999
 20
610.9800049999901
 30
0.0
 11
656.3499999999999
 21
623.6800049999902
 31
0.0
  0
INSERT
  5
295
330
28F
100
AcDbEntity
  8
0
 62
     2
100
AcDbBlockReference
  2
EX_NORM
 10
656.3499999999999
 20
595.9800049999901
 30
0.0
 41
15.0
 42
15.0
 43
15.0
 50
270.0
  0
INSERT
  5
296
330
28F
100
AcDbEntity
  8
0
 62
     2
100
AcDbBlockReference
  2
EX_NORM
 10
656.3499999999999
 20
638.6800049999902
 30
0.0
 41
15.0
 42
15.0
 43
15.0
 50
90.0
  0
MTEXT
  5
297
330
28F
100
AcDbEntity
  8
0
 62
     2
100
AcDbMText
 10
645.1
 20
694.1800039271064
 30
0.0
 40
12.8622054
 41
0.0
 71
     5
 72
     1
  1
%%c42.7
  7
EXCADDIM1
 11
0.0
 21
1.0
 31
0.0
  0
POINT
  5
298
330
28F
100
AcDbEntity
  8
DEFPOINTS
 62
     0
100
AcDbPoint
 10
687.8499939999998
 20
595.9800049999901
 30
0.0
  0
POINT
  5
299
330
28F
100
AcDbEntity
  8
DEFPOINTS
 62
     0
100
AcDbPoint
 10
687.8499939999998
 20
638.6800049999902
 30
0.0
  0
POINT
  5
29A
330
28F
100
AcDbEntity
  8
DEFPOINTS
 62
     0
100
AcDbPoint
 10
656.3499999999999
 20
638.6800049999902
 30
0.0
  0
ENDBLK
  5
291
330
28F
100
AcDbEntity
  8
0
100
AcDbBlockEnd
  0
BLOCK
  5
2D0
330
2CF
100
AcDbEntity
  8
0
100
AcDbBlockBegin
  2
*D21
 70
     1
 10
0.0
 20
0.0
 30
0.0
  3
*D21
  1

  0
LINE
  5
2D2
330
2CF
100
AcDbEntity
  8
0
  6
CONTINUOUS
 62
     2
100
AcDbLine
 10
1858.849997
 20
594.0732300000001
 30
0.0
 11
1858.849997
 21
525.0
 31
0.0
  0
LINE
  5
2D3
330
2CF
100
AcDbEntity
  8
0
  6
CONTINUOUS
 62
     2
100
AcDbLine
 10
1858.849997
 20
532.5
 30
0.0
 11
1873.849996
 21
532.5
 31
0.0
  0
LINE
  5
2D4
330
2CF
100
AcDbEntity
  8
0
  6
CONTINUOUS
 62
     2
100
AcDbLine
 10
1843.849997
 20
532.5
 30
0.0
 11
1828.849997
 21
532.5
 31
0.0
  0
LINE
  5
2D5
330
2CF
100
AcDbEntity
  8
0
  6
CONTINUOUS
 62
     2
100
AcDbLine
 10
1888.849996
 20
532.5
 30
0.0
 11
1903.849996
 21
532.5
 31
0.0
  0
INSERT
  5
2D6
330
2CF
100
AcDbEntity
  8
0
 62
     2
100
AcDbBlockReference
  2
EX_NORM
 10
1858.849997
 20
532.5
 30
0.0
 41
15.0
 42
15.0
 43
15.0
  0
INSERT
  5
2D7
330
2CF
100
AcDbEntity
  8
0
 62
     2
100
AcDbBlockReference
  2
EX_NORM
 10
1873.849996
 20
532.5
 30
0.0
 41
15.0
 42
15.0
 43
15.0
 50
180.0
  0
MTEXT
  5
2D8
330
2CF
100
AcDbEntity
  8
0
 62
     2
100
AcDbMText
 10
1906.849995523163
 20
543.75
 30
0.0
 40
12.8622054
 41
0.0
 71
     5
 72
     1
  1
15
  7
EXCADDIM1
  0
POINT
  5
2D9
330
2CF
100
AcDbEntity
  8
DEFPOINTS
 62
     0
100
AcDbPoint
 10
1858.849997
 20
601.5732300000001
 30
0.0
  0
POINT
  5
2DA
330
2CF
100
AcDbEntity
  8
DEFPOINTS
 62
     0
100
AcDbPoint
 10
1873.849996
 20
596.9800050000001
 30
0.0
  0
POINT
  5
2DB
330
2CF
100
AcDbEntity
  8
DEFPOINTS
 62
     0
100
AcDbPoint
 10
1873.849996
 20
532.5
 30
0.0
  0
ENDBLK
  5
2D1
330
2CF
100
AcDbEntity
  8
0
100
AcDbBlockEnd
  0
BLOCK
  5
2DE
330
2DD
100
AcDbEntity
  8
0
100
AcDbBlockBegin
  2
*D22
 70
     1
 10
0.0
 20
0.0
 30
0.0
  3
*D22
  1

  0
LINE
  5
2E0
330
2DD
100
AcDbEntity
  8
0
  6
CONTINUOUS
 62
     2
100
AcDbLine
 10
378.50000000001
 20
466.9300079999902
 30
0.0
 11
378.50000000001
 21
441.5000000000001
 31
0.0
  0
LINE
  5
2E1
330
2DD
100
AcDbEntity
  8
0
  6
CONTINUOUS
 62
     2
100
AcDbLine
 10
483.49999600001
 20
449.0000000000001
 30
0.0
 11
393.50000000001
 21
449.0000000000001
 31
0.0
  0
INSERT
  5
2E2
330
2DD
100
AcDbEntity
  8
0
 62
     2
100
AcDbBlockReference
  2
EX_NORM
 10
498.49999600001
 20
449.0000000000001
 30
0.0
 41
15.0
 42
15.0
 43
15.0
  0
INSERT
  5
2E3
330
2DD
100
AcDbEntity
  8
0
 62
     2
100
AcDbBlockReference
  2
EX_NORM
 10
378.50000000001
 20
449.0000000000001
 30
0.0
 41
15.0
 42
15.0
 43
15.0
 50
180.0
  0
MTEXT
  5
2E4
330
2DD
100
AcDbEntity
  8
0
 62
     2
100
AcDbMText
 10
438.49999800001
 20
460.2500000000001
 30
0.0
 40
12.8622054
 41
0.0
 71
     5
 72
     1
  1
120
  7
EXCADDIM1
  0
POINT
  5
2E5
330
2DD
100
AcDbEntity
  8
DEFPOINTS
 62
     0
100
AcDbPoint
 10
498.49999600001
 20
577.33000599999
 30
0.0
  0
POINT
  5
2E6
330
2DD
100
AcDbEntity
  8
DEFPOINTS
 62
     0
100
AcDbPoint
 10
378.50000000001
 20
474.4300079999902
 30
0.0
  0
POINT
  5
2E7
330
2DD
100
AcDbEntity
  8
DEFPOINTS
 62
     0
100
AcDbPoint
 10
378.50000000001
 20
449.0000000000001
 30
0.0
  0
ENDBLK
  5
2DF
330
2DD
100
AcDbEntity
  8
0
100
AcDbBlockEnd
  0
BLOCK
  5
2EA
330
2E9
100
AcDbEntity
  8
0
100
AcDbBlockBegin
  2
*D23
 70
     1
 10
0.0
 20
0.0
 30
0.0
  3
*D23
  1

  0
LINE
  5
2EC
330
2E9
100
AcDbEntity
  8
0
  6
CONTINUOUS
 62
     2
100
AcDbLine
 10
213.499996
 20
449.0000000000001
 30
0.0
 11
363.50000000001
 21
449.0000000000001
 31
0.0
  0
INSERT
  5
2ED
330
2E9
100
AcDbEntity
  8
0
 62
     2
100
AcDbBlockReference
  2
EX_NORM
 10
198.499996
 20
449.0000000000001
 30
0.0
 41
15.0
 42
15.0
 43
15.0
 50
180.0
  0
INSERT
  5
2EE
330
2E9
100
AcDbEntity
  8
0
 62
     2
100
AcDbBlockReference
  2
EX_NORM
 10
378.50000000001
 20
449.0000000000001
 30
0.0
 41
15.0
 42
15.0
 43
15.0
  0
MTEXT
  5
2EF
330
2E9
100
AcDbEntity
  8
0
 62
     2
100
AcDbMText
 10
288.4999980000051
 20
460.2500000000001
 30
0.0
 40
12.8622054
 41
0.0
 71
     5
 72
     1
  1
180
  7
EXCADDIM1
  0
POINT
  5
2F0
330
2E9
100
AcDbEntity
  8
DEFPOINTS
 62
     0
100
AcDbPoint
 10
198.499996
 20
577.33000599999
 30
0.0
  0
POINT
  5
2F1
330
2E9
100
AcDbEntity
  8
DEFPOINTS
 62
     0
100
AcDbPoint
 10
378.50000000001
 20
504.0000000000001
 30
0.0
  0
POINT
  5
2F2
330
2E9
100
AcDbEntity
  8
DEFPOINTS
 62
     0
100
AcDbPoint
 10
378.50000000001
 20
449.0000000000001
 30
0.0
  0
ENDBLK
  5
2EB
330
2E9
100
AcDbEntity
  8
0
100
AcDbBlockEnd
  0
BLOCK
  5
2F5
330
2F4
100
AcDbEntity
  8
0
100
AcDbBlockBegin
  2
*D24
 70
     1
 10
0.0
 20
0.0
 30
0.0
  3
*D24
  1

  0
LINE
  5
2F7
330
2F4
100
AcDbEntity
  8
0
  6
CONTINUOUS
 62
     2
100
AcDbLine
 10
498.49999600001
 20
511.4999940429256
 30
0.0
 11
498.49999600001
 21
396.5000000000002
 31
0.0
  0
LINE
  5
2F8
330
2F4
100
AcDbEntity
  8
0
  6
CONTINUOUS
 62
     2
100
AcDbLine
 10
198.499996
 20
511.4999940429256
 30
0.0
 11
198.499996
 21
396.5000000000002
 31
0.0
  0
LINE
  5
2F9
330
2F4
100
AcDbEntity
  8
0
  6
CONTINUOUS
 62
     2
100
AcDbLine
 10
483.49999600001
 20
404.0000000000002
 30
0.0
 11
213.499996
 21
404.0000000000002
 31
0.0
  0
INSERT
  5
2FA
330
2F4
100
AcDbEntity
  8
0
 62
     2
100
AcDbBlockReference
  2
EX_NORM
 10
498.49999600001
 20
404.0000000000002
 30
0.0
 41
15.0
 42
15.0
 43
15.0
  0
INSERT
  5
2FB
330
2F4
100
AcDbEntity
  8
0
 62
     2
100
AcDbBlockReference
  2
EX_NORM
 10
198.499996
 20
404.0000000000002
 30
0.0
 41
15.0
 42
15.0
 43
15.0
 50
180.0
  0
MTEXT
  5
2FC
330
2F4
100
AcDbEntity
  8
0
 62
     2
100
AcDbMText
 10
348.4999960000051
 20
415.2500000000001
 30
0.0
 40
12.8622054
 41
0.0
 71
     5
 72
     1
  1
300
  7
EXCADDIM1
  0
POINT
  5
2FD
330
2F4
100
AcDbEntity
  8
DEFPOINTS
 62
     0
100
AcDbPoint
 10
498.49999600001
 20
513.1699940000102
 30
0.0
  0
POINT
  5
2FE
330
2F4
100
AcDbEntity
  8
DEFPOINTS
 62
     0
100
AcDbPoint
 10
198.499996
 20
513.1699940000102
 30
0.0
  0
POINT
  5
2FF
330
2F4
100
AcDbEntity
  8
DEFPOINTS
 62
     0
100
AcDbPoint
 10
198.499996
 20
404.0000000000002
 30
0.0
  0
ENDBLK
  5
2F6
330
2F4
100
AcDbEntity
  8
0
100
AcDbBlockEnd
  0
BLOCK
  5
311
330
310
100
AcDbEntity
  8
0
100
AcDbBlockBegin
  2
*D25
 70
     1
 10
0.0
 20
0.0
 30
0.0
  3
*D25
  1

  0
LINE
  5
313
330
310
100
AcDbEntity
  8
0
  6
CONTINUOUS
 62
     2
100
AcDbLine
 10
1795.349995
 20
558.330005
 30
0.0
 11
1795.349995
 21
441.5000000000001
 31
0.0
  0
LINE
  5
314
330
310
100
AcDbEntity
  8
0
  6
CONTINUOUS
 62
     2
100
AcDbLine
 10
1780.349995
 20
449.0000000000001
 30
0.0
 11
1760.349995
 21
449.0000000000001
 31
0.0
  0
INSERT
  5
315
330
310
100
AcDbEntity
  8
0
 62
     2
100
AcDbBlockReference
  2
EX_NORM
 10
1795.349995
 20
449.0000000000001
 30
0.0
 41
15.0
 42
15.0
 43
15.0
  0
INSERT
  5
316
330
310
100
AcDbEntity
  8
0
 62
     2
100
AcDbBlockReference
  2
EX_NORM
 10
1745.349995
 20
449.0000000000001
 30
0.0
 41
15.0
 42
15.0
 43
15.0
 50
180.0
  0
MTEXT
  5
317
330
310
100
AcDbEntity
  8
0
 62
     2
100
AcDbMText
 10
1770.349995
 20
460.2500000000001
 30
0.0
 40
12.8622054
 41
0.0
 71
     5
 72
     1
  1
50
  7
EXCADDIM1
  0
POINT
  5
318
330
310
100
AcDbEntity
  8
DEFPOINTS
 62
     0
100
AcDbPoint
 10
1795.349995
 20
565.830005
 30
0.0
  0
POINT
  5
319
330
310
100
AcDbEntity
  8
DEFPOINTS
 62
     0
100
AcDbPoint
 10
1745.349995
 20
474.000001
 30
0.0
  0
POINT
  5
31A
330
310
100
AcDbEntity
  8
DEFPOINTS
 62
     0
100
AcDbPoint
 10
1745.349995
 20
449.0000000000001
 30
0.0
  0
ENDBLK
  5
312
330
310
100
AcDbEntity
  8
0
100
AcDbBlockEnd
  0
BLOCK
  5
31D
330
31C
100
AcDbEntity
  8
0
100
AcDbBlockBegin
  2
*D26
 70
     1
 10
0.0
 20
0.0
 30
0.0
  3
*D26
  1

  0
LINE
  5
31F
330
31C
100
AcDbEntity
  8
0
  6
CONTINUOUS
 62
     2
100
AcDbLine
 10
728.849995
 20
564.85
 30
0.0
 11
728.849995
 21
441.5000000000001
 31
0.0
  0
LINE
  5
320
330
31C
100
AcDbEntity
  8
0
  6
CONTINUOUS
 62
     2
100
AcDbLine
 10
743.849995
 20
449.0000000000001
 30
0.0
 11
800.349995
 21
449.0000000000001
 31
0.0
  0
INSERT
  5
321
330
31C
100
AcDbEntity
  8
0
 62
     2
100
AcDbBlockReference
  2
EX_NORM
 10
728.849995
 20
449.0000000000001
 30
0.0
 41
15.0
 42
15.0
 43
15.0
 50
180.0
  0
INSERT
  5
322
330
31C
100
AcDbEntity
  8
0
 62
     2
100
AcDbBlockReference
  2
EX_NORM
 10
815.349995
 20
449.0000000000001
 30
0.0
 41
15.0
 42
15.0
 43
15.0
  0
MTEXT
  5
323
330
31C
100
AcDbEntity
  8
0
 62
     2
100
AcDbMText
 10
772.099995
 20
460.2500000000001
 30
0.0
 40
12.8622054
 41
0.0
 71
     5
 72
     1
  1
86.5
  7
EXCADDIM1
  0
POINT
  5
324
330
31C
100
AcDbEntity
  8
DEFPOINTS
 62
     0
100
AcDbPoint
 10
728.849995
 20
587.58000928166
 30
0.0
  0
POINT
  5
325
330
31C
100
AcDbEntity
  8
DEFPOINTS
 62
     0
100
AcDbPoint
 10
815.349995
 20
474.000001
 30
0.0
  0
POINT
  5
326
330
31C
100
AcDbEntity
  8
DEFPOINTS
 62
     0
100
AcDbPoint
 10
815.349995
 20
449.0000000000001
 30
0.0
  0
ENDBLK
  5
31E
330
31C
100
AcDbEntity
  8
0
100
AcDbBlockEnd
  0
BLOCK
  5
329
330
328
100
AcDbEntity
  8
0
100
AcDbBlockBegin
  2
*D27
 70
     1
 10
0.0
 20
0.0
 30
0.0
  3
*D27
  1

  0
LINE
  5
32B
330
328
100
AcDbEntity
  8
0
  6
CONTINUOUS
 62
     2
100
AcDbLine
 10
782.3499950000003
 20
534.930005
 30
0.0
 11
782.3499950000003
 21
485.5
 31
0.0
  0
LINE
  5
32C
330
328
100
AcDbEntity
  8
0
  6
CONTINUOUS
 62
     2
100
AcDbLine
 10
815.349995
 20
502.33000500001
 30
0.0
 11
815.349995
 21
485.5
 31
0.0
  0
LINE
  5
32D
330
328
100
AcDbEntity
  8
0
  6
CONTINUOUS
 62
     2
100
AcDbLine
 10
797.3499950000003
 20
493.0
 30
0.0
 11
800.349995
 21
493.0
 31
0.0
  0
INSERT
  5
32E
330
328
100
AcDbEntity
  8
0
 62
     2
100
AcDbBlockReference
  2
EX_NORM
 10
782.3499950000003
 20
493.0
 30
0.0
 41
15.0
 42
15.0
 43
15.0
 50
180.0
  0
INSERT
  5
32F
330
328
100
AcDbEntity
  8
0
 62
     2
100
AcDbBlockReference
  2
EX_NORM
 10
815.349995
 20
493.0
 30
0.0
 41
15.0
 42
15.0
 43
15.0
  0
MTEXT
  5
330
330
328
100
AcDbEntity
  8
0
 62
     2
100
AcDbMText
 10
798.8499950000001
 20
504.25
 30
0.0
 40
12.8622054
 41
0.0
 71
     5
 72
     1
  1
33
  7
EXCADDIM1
  0
POINT
  5
331
330
328
100
AcDbEntity
  8
DEFPOINTS
 62
     0
100
AcDbPoint
 10
782.3499950000003
 20
542.430005
 30
0.0
  0
POINT
  5
332
330
328
100
AcDbEntity
  8
DEFPOINTS
 62
     0
100
AcDbPoint
 10
815.349995
 20
509.83000500001
 30
0.0
  0
POINT
  5
333
330
328
100
AcDbEntity
  8
DEFPOINTS
 62
     0
100
AcDbPoint
 10
815.349995
 20
493.0
 30
0.0
  0
ENDBLK
  5
32A
330
328
100
AcDbEntity
  8
0
100
AcDbBlockEnd
  0
BLOCK
  5
336
330
335
100
AcDbEntity
  8
0
100
AcDbBlockBegin
  2
*D28
 70
     1
 10
0.0
 20
0.0
 30
0.0
  3
*D28
  1

  0
LINE
  5
338
330
335
100
AcDbEntity
  8
0
  6
CONTINUOUS
 62
     2
100
AcDbLine
 10
768.849995
 20
662.4000127813368
 30
0.0
 11
768.849995
 21
730.4999999999999
 31
0.0
  0
LINE
  5
339
330
335
100
AcDbEntity
  8
0
  6
CONTINUOUS
 62
     2
100
AcDbLine
 10
763.849995
 20
672.6500084996469
 30
0.0
 11
763.849995
 21
730.4999999999999
 31
0.0
  0
LINE
  5
33A
330
335
100
AcDbEntity
  8
0
  6
CONTINUOUS
 62
     2
100
AcDbLine
 10
768.849995
 20
722.9999999999999
 30
0.0
 11
763.849995
 21
722.9999999999999
 31
0.0
  0
LINE
  5
33B
330
335
100
AcDbEntity
  8
0
  6
CONTINUOUS
 62
     2
100
AcDbLine
 10
783.849995
 20
722.9999999999999
 30
0.0
 11
798.849995
 21
722.9999999999999
 31
0.0
  0
LINE
  5
33C
330
335
100
AcDbEntity
  8
0
  6
CONTINUOUS
 62
     2
100
AcDbLine
 10
748.849995
 20
722.9999999999999
 30
0.0
 11
733.849995
 21
722.9999999999999
 31
0.0
  0
INSERT
  5
33D
330
335
100
AcDbEntity
  8
0
 62
     2
100
AcDbBlockReference
  2
EX_NORM
 10
768.849995
 20
722.9999999999999
 30
0.0
 41
15.0
 42
15.0
 43
15.0
 50
180.0
  0
INSERT
  5
33E
330
335
100
AcDbEntity
  8
0
 62
     2
100
AcDbBlockReference
  2
EX_NORM
 10
763.849995
 20
722.9999999999999
 30
0.0
 41
15.0
 42
15.0
 43
15.0
  0
MTEXT
  5
33F
330
335
100
AcDbEntity
  8
0
 62
     2
100
AcDbMText
 10
721.8499957152559
 20
734.2500000000022
 30
0.0
 40
12.8622054
 41
0.0
 71
     5
 72
     1
  1
5īäŖį
  7
EXCADDIM1
  0
POINT
  5
340
330
335
100
AcDbEntity
  8
DEFPOINTS
 62
     0
100
AcDbPoint
 10
768.849995
 20
636.8300135633499
 30
0.0
  0
POINT
  5
341
330
335
100
AcDbEntity
  8
DEFPOINTS
 62
     0
100
AcDbPoint
 10
763.849995
 20
647.08000928166
 30
0.0
  0
POINT
  5
342
330
335
100
AcDbEntity
  8
DEFPOINTS
 62
     0
100
AcDbPoint
 10
763.849995
 20
722.9999999999999
 30
0.0
  0
ENDBLK
  5
337
330
335
100
AcDbEntity
  8
0
100
AcDbBlockEnd
  0
ENDSEC
  0
SECTION
  2
ENTITIES
  0
LINE
  5
D2
330
1F
100
AcDbEntity
  8
0
  6
CONTINUOUS
 62
     6
100
AcDbLine
 10
1779.999995
 20
137.5
 30
0.0
 11
1779.999995
 21
75.000005
 31
0.0
  0
LINE
  5
D3
330
1F
100
AcDbEntity
  8
0
  6
CONTINUOUS
 62
     6
100
AcDbLine
 10
1315.0
 20
137.5
 30
0.0
 11
2014.999995
 21
137.5
 31
0.0
  0
LINE
  5
D4
330
1F
100
AcDbEntity
  8
0
  6
CONTINUOUS
 62
     6
100
AcDbLine
 10
1315.0
 20
175.000005
 30
0.0
 11
1624.999995
 21
175.000005
 31
0.0
  0
TEXT
  5
D5
330
1F
100
AcDbEntity
  8
0
  6
CONTINUOUS
 62
     6
100
AcDbText
 10
1636.41306
 20
169.5078795
 30
0.0
 40
11.692914
  1
DWG.NAME
 41
0.6491981786009524
  7
EXCADSTD
 72
     5
 11
1693.16496
 21
169.5078795
 31
0.0
100
AcDbText
  0
LINE
  5
D6
330
1F
100
AcDbEntity
  8
0
  6
CONTINUOUS
 62
     6
100
AcDbLine
 10
1315.0
 20
212.500005
 30
0.0
 11
2014.999995
 21
212.500005
 31
0.0
  0
LINE
  5
D7
330
1F
100
AcDbEntity
  8
0
  6
CONTINUOUS
 62
     6
100
AcDbLine
 10
1702.5
 20
250.0
 30
0.0
 11
1702.5
 21
75.000005
 31
0.0
  0
LINE
  5
D8
330
1F
100
AcDbEntity
  8
0
  6
CONTINUOUS
 62
     6
100
AcDbLine
 10
1624.999995
 20
250.0
 30
0.0
 11
1624.999995
 21
75.000005
 31
0.0
  0
LINE
  5
D9
330
1F
100
AcDbEntity
  8
0
  6
CONTINUOUS
 62
     7
100
AcDbLine
 10
1315.0
 20
250.0
 30
0.0
 11
1315.0
 21
75.000005
 31
0.0
  0
LINE
  5
DA
330
1F
100
AcDbEntity
  8
0
  6
CONTINUOUS
 62
     6
100
AcDbLine
 10
1547.499995
 20
250.0
 30
0.0
 11
1547.499995
 21
137.5
 31
0.0
  0
LINE
  5
DB
330
1F
100
AcDbEntity
  8
0
  6
CONTINUOUS
 62
     6
100
AcDbLine
 10
1470.0
 20
250.0
 30
0.0
 11
1470.0
 21
137.5
 31
0.0
  0
LINE
  5
DC
330
1F
100
AcDbEntity
  8
0
  6
CONTINUOUS
 62
     6
100
AcDbLine
 10
1392.499995
 20
250.0
 30
0.0
 11
1392.499995
 21
137.5
 31
0.0
  0
TEXT
  5
DD
330
1F
100
AcDbEntity
  8
0
  6
CONTINUOUS
 62
     6
100
AcDbText
 10
1332.567395675869
 20
224.5078795
 30
0.0
 40
11.692914
  1
DATE
 41
0.8897287389140119
  7
EXCADSTD
 72
     5
 11
1368.236612684269
 21
224.5078795
 31
0.0
100
AcDbText
  0
TEXT
  5
DE
330
1F
100
AcDbEntity
  8
0
  6
CONTINUOUS
 62
     6
100
AcDbText
 10
1328.757400675869
 20
187.0078795
 30
0.0
 40
11.692914
  1
DRAWN
 41
0.8041183606066158
  7
EXCADSTD
 72
     5
 11
1374.42662245264
 21
187.0078795
 31
0.0
100
AcDbText
  0
TEXT
  5
DF
330
1F
100
AcDbEntity
  8
0
  6
CONTINUOUS
 62
     6
100
AcDbText
 10
1401.34805
 20
187.0078795
 30
0.0
 40
11.692914
  1
DESIGNED
 41
0.6886764462185778
  7
EXCADSTD
 72
     5
 11
1458.09995
 21
187.0078795
 31
0.0
100
AcDbText
  0
TEXT
  5
E0
330
1F
100
AcDbEntity
  8
0
  6
CONTINUOUS
 62
     6
100
AcDbText
 10
1484.442400675869
 20
224.5078795
 30
0.0
 40
11.692914
  1
SCALE
 41
0.8819362664717721
  7
EXCADSTD
 72
     5
 11
1530.111622452641
 21
224.5078795
 31
0.0
100
AcDbText
  0
TEXT
  5
E1
330
1F
100
AcDbEntity
  8
0
  6
CONTINUOUS
 62
     6
100
AcDbText
 10
1479.803919256544
 20
187.0078795
 30
0.0
 40
11.692914
  1
CHECKED
 41
0.6691582773175685
  7
EXCADSTD
 72
     5
 11
1532.339244811678
 21
187.0078795
 31
0.0
100
AcDbText
  0
TEXT
  5
E2
330
1F
100
AcDbEntity
  8
0
  6
CONTINUOUS
 62
     6
100
AcDbText
 10
1555.673045
 20
187.0078795
 30
0.0
 40
11.692914
  1
APPROVED
 41
0.6450893293693006
  7
EXCADSTD
 72
     5
 11
1612.424945
 21
187.0078795
 31
0.0
100
AcDbText
  0
TEXT
  5
E3
330
1F
100
AcDbEntity
  8
0
  6
CONTINUOUS
 62
     6
100
AcDbText
 10
1632.96805
 20
224.5078795
 30
0.0
 40
11.692914
  1
CUSTOMER
 41
0.6291611977799354
  7
EXCADSTD
 72
     5
 11
1689.71995
 21
224.5078795
 31
0.0
100
AcDbText
  0
LINE
  5
E4
330
1F
100
AcDbEntity
  8
0
  6
CONTINUOUS
 62
     6
100
AcDbLine
 10
1674.3456
 20
106.25
 30
0.0
 11
1674.3456
 21
113.47044
 31
0.0
  0
LINE
  5
E5
330
1F
100
AcDbEntity
  8
0
  6
CONTINUOUS
 62
     6
100
AcDbLine
 10
1674.3456
 20
113.47044
 30
0.0
 11
1693.159205
 21
119.380965
 31
0.0
  0
LINE
  5
E6
330
1F
100
AcDbEntity
  8
0
  6
CONTINUOUS
 62
     6
100
AcDbLine
 10
1674.3456
 20
106.25
 30
0.0
 11
1674.3456
 21
99.02956
 31
0.0
  0
LINE
  5
E7
330
1F
100
AcDbEntity
  8
0
  6
CONTINUOUS
 62
     6
100
AcDbLine
 10
1674.3456
 20
99.02956
 30
0.0
 11
1693.159205
 21
93.119035
 31
0.0
  0
LINE
  5
E8
330
1F
100
AcDbEntity
  8
0
  6
EXLTYPE2
 62
     4
100
AcDbLine
 10
1629.185
 20
106.25
 30
0.0
 11
1698.1032
 21
106.25
 31
0.0
  0
CIRCLE
  5
E9
330
1F
100
AcDbEntity
  8
0
  6
CONTINUOUS
 62
     6
100
AcDbCircle
 10
1646.65017
 20
106.25
 30
0.0
 40
7.220440000000003
  0
CIRCLE
  5
EA
330
1F
100
AcDbEntity
  8
0
  6
CONTINUOUS
 62
     6
100
AcDbCircle
 10
1646.65017
 20
106.25
 30
0.0
 40
7.220440000000003
  0
CIRCLE
  5
EB
330
1F
100
AcDbEntity
  8
0
  6
CONTINUOUS
 62
     6
100
AcDbCircle
 10
1646.65017
 20
106.25
 30
0.0
 40
13.130965
  0
LINE
  5
EC
330
1F
100
AcDbEntity
  8
0
  6
EXLTYPE2
 62
     4
100
AcDbLine
 10
1646.65017
 20
127.6
 30
0.0
 11
1646.65017
 21
82.5
 31
0.0
  0
LINE
  5
ED
330
1F
100
AcDbEntity
  8
0
  6
CONTINUOUS
 62
     6
100
AcDbLine
 10
1693.159205
 20
93.119035
 30
0.0
 11
1693.159205
 21
106.25
 31
0.0
  0
LINE
  5
EE
330
1F
100
AcDbEntity
  8
0
  6
CONTINUOUS
 62
     6
100
AcDbLine
 10
1693.159205
 20
119.380965
 30
0.0
 11
1693.159205
 21
106.25
 31
0.0
  0
TEXT
  5
EF
330
1F
100
AcDbEntity
  8
0
  6
CONTINUOUS
 62
     6
100
AcDbText
 10
1714.707400675869
 20
100.7578745
 30
0.0
 40
11.692914
  1
DWG.N0
 41
0.8693884901038328
  7
EXCADSTD
 72
     5
 11
1770.376627221012
 21
100.7578745
 31
0.0
100
AcDbText
  0
LINE
  5
F0
330
1F
100
AcDbEntity
  8
0
  6
CONTINUOUS
 62
   253
100
AcDbLine
 10
1345.51604
 20
119.813755
 30
0.0
 11
1329.85395
 21
92.68624
 31
0.0
  0
LINE
  5
F1
330
1F
100
AcDbEntity
  8
0
  6
CONTINUOUS
 62
   253
100
AcDbLine
 10
1329.85395
 20
92.68624
 30
0.0
 11
1361.17811
 21
92.686225
 31
0.0
  0
LINE
  5
F2
330
1F
100
AcDbEntity
  8
0
  6
CONTINUOUS
 62
   253
100
AcDbLine
 10
1361.17811
 20
92.686225
 30
0.0
 11
1345.51604
 21
119.813755
 31
0.0
  0
ARC
  5
F3
330
1F
100
AcDbEntity
  8
0
  6
CONTINUOUS
 62
   253
100
AcDbCircle
 10
1350.736725
 20
104.685825
 30
0.0
 40
5.999995
100
AcDbArc
 50
209.527855
 51
330.472145
  0
ARC
  5
F4
330
1F
100
AcDbEntity
  8
0
  6
CONTINUOUS
 62
   253
100
AcDbCircle
 10
1340.295335
 20
98.771655
 30
0.0
 40
5.999995
100
AcDbArc
 50
29.52787999999993
 51
150.47212
  0
TEXT
  5
F5
330
1F
100
AcDbEntity
  8
0
  6
CONTINUOUS
 62
   253
100
AcDbText
 10
1376.94588
 20
96.4459075
 30
0.0
 40
19.48819
  1
NODATEC CORPORATION
 41
0.648884167587957
  7
EXCADSTD
 72
     5
 11
1599.74892
 21
96.4459075
 31
0.0
100
AcDbText
  0
LINE
  5
F6
330
1F
100
AcDbEntity
  8
0
  6
CONTINUOUS
 62
   253
100
AcDbLine
 10
1352.154475
 20
98.85574
 30
0.0
 11
1355.617035
 21
102.318295
 31
0.0
  0
LINE
  5
F7
330
1F
100
AcDbEntity
  8
0
  6
CONTINUOUS
 62
   253
100
AcDbLine
 10
1349.615405
 20
98.791545
 30
0.0
 11
1354.71117
 21
103.887305
 31
0.0
  0
LINE
  5
F8
330
1F
100
AcDbEntity
  8
0
  6
CONTINUOUS
 62
   253
100
AcDbLine
 10
1347.801695
 20
99.452705
 30
0.0
 11
1353.805305
 21
105.456315
 31
0.0
  0
LINE
  5
F9
330
1F
100
AcDbEntity
  8
0
  6
CONTINUOUS
 62
   253
100
AcDbLine
 10
1346.406615
 20
100.5325
 30
0.0
 11
1352.89944
 21
107.02532
 31
0.0
  0
LINE
  5
FA
330
1F
100
AcDbEntity
  8
0
  6
CONTINUOUS
 62
   253
100
AcDbLine
 10
1345.370815
 20
101.971575
 30
0.0
 11
1351.99357
 21
108.59433
 31
0.0
  0
LINE
  5
FB
330
1F
100
AcDbEntity
  8
0
  6
CONTINUOUS
 62
   253
100
AcDbLine
 10
1344.227725
 20
103.303355
 30
0.0
 11
1351.087705
 21
110.16334
 31
0.0
  0
LINE
  5
FC
330
1F
100
AcDbEntity
  8
0
  6
CONTINUOUS
 62
   253
100
AcDbLine
 10
1342.712645
 20
104.26316
 30
0.0
 11
1350.18184
 21
111.732345
 31
0.0
  0
LINE
  5
FD
330
1F
100
AcDbEntity
  8
0
  6
CONTINUOUS
 62
   253
100
AcDbLine
 10
1340.730475
 20
104.75585
 30
0.0
 11
1349.275975
 21
113.301355
 31
0.0
  0
LINE
  5
FE
330
1F
100
AcDbEntity
  8
0
  6
CONTINUOUS
 62
   253
100
AcDbLine
 10
1337.663265
 20
104.163515
 30
0.0
 11
1348.37011
 21
114.870365
 31
0.0
  0
LINE
  5
FF
330
1F
100
AcDbEntity
  8
0
  6
CONTINUOUS
 62
   253
100
AcDbLine
 10
1338.245245
 20
107.22037
 30
0.0
 11
1347.464245
 21
116.439365
 31
0.0
  0
LINE
  5
100
330
1F
100
AcDbEntity
  8
0
  6
CONTINUOUS
 62
   253
100
AcDbLine
 10
1341.625985
 20
113.075985
 30
0.0
 11
1346.558375
 21
118.00838
 31
0.0
  0
LINE
  5
101
330
1F
100
AcDbEntity
  8
0
  6
CONTINUOUS
 62
   253
100
AcDbLine
 10
1345.006735
 20
118.931605
 30
0.0
 11
1345.65251
 21
119.57738
 31
0.0
  0
TEXT
  5
102
330
1F
100
AcDbEntity
  8
0
  6
CONTINUOUS
 62
     6
100
AcDbText
 10
1411.6
 20
149.8933077
 30
0.0
 40
14.8110244
  1
ōĪłõ
 41
1.541603514793166
  7
EXCADSTD
 72
     5
 11
1447.48
 21
149.8933077
 31
0.0
100
AcDbText
  0
TEXT
  5
103
330
1F
100
AcDbEntity
  8
0
  6
CONTINUOUS
 62
     6
100
AcDbText
 10
1565.476108
 20
223.0678675
 30
0.0
 40
11.692914
  1
1/5
 41
1.172055346757989
  7
EXCADSTD
 72
     5
 11
1603.979908
 21
223.0678675
 31
0.0
100
AcDbText
  0
LINE
  5
104
330
1F
100
AcDbEntity
  8
0
  6
CONTINUOUS
 62
   253
100
AcDbLine
 10
2014.999995
 20
1435.000005
 30
0.0
 11
100.0
 21
1435.000005
 31
0.0
  0
LINE
  5
105
330
1F
100
AcDbEntity
  8
0
  6
CONTINUOUS
 62
     7
100
AcDbLine
 10
2014.999995
 20
250.0
 30
0.0
 11
1315.0
 21
250.0
 31
0.0
  0
TEXT
  5
106
330
1F
100
AcDbEntity
  8
0
  6
CONTINUOUS
 62
     6
100
AcDbText
 10
276.13190285
 20
1192.748731028031
 30
0.0
 40
12.21909527868309
  1
ÄµĢté»é─ē║é│éóüB
 41
2.269555499906522
  7
EXCADSTD
 72
     5
 11
462.3319028499999
 21
1192.748731028031
 31
0.0
100
AcDbText
  0
TEXT
  5
107
330
1F
100
AcDbEntity
  8
0
  6
CONTINUOUS
 62
     6
100
AcDbText
 10
276.13190285
 20
1171.373731978031
 30
0.0
 40
12.21909527868309
  1
üiÄ▓ÉcéµéĶē║é­ī³éŁÄµĢté»é═ÉŌæ╬é╔é│é»é─ē║é│éóüBüj
 41
2.268259906642695
  7
EXCADSTD
 72
     5
 11
842.33190285
 21
1171.373731978031
 31
0.0
100
AcDbText
  0
TEXT
  5
108
330
1F
100
AcDbEntity
  8
0
  6
CONTINUOUS
 62
     6
100
AcDbText
 10
283.35
 20
1381.998229128033
 30
0.0
 40
12.21909527868309
  1
éléÅéĢéÄéöü@éöéłéģü@éöéēéÉü@éüéöü@éöéłéģü@éüéÄéćéīéģü@éŚéłéģéÆéģü@éēéöéō
 41
1.49691136135556
  7
EXCADSTD
 72
     5
 11
845.1420068359375
 21
1381.998229128033
 31
0.0
100
AcDbText
  0
TEXT
  5
109
330
1F
100
AcDbEntity
  8
0
  6
CONTINUOUS
 62
     6
100
AcDbText
 10
283.35
 20
1362.998229128033
 30
0.0
 40
12.21909527868309
  1
éģéśéöéģéÄéōéēéÅéÄü@éīéēéÄéģü@éēéÄéöéģéÆéōéģéāéöéōü@éŚéēéöéł
 41
1.496967361132147
  7
EXCADSTD
 72
     5
 11
751.0920056915284
 21
1362.998229128033
 31
0.0
100
AcDbText
  0
TEXT
  5
10A
330
1F
100
AcDbEntity
  8
0
  6
CONTINUOUS
 62
     6
100
AcDbText
 10
283.35
 20
1343.998229128033
 30
0.0
 40
12.21909527868309
  1
éöéłéģü@é¢éģéÆéöéēéāéüéīü@éāéģéÄéöéģéÆü@éīéēéÄéģü@éÅéåü@éöéłéģü@éłéģéüéä
 41
1.49691136135556
  7
EXCADSTD
 72
     5
 11
845.1420068359375
 21
1343.998229128033
 31
0.0
100
AcDbText
  0
TEXT
  5
10B
330
1F
100
AcDbEntity
  8
0
  6
CONTINUOUS
 62
     6
100
AcDbText
 10
283.35
 20
1305.998229128032
 30
0.0
 40
12.21909527868309
  1
éāéģéÄéöéģéÆüDüiécéÅü@éÄéÅéöü@éŹéÅéĢéÄéöü@éöéłéģü@éöéēéÉü@éōéÅü@éöéłéüéö
 41
1.49691136135556
  7
EXCADSTD
 72
     5
 11
845.1420068359375
 21
1305.998229128032
 31
0.0
100
AcDbText
  0
TEXT
  5
10C
330
1F
100
AcDbEntity
  8
0
  6
CONTINUOUS
 62
     6
100
AcDbText
 10
283.35
 20
1286.998229128032
 30
0.0
 40
12.21909527868309
  1
éēéöéōü@éģéśéöéģéÄéōéēéÅéÄü@éīéēéÄéģü@éēéÄéöéģéÆéōéģéāéöéōü@éŚéēéöéł
 41
1.496927821060009
  7
EXCADSTD
 72
     5
 11
813.7920064544678
 21
1286.998229128032
 31
0.0
100
AcDbText
  0
TEXT
  5
10D
330
1F
100
AcDbEntity
  8
0
  6
CONTINUOUS
 62
     6
100
AcDbText
 10
283.35
 20
1267.998229128031
 30
0.0
 40
12.21909527868309
  1
éöéłéģü@é¢éģéÆéöéēéāéüéīü@éāéģéÄéöéģéÆü@éīéēéÄéģü@éééģéīéÅéŚ
 41
1.496967361132147
  7
EXCADSTD
 72
     5
 11
751.0920056915284
 21
1267.998229128031
 31
0.0
100
AcDbText
  0
TEXT
  5
10E
330
1F
100
AcDbEntity
  8
0
  6
CONTINUOUS
 62
     6
100
AcDbText
 10
283.35
 20
1248.998229128031
 30
0.0
 40
12.21909527868309
  1
éöéłéģü@éōéłéüéåéöü@éāéģéÄéöéģéÆüDüj
 41
1.497192406963291
  7
EXCADSTD
 72
     5
 11
562.99200340271
 21
1248.998229128031
 31
0.0
100
AcDbText
  0
TEXT
  5
10F
330
1F
100
AcDbEntity
  8
0
  6
CONTINUOUS
 62
     6
100
AcDbText
 10
276.13190285
 20
1214.123729128032
 30
0.0
 40
12.21909527868309
  1
ā`ābāvÉµÆ[é═Ä▓ÉcéµéĶéŌéŌÅŃüi15ü`25ćoüjé­ī³éŁŚlé╔
 41
2.057258985094538
  7
EXCADSTD
 72
     5
 11
842.33190285
 21
1214.123729128032
 31
0.0
100
AcDbText
  0
TEXT
  5
110
330
1F
100
AcDbEntity
  8
0
  6
CONTINUOUS
 62
     6
100
AcDbText
 10
283.35
 20
1324.998229128032
 30
0.0
 40
12.21909527868309
  1
éÉéĢéīéīéģéÖü@éōéłéåéöüCéPéTü`éQéTéŹéŹü@éüéééÅé¢éģü@éöéłéģü@éōéłéüéåéö
 41
1.496919354944084
  7
EXCADSTD
 72
     5
 11
829.4670066452027
 21
1324.998229128032
 31
0.0
100
AcDbText
  0
TEXT
  5
111
330
1F
100
AcDbEntity
  8
0
  6
CONTINUOUS
 62
     6
100
AcDbText
 10
1816.873282999999
 20
1412.70865695
 30
0.0
 40
12.8622054
  1
Remarks
 41
1.319912111014662
  7
EXCADSTD
 72
     5
 11
1923.585732999999
 21
1412.70865695
 31
0.0
100
AcDbText
  0
TEXT
  5
112
330
1F
100
AcDbEntity
  8
0
  6
CONTINUOUS
 62
     6
100
AcDbText
 10
1814.570007999999
 20
1390.20865895
 30
0.0
 40
12.8622054
  1
ö§ü@ü@Źl
 41
2.271569330120309
  7
EXCADSTD
 72
     5
 11
1910.570007999999
 21
1390.20865895
 31
0.0
100
AcDbText
  0
TEXT
  5
113
330
1F
100
AcDbEntity
  8
0
  6
CONTINUOUS
 62
     6
100
AcDbText
 10
1611.60174
 20
1412.90866495
 30
0.0
 40
12.8622054
  1
Material
 41
1.319918596741125
  7
EXCADSTD
 72
     5
 11
1706.18824
 21
1412.90866495
 31
0.0
100
AcDbText
  0
TEXT
  5
114
330
1F
100
AcDbEntity
  8
0
  6
CONTINUOUS
 62
     6
100
AcDbText
 10
1560.51999
 20
1390.40866695
 30
0.0
 40
12.8622054
  1
ÉöŚ╩
 41
1.638627512227691
  7
EXCADSTD
 72
     5
 11
1593.639989999999
 21
1390.40866695
 31
0.0
100
AcDbText
  0
TEXT
  5
115
330
1F
100
AcDbEntity
  8
0
  6
CONTINUOUS
 62
     6
100
AcDbText
 10
1558.49174
 20
1412.60866495
 30
0.0
 40
12.8622054
  1
Q'ty
 41
1.255102638232983
  7
EXCADSTD
 72
     5
 11
1603.07824
 21
1412.60866495
 31
0.0
100
AcDbText
  0
TEXT
  5
116
330
1F
100
AcDbEntity
  8
0
  6
CONTINUOUS
 62
     6
100
AcDbText
 10
1574.491312
 20
1360.70867095
 30
0.0
 40
12.8622054
  1
N
 41
0.9256048733291015
  7
EXCADSTD
 72
     5
 11
1584.695872
 21
1360.70867095
 31
0.0
100
AcDbText
  0
TEXT
  5
117
330
1F
100
AcDbEntity
  8
0
  6
CONTINUOUS
 62
     6
100
AcDbText
 10
1427.630029999999
 20
1402.70866695
 30
0.0
 40
12.8622054
  1
¢╝    Å╠
 41
1.339643451096593
  7
EXCADSTD
 72
     5
 11
1523.630029999999
 21
1402.70866695
 31
0.0
100
AcDbText
  0
LINE
  5
118
330
1F
100
AcDbEntity
  8
0
  6
CONTINUOUS
 62
     6
100
AcDbLine
 10
921.9999929999992
 20
1352.50001
 30
0.0
 11
2014.999995
 21
1352.50001
 31
0.0
  0
LINE
  5
119
330
1F
100
AcDbEntity
  8
0
  6
CONTINUOUS
 62
     6
100
AcDbLine
 10
921.9999929999992
 20
1382.500008
 30
0.0
 11
2014.999995
 21
1382.500008
 31
0.0
  0
TEXT
  5
11A
330
1F
100
AcDbEntity
  8
0
  6
CONTINUOUS
 62
     6
100
AcDbText
 10
946.261323
 20
1360.70867095
 30
0.0
 40
12.8622054
  1
1
 41
1.514626156356728
  7
EXCADSTD
 72
     5
 11
956.465883
 21
1360.70867095
 31
0.0
100
AcDbText
  0
TEXT
  5
11B
330
1F
100
AcDbEntity
  8
0
  6
CONTINUOUS
 62
     6
100
AcDbText
 10
946.261323
 20
1330.70867295
 30
0.0
 40
12.8622054
  1
2
 41
0.9800522188190596
  7
EXCADSTD
 72
     5
 11
956.465883
 21
1330.70867295
 31
0.0
100
AcDbText
  0
TEXT
  5
11C
330
1F
100
AcDbEntity
  8
0
  6
CONTINUOUS
 62
     6
100
AcDbText
 10
946.261323
 20
1300.70867495
 30
0.0
 40
12.8622054
  1
3
 41
0.9800522188190596
  7
EXCADSTD
 72
     5
 11
956.465883
 21
1300.70867495
 31
0.0
100
AcDbText
  0
TEXT
  5
11D
330
1F
100
AcDbEntity
  8
0
  6
CONTINUOUS
 62
     6
100
AcDbText
 10
946.261323
 20
1270.70866895
 30
0.0
 40
12.8622054
  1
4
 41
0.9256048733291118
  7
EXCADSTD
 72
     5
 11
956.465883
 21
1270.70866895
 31
0.0
100
AcDbText
  0
TEXT
  5
11E
330
1F
100
AcDbEntity
  8
0
  6
CONTINUOUS
 62
     6
100
AcDbText
 10
946.261323
 20
1240.70866995
 30
0.0
 40
12.8622054
  1
5
 41
0.9800522188190596
  7
EXCADSTD
 72
     5
 11
956.465883
 21
1240.70866995
 31
0.0
100
AcDbText
  0
TEXT
  5
11F
330
1F
100
AcDbEntity
  8
0
  6
CONTINUOUS
 62
     6
100
AcDbText
 10
946.261323
 20
1210.70867195
 30
0.0
 40
12.8622054
  1
6
 41
0.9800522188190596
  7
EXCADSTD
 72
     5
 11
956.465883
 21
1210.70867195
 31
0.0
100
AcDbText
  0
TEXT
  5
120
330
1F
100
AcDbEntity
  8
0
  6
CONTINUOUS
 62
     6
100
AcDbText
 10
946.261323
 20
1150.70866795
 30
0.0
 40
12.8622054
  1
8
 41
0.9800522188190596
  7
EXCADSTD
 72
     5
 11
956.465883
 21
1150.70866795
 31
0.0
100
AcDbText
  0
TEXT
  5
121
330
1F
100
AcDbEntity
  8
0
  6
CONTINUOUS
 62
     6
100
AcDbText
 10
946.261323
 20
1120.70866995
 30
0.0
 40
12.8622054
  1
9
 41
1.041305482495251
  7
EXCADSTD
 72
     5
 11
956.465883
 21
1120.70866995
 31
0.0
100
AcDbText
  0
TEXT
  5
122
330
1F
100
AcDbEntity
  8
0
  6
CONTINUOUS
 62
     6
100
AcDbText
 10
946.261323
 20
1180.70867395
 30
0.0
 40
12.8622054
  1
7
 41
0.9800522188190596
  7
EXCADSTD
 72
     5
 11
956.465883
 21
1180.70867395
 31
0.0
100
AcDbText
  0
TEXT
  5
123
330
1F
100
AcDbEntity
  8
0
  6
CONTINUOUS
 62
     6
100
AcDbText
 10
928.0299999999995
 20
1388.80866695
 30
0.0
 40
12.8622054
  1
Ģi  öį
 41
1.11284181482594
  7
EXCADSTD
 72
     5
 11
979.1499999999995
 21
1388.80866695
 31
0.0
100
AcDbText
  0
TEXT
  5
124
330
1F
100
AcDbEntity
  8
0
  6
CONTINUOUS
 62
     6
100
AcDbText
 10
1008.591312
 20
1402.70866695
 30
0.0
 40
12.8622054
  1
Name of parts
 41
1.545280444439758
  7
EXCADSTD
 72
     5
 11
1234.795872
 21
1402.70866695
 31
0.0
100
AcDbText
  0
TEXT
  5
125
330
1F
100
AcDbEntity
  8
0
  6
CONTINUOUS
 62
     6
100
AcDbText
 10
925.0730419999991
 20
1411.6478815
 30
0.0
 40
11.692914
  1
Parts No
 41
0.7228660570237554
  7
EXCADSTD
 72
     5
 11
981.824941999999
 21
1411.6478815
 31
0.0
100
AcDbText
  0
TEXT
  5
126
330
1F
100
AcDbEntity
  8
0
  6
CONTINUOUS
 62
     6
100
AcDbText
 10
1629.12999
 20
1390.70866695
 30
0.0
 40
12.8622054
  1
Ź▐  Ä┐
 41
1.112841814825937
  7
EXCADSTD
 72
     5
 11
1680.24999
 21
1390.70866695
 31
0.0
100
AcDbText
  0
TEXT
  5
127
330
1F
100
AcDbEntity
  8
0
  6
CONTINUOUS
 62
     2
100
AcDbText
 10
1145.349998076279
 20
882.9586649500003
 30
0.0
 40
12.8622054
  1
üiéPéOéOü~émüjü{üiémü|éPüjüüé`
 41
1.633424249487355
  7
EXCADSTD
 72
     5
 11
1412.469998076279
 21
882.9586649500003
 31
0.0
100
AcDbText
  0
TEXT
  5
128
330
1F
100
AcDbEntity
  8
0
  6
CONTINUOUS
 62
     6
100
AcDbText
 10
938.261323
 20
1091.20867195
 30
0.0
 40
12.8622054
  1
10
 41
1.244576106171771
  7
EXCADSTD
 72
     5
 11
966.465883
 21
1091.20867195
 31
0.0
100
AcDbText
  0
TEXT
  5
129
330
1F
100
AcDbEntity
  8
0
  6
CONTINUOUS
 62
     6
100
AcDbText
 10
1610.281311
 20
1360.70867095
 30
0.0
 40
12.8622054
  1
Ni
 41
1.705530219568716
  7
EXCADSTD
 72
     5
 11
1638.485870999999
 21
1360.70867095
 31
0.0
100
AcDbText
  0
TEXT
  5
12A
330
1F
100
AcDbEntity
  8
0
  6
CONTINUOUS
 62
     6
100
AcDbText
 10
1426.698474399956
 20
1359.908657150032
 30
0.0
 40
12.8622054
  1
Æ┤ŹdŹćŗÓā`ābāv
 41
1.634283324761555
  7
EXCADSTD
 72
     5
 11
1549.818474399956
 21
1359.908657150032
 31
0.0
100
AcDbText
  0
TEXT
  5
12B
330
1F
100
AcDbEntity
  8
0
  6
CONTINUOUS
 62
     6
100
AcDbText
 10
989.0351844000459
 20
1360.208659550032
 30
0.0
 40
12.8622054
  1
ébéģéŹéģéÄéöéģéä ébéüéÆéééēéäéģ éöéēéÉ
 41
1.525283711974793
  7
EXCADSTD
 72
     5
 11
1328.155184400046
 21
1360.208659550032
 31
0.0
100
AcDbText
  0
LINE
  5
12C
330
1F
100
AcDbEntity
  8
0
  6
CONTINUOUS
 62
   253
100
AcDbLine
 10
2014.999995
 20
75.000005
 30
0.0
 11
2014.999995
 21
1435.000005
 31
0.0
  0
TEXT
  5
12D
330
1F
100
AcDbEntity
  8
0
  6
CONTINUOUS
 62
     6
100
AcDbText
 10
935.7100029999999
 20
1061.20867295
 30
0.0
 40
12.8622054
  1
éPéP
 41
1.638627512227696
  7
EXCADSTD
 72
     5
 11
968.8300029999999
 21
1061.20867295
 31
0.0
100
AcDbText
  0
LINE
  5
12E
330
1F
100
AcDbEntity
  8
0
  6
CONTINUOUS
 62
     6
100
AcDbLine
 10
921.9999929999994
 20
1322.500011
 30
0.0
 11
2014.999995
 21
1322.500011
 31
0.0
  0
LINE
  5
12F
330
1F
100
AcDbEntity
  8
0
  6
CONTINUOUS
 62
     6
100
AcDbLine
 10
921.9999929999994
 20
1292.500013
 30
0.0
 11
2014.999995
 21
1292.500013
 31
0.0
  0
LINE
  5
130
330
1F
100
AcDbEntity
  8
0
  6
CONTINUOUS
 62
     6
100
AcDbLine
 10
921.9999929999994
 20
1262.500007
 30
0.0
 11
2014.999995
 21
1262.500007
 31
0.0
  0
LINE
  5
131
330
1F
100
AcDbEntity
  8
0
  6
CONTINUOUS
 62
     6
100
AcDbLine
 10
921.9999929999994
 20
1202.500011
 30
0.0
 11
2014.999995
 21
1202.500011
 31
0.0
  0
LINE
  5
132
330
1F
100
AcDbEntity
  8
0
  6
CONTINUOUS
 62
     6
100
AcDbLine
 10
921.9999929999994
 20
1142.500006
 30
0.0
 11
2014.999995
 21
1142.500006
 31
0.0
  0
TEXT
  5
133
330
1F
100
AcDbEntity
  8
0
  6
CONTINUOUS
 62
     6
100
AcDbText
 10
989.0422212800554
 20
1329.668617310038
 30
0.0
 40
12.8622054
  1
é`éÆéŹü@éP
 41
1.634942442859865
  7
EXCADSTD
 72
     5
 11
1076.162221280055
 21
1329.668617310038
 31
0.0
100
AcDbText
  0
TEXT
  5
134
330
1F
100
AcDbEntity
  8
0
  6
CONTINUOUS
 62
     6
100
AcDbText
 10
989.0422212800554
 20
1299.668618310038
 30
0.0
 40
12.8622054
  1
é`éÆéŹü@éQ
 41
1.634942442859865
  7
EXCADSTD
 72
     5
 11
1076.162221280055
 21
1299.668618310038
 31
0.0
100
AcDbText
  0
TEXT
  5
135
330
1F
100
AcDbEntity
  8
0
  6
CONTINUOUS
 62
     6
100
AcDbText
 10
989.0422212800554
 20
1269.668620310038
 30
0.0
 40
12.8622054
  1
é`éÆéŹü@éR
 41
1.634942442859865
  7
EXCADSTD
 72
     5
 11
1076.162221280055
 21
1269.668620310038
 31
0.0
100
AcDbText
  0
TEXT
  5
136
330
1F
100
AcDbEntity
  8
0
  6
CONTINUOUS
 62
     6
100
AcDbText
 10
1431.030257280068
 20
1329.668617310037
 30
0.0
 40
12.8622054
  1
āAü[āĆü@éP
 41
1.634942442859865
  7
EXCADSTD
 72
     5
 11
1518.150257280068
 21
1329.668617310037
 31
0.0
100
AcDbText
  0
TEXT
  5
137
330
1F
100
AcDbEntity
  8
0
  6
CONTINUOUS
 62
     6
100
AcDbText
 10
1431.030257280068
 20
1299.668618310037
 30
0.0
 40
12.8622054
  1
āAü[āĆü@éQ
 41
1.634942442859865
  7
EXCADSTD
 72
     5
 11
1518.150257280068
 21
1299.668618310037
 31
0.0
100
AcDbText
  0
TEXT
  5
138
330
1F
100
AcDbEntity
  8
0
  6
CONTINUOUS
 62
     6
100
AcDbText
 10
1431.030257280068
 20
1269.668620310037
 30
0.0
 40
12.8622054
  1
āAü[āĆü@éR
 41
1.634942442859865
  7
EXCADSTD
 72
     5
 11
1518.150257280068
 21
1269.668620310037
 31
0.0
100
AcDbText
  0
TEXT
  5
139
330
1F
100
AcDbEntity
  8
0
  6
CONTINUOUS
 62
     6
100
AcDbText
 10
1573.16003888
 20
1330.52859571
 30
0.0
 40
12.8622054
  1
ü|
 41
1.645751979672152
  7
EXCADSTD
 72
     5
 11
1588.28003888
 21
1330.52859571
 31
0.0
100
AcDbText
  0
TEXT
  5
13A
330
1F
100
AcDbEntity
  8
0
  6
CONTINUOUS
 62
     6
100
AcDbText
 10
1573.16003888
 20
1300.52859671
 30
0.0
 40
12.8622054
  1
ü|
 41
1.645751979672152
  7
EXCADSTD
 72
     5
 11
1588.28003888
 21
1300.52859671
 31
0.0
100
AcDbText
  0
TEXT
  5
13B
330
1F
100
AcDbEntity
  8
0
  6
CONTINUOUS
 62
     6
100
AcDbText
 10
1573.16003888
 20
1270.52859871
 30
0.0
 40
12.8622054
  1
ü|
 41
1.645751979672152
  7
EXCADSTD
 72
     5
 11
1588.28003888
 21
1270.52859871
 31
0.0
100
AcDbText
  0
TEXT
  5
13C
330
1F
100
AcDbEntity
  8
0
  6
CONTINUOUS
 62
     6
100
AcDbText
 10
1610.281311
 20
1330.70867795
 30
0.0
 40
12.8622054
  1
SS400
 41
1.383655675810823
  7
EXCADSTD
 72
     5
 11
1692.485870999999
 21
1330.70867795
 31
0.0
100
AcDbText
  0
TEXT
  5
13D
330
1F
100
AcDbEntity
  8
0
  6
CONTINUOUS
 62
     6
100
AcDbText
 10
1610.281311
 20
1300.70867895
 30
0.0
 40
12.8622054
  1
SS400
 41
1.383655675810823
  7
EXCADSTD
 72
     5
 11
1692.485870999999
 21
1300.70867895
 31
0.0
100
AcDbText
  0
TEXT
  5
13E
330
1F
100
AcDbEntity
  8
0
  6
CONTINUOUS
 62
     6
100
AcDbText
 10
1610.281311
 20
1270.70868095
 30
0.0
 40
12.8622054
  1
SS400
 41
1.383655675810823
  7
EXCADSTD
 72
     5
 11
1692.485870999999
 21
1270.70868095
 31
0.0
100
AcDbText
  0
TEXT
  5
13F
330
1F
100
AcDbEntity
  8
0
  6
CONTINUOUS
 62
     6
100
AcDbText
 10
1574.491312
 20
1240.708675949999
 30
0.0
 40
12.8622054
  1
N
 41
0.9256048733291015
  7
EXCADSTD
 72
     5
 11
1584.695872
 21
1240.708675949999
 31
0.0
100
AcDbText
  0
LINE
  5
140
330
1F
100
AcDbEntity
  8
0
  6
CONTINUOUS
 62
     6
100
AcDbLine
 10
921.9999929999994
 20
1232.500009
 30
0.0
 11
2014.999995
 21
1232.500009
 31
0.0
  0
TEXT
  5
141
330
1F
100
AcDbEntity
  8
0
  6
CONTINUOUS
 62
     6
100
AcDbText
 10
991.5913130000001
 20
1240.70867595
 30
0.0
 40
12.8622054
  1
Rubber cushion
 41
1.627389609916463
  7
EXCADSTD
 72
     5
 11
1235.795873
 21
1240.70867595
 31
0.0
100
AcDbText
  0
TEXT
  5
142
330
1F
100
AcDbEntity
  8
0
  6
CONTINUOUS
 62
     6
100
AcDbText
 10
1428.000007
 20
1239.67865495
 30
0.0
 40
12.8622054
  1
āSāĆāNābāVāćāō
 41
1.634283324761558
  7
EXCADSTD
 72
     5
 11
1551.120007
 21
1239.67865495
 31
0.0
100
AcDbText
  0
TEXT
  5
143
330
1F
100
AcDbEntity
  8
0
  6
CONTINUOUS
 62
     6
100
AcDbText
 10
1610.281311
 20
1210.70867695
 30
0.0
 40
12.8622054
  1
SS400
 41
1.383655675810823
  7
EXCADSTD
 72
     5
 11
1692.485870999999
 21
1210.70867695
 31
0.0
100
AcDbText
  0
TEXT
  5
144
330
1F
100
AcDbEntity
  8
0
  6
CONTINUOUS
 62
     6
100
AcDbText
 10
1571.939992
 20
1210.70866995
 30
0.0
 40
12.8622054
  1
éP
 41
1.645751979672152
  7
EXCADSTD
 72
     5
 11
1587.059992
 21
1210.70866995
 31
0.0
100
AcDbText
  0
TEXT
  5
145
330
1F
100
AcDbEntity
  8
0
  6
CONTINUOUS
 62
     6
100
AcDbText
 10
993.0513170000002
 20
1209.90867575
 30
0.0
 40
12.8622054
  1
Shaft
 41
1.677682506920623
  7
EXCADSTD
 72
     5
 11
1075.255877
 21
1209.90867575
 31
0.0
100
AcDbText
  0
TEXT
  5
146
330
1F
100
AcDbEntity
  8
0
  6
CONTINUOUS
 62
     6
100
AcDbText
 10
1427.9852018
 20
1208.8417466
 30
0.0
 40
12.4724416
  1
āVāāātāg
 41
1.686640227614327
  7
EXCADSTD
 72
     5
 11
1497.1052018
 21
1208.8417466
 31
0.0
100
AcDbText
  0
TEXT
  5
147
330
1F
100
AcDbEntity
  8
0
  6
CONTINUOUS
 62
     6
100
AcDbText
 10
1427.630036999999
 20
1178.67866395
 30
0.0
 40
12.8622054
  1
Ä▓ü@ü@Ä¾
 41
1.63552991768662
  7
EXCADSTD
 72
     5
 11
1496.750036999999
 21
1178.67866395
 31
0.0
100
AcDbText
  0
LINE
  5
148
330
1F
100
AcDbEntity
  8
0
  6
CONTINUOUS
 62
     6
100
AcDbLine
 10
921.9999929999994
 20
1172.500012
 30
0.0
 11
2014.999995
 21
1172.500012
 31
0.0
  0
TEXT
  5
149
330
1F
100
AcDbEntity
  8
0
  6
CONTINUOUS
 62
     6
100
AcDbText
 10
991.5913130000001
 20
1180.70867195
 30
0.0
 40
12.8622054
  1
Bearing
 41
1.707888999739052
  7
EXCADSTD
 72
     5
 11
1109.795873
 21
1180.70867195
 31
0.0
100
AcDbText
  0
TEXT
  5
14A
330
1F
100
AcDbEntity
  8
0
  6
CONTINUOUS
 62
     6
100
AcDbText
 10
1610.281311
 20
1180.70867995
 30
0.0
 40
12.8622054
  1
SS400
 41
1.383655675810823
  7
EXCADSTD
 72
     5
 11
1692.485870999999
 21
1180.70867995
 31
0.0
100
AcDbText
  0
TEXT
  5
14B
330
1F
100
AcDbEntity
  8
0
  6
CONTINUOUS
 62
     6
100
AcDbText
 10
1571.939992
 20
1180.70866495
 30
0.0
 40
12.8622054
  1
éQ
 41
1.645751979672152
  7
EXCADSTD
 72
     5
 11
1587.059992
 21
1180.70866495
 31
0.0
100
AcDbText
  0
LINE
  5
14C
330
1F
100
AcDbEntity
  8
0
  6
CONTINUOUS
 62
   253
100
AcDbLine
 10
100.0
 20
1435.000005
 30
0.0
 11
100.0
 21
75.000005
 31
0.0
  0
LINE
  5
14D
330
1F
100
AcDbEntity
  8
0
  6
CONTINUOUS
 62
   253
100
AcDbLine
 10
100.0
 20
75.000005
 30
0.0
 11
2014.999995
 21
75.000005
 31
0.0
  0
TEXT
  5
14E
330
1F
100
AcDbEntity
  8
0
  6
CONTINUOUS
 62
     6
100
AcDbText
 10
1610.281311
 20
1240.708675949999
 30
0.0
 40
12.8622054
  1
NR/SUS
 41
1.319379264210333
  7
EXCADSTD
 72
     5
 11
1710.485870999999
 21
1240.708675949999
 31
0.0
100
AcDbText
  0
TEXT
  5
14F
330
1F
100
AcDbEntity
  8
0
  6
CONTINUOUS
 62
     6
100
AcDbText
 10
1718.0
 20
1239.70866195
 30
0.0
 40
12.8622054
  1
ŗ╔Æßō¬éléWü~éPéOü@érév
 41
1.633695188612294
  7
EXCADSTD
 72
     5
 11
1913.12
 21
1239.70866195
 31
0.0
100
AcDbText
  0
TEXT
  5
150
330
1F
100
AcDbEntity
  8
0
  6
CONTINUOUS
 62
     6
100
AcDbText
 10
1427.630036999999
 20
1148.67865995
 30
0.0
 40
12.8622054
  1
ē┴ł│āīāoü[
 41
1.634942442859865
  7
EXCADSTD
 72
     5
 11
1514.750036999999
 21
1148.67865995
 31
0.0
100
AcDbText
  0
TEXT
  5
151
330
1F
100
AcDbEntity
  8
0
  6
CONTINUOUS
 62
     6
100
AcDbText
 10
991.5913130000002
 20
1150.70866795
 30
0.0
 40
12.8622054
  1
Pressure lever
 41
1.741093687465212
  7
EXCADSTD
 72
     5
 11
1235.795873
 21
1150.70866795
 31
0.0
100
AcDbText
  0
TEXT
  5
152
330
1F
100
AcDbEntity
  8
0
  6
CONTINUOUS
 62
     6
100
AcDbText
 10
1610.281311
 20
1150.708680949999
 30
0.0
 40
12.8622054
  1
SS400
 41
1.383655675810823
  7
EXCADSTD
 72
     5
 11
1692.485870999999
 21
1150.708680949999
 31
0.0
100
AcDbText
  0
TEXT
  5
153
330
1F
100
AcDbEntity
  8
0
  6
CONTINUOUS
 62
     6
100
AcDbText
 10
1716.360004
 20
1060.708670949999
 30
0.0
 40
12.8622054
  1
éléPéQü~éWéOü@ém
 41
1.634079979816332
  7
EXCADSTD
 72
     5
 11
1857.480004
 21
1060.708670949999
 31
0.0
100
AcDbText
  0
TEXT
  5
154
330
1F
100
AcDbEntity
  8
0
  6
CONTINUOUS
 62
     6
100
AcDbText
 10
1427.630036999999
 20
1058.67866295
 30
0.0
 40
12.8622054
  1
ł│Ś═Æ▓É«ā{āŗāg
 41
1.634283324761555
  7
EXCADSTD
 72
     5
 11
1550.750036999999
 21
1058.67866295
 31
0.0
100
AcDbText
  0
TEXT
  5
155
330
1F
100
AcDbEntity
  8
0
  6
CONTINUOUS
 62
     6
100
AcDbText
 10
991.5913130000001
 20
1060.70867095
 30
0.0
 40
12.8622054
  1
Pressure adjustment bolt
 41
1.69338566384804
  7
EXCADSTD
 72
     5
 11
1415.795873
 21
1060.70867095
 31
0.0
100
AcDbText
  0
TEXT
  5
156
330
1F
100
AcDbEntity
  8
0
  6
CONTINUOUS
 62
     6
100
AcDbText
 10
1610.281311
 20
1060.708670949999
 30
0.0
 40
12.8622054
  1
SUS304
 41
1.363358573017345
  7
EXCADSTD
 72
     5
 11
1710.485870999999
 21
1060.708670949999
 31
0.0
100
AcDbText
  0
TEXT
  5
157
330
1F
100
AcDbEntity
  8
0
  6
CONTINUOUS
 62
     6
100
AcDbText
 10
991.5913130000001
 20
1090.70866995
 30
0.0
 40
12.8622054
  1
Bracket
 41
1.663719456642352
  7
EXCADSTD
 72
     5
 11
1109.795873
 21
1090.70866995
 31
0.0
100
AcDbText
  0
TEXT
  5
158
330
1F
100
AcDbEntity
  8
0
  6
CONTINUOUS
 62
     6
100
AcDbText
 10
1427.630036999999
 20
1088.678661949999
 30
0.0
 40
12.8622054
  1
āuāēāPābāg
 41
1.634942442859865
  7
EXCADSTD
 72
     5
 11
1514.750036999999
 21
1088.678661949999
 31
0.0
100
AcDbText
  0
LINE
  5
159
330
1F
100
AcDbEntity
  8
0
  6
CONTINUOUS
 62
     6
100
AcDbLine
 10
921.999993
 20
1082.500009
 30
0.0
 11
2014.999995
 21
1082.500009
 31
0.0
  0
TEXT
  5
15A
330
1F
100
AcDbEntity
  8
0
  6
CONTINUOUS
 62
     6
100
AcDbText
 10
1571.939992
 20
1090.708668949999
 30
0.0
 40
12.8622054
  1
éQ
 41
1.645751979672152
  7
EXCADSTD
 72
     5
 11
1587.059992
 21
1090.708668949999
 31
0.0
100
AcDbText
  0
TEXT
  5
15B
330
1F
100
AcDbEntity
  8
0
  6
CONTINUOUS
 62
     6
100
AcDbText
 10
1610.281311
 20
1090.708675949999
 30
0.0
 40
12.8622054
  1
SS400
 41
1.383655675810823
  7
EXCADSTD
 72
     5
 11
1692.485870999999
 21
1090.708675949999
 31
0.0
100
AcDbText
  0
TEXT
  5
15C
330
1F
100
AcDbEntity
  8
0
  6
CONTINUOUS
 62
     6
100
AcDbText
 10
1610.281311
 20
1120.708674949999
 30
0.0
 40
12.8622054
  1
SUS304
 41
1.363358573017345
  7
EXCADSTD
 72
     5
 11
1710.485870999999
 21
1120.708674949999
 31
0.0
100
AcDbText
  0
TEXT
  5
15D
330
1F
100
AcDbEntity
  8
0
  6
CONTINUOUS
 62
     6
100
AcDbText
 10
991.5913130000001
 20
1120.708674949999
 30
0.0
 40
12.8622054
  1
Set bolt
 41
1.751022717944444
  7
EXCADSTD
 72
     5
 11
1127.795873
 21
1120.708674949999
 31
0.0
100
AcDbText
  0
LINE
  5
15E
330
1F
100
AcDbEntity
  8
0
  6
CONTINUOUS
 62
     6
100
AcDbLine
 10
921.9999929999994
 20
1112.500008
 30
0.0
 11
2014.999995
 21
1112.500008
 31
0.0
  0
TEXT
  5
15F
330
1F
100
AcDbEntity
  8
0
  6
CONTINUOUS
 62
     6
100
AcDbText
 10
1427.630036999999
 20
1118.67866695
 30
0.0
 40
12.8622054
  1
āZābāgā{āŗāg
 41
1.634556387973712
  7
EXCADSTD
 72
     5
 11
1532.750036999999
 21
1118.67866695
 31
0.0
100
AcDbText
  0
TEXT
  5
160
330
1F
100
AcDbEntity
  8
0
  6
CONTINUOUS
 62
     6
100
AcDbText
 10
1717.360004
 20
1360.20867295
 30
0.0
 40
12.8622054
  1
éléUü~éPéQü@érév,év
 41
1.62418887258432
  7
EXCADSTD
 72
     5
 11
1885.480004
 21
1360.20867295
 31
0.0
100
AcDbText
  0
TEXT
  5
161
330
1F
100
AcDbEntity
  8
0
  6
CONTINUOUS
 62
     6
100
AcDbText
 10
1715.399966399953
 20
1180.208767549999
 30
0.0
 40
12.8622054
  1
éléPéQü~éQéO érév,év Ä▓Ä¾āJāoü[
 41
1.497735842914748
  7
EXCADSTD
 72
     5
 11
1991.519966399952
 21
1180.208767549999
 31
0.0
100
AcDbText
  0
TEXT
  5
162
330
1F
100
AcDbEntity
  8
0
  6
CONTINUOUS
 62
     6
100
AcDbText
 10
1787.729998
 20
169.1078825
 30
0.0
 40
11.692914
  1
āxāŗāgāNāŖü[āi
 41
1.961713406417933
  7
EXCADSTD
 72
     5
 11
1922.081996901367
 21
169.1078825
 31
0.0
100
AcDbText
  0
TEXT
  5
163
330
1F
100
AcDbEntity
  8
0
  6
CONTINUOUS
 62
     6
100
AcDbText
 10
1764.016098
 20
191.1078805
 30
0.0
 40
11.692914
  1
BELT CLEANER
 41
1.366692097273163
  7
EXCADSTD
 72
     5
 11
1937.519898
 21
191.1078805
 31
0.0
100
AcDbText
  0
TEXT
  5
164
330
1F
100
AcDbEntity
  8
0
  6
CONTINUOUS
 62
     6
100
AcDbText
 10
1705.129998
 20
145.08696395
 30
0.0
 40
12.8622054
  1
éméuébü|égéRéaī^üiéRéOéOü`éPéOéOéOüj
 41
1.587931340718643
  7
EXCADSTD
 72
     5
 11
2017.329998
 21
145.08696395
 31
0.0
100
AcDbText
  0
TEXT
  5
165
330
1F
100
AcDbEntity
  8
0
  6
CONTINUOUS
 62
     6
100
AcDbText
 10
1820.969992999999
 20
97.64445340000002
 30
0.0
 40
14.0314968
  1
éméuébü|éOéOégéRéa
 41
1.497762452299728
  7
EXCADSTD
 72
     5
 11
1980.089993
 21
97.64445340000002
 31
0.0
100
AcDbText
  0
TEXT
  5
166
330
1F
100
AcDbEntity
  8
0
  6
CONTINUOUS
 62
     6
100
AcDbText
 10
103.9999989999701
 20
292.2086879499996
 30
0.0
 40
12.8622054
  1
éméuébü\ü@éRéOéOégéRéa
 41
1.633695188612295
  7
EXCADSTD
 72
     5
 11
299.1199989999702
 21
292.2086879499996
 31
0.0
100
AcDbText
  0
TEXT
  5
167
330
1F
100
AcDbEntity
  8
0
  6
CONTINUOUS
 62
     6
100
AcDbText
 10
103.9999989999701
 20
262.20868995
 30
0.0
 40
12.8622054
  1
éméuébü\ü@éSéOéOégéRéa
 41
1.633695188612295
  7
EXCADSTD
 72
     5
 11
299.1199989999702
 21
262.20868995
 31
0.0
100
AcDbText
  0
TEXT
  5
168
330
1F
100
AcDbEntity
  8
0
  6
CONTINUOUS
 62
     6
100
AcDbText
 10
103.9999989999701
 20
232.2086909499999
 30
0.0
 40
12.8622054
  1
éméuébü\ü@éTéOéOégéRéa
 41
1.633695188612295
  7
EXCADSTD
 72
     5
 11
299.1199989999702
 21
232.2086909499999
 31
0.0
100
AcDbText
  0
TEXT
  5
169
330
1F
100
AcDbEntity
  8
0
  6
CONTINUOUS
 62
     6
100
AcDbText
 10
103.9999989999702
 20
202.2086919499999
 30
0.0
 40
12.8622054
  1
éméuébü\ü@éUéOéOégéRéa
 41
1.633695188612295
  7
EXCADSTD
 72
     5
 11
299.1199989999702
 21
202.2086919499999
 31
0.0
100
AcDbText
  0
TEXT
  5
16A
330
1F
100
AcDbEntity
  8
0
  6
CONTINUOUS
 62
     6
100
AcDbText
 10
103.9999989999702
 20
172.2086929499999
 30
0.0
 40
12.8622054
  1
éméuébü\ü@éVéOéOégéRéa
 41
1.633695188612295
  7
EXCADSTD
 72
     5
 11
299.1199989999702
 21
172.2086929499999
 31
0.0
100
AcDbText
  0
TEXT
  5
16B
330
1F
100
AcDbEntity
  8
0
  6
CONTINUOUS
 62
     6
100
AcDbText
 10
103.9999989999702
 20
142.2086949499999
 30
0.0
 40
12.8622054
  1
éméuébü\ü@éWéOéOégéRéa
 41
1.633695188612295
  7
EXCADSTD
 72
     5
 11
299.1199989999702
 21
142.2086949499999
 31
0.0
100
AcDbText
  0
TEXT
  5
16C
330
1F
100
AcDbEntity
  8
0
  6
CONTINUOUS
 62
     6
100
AcDbText
 10
103.9999989999702
 20
112.2086959499999
 30
0.0
 40
12.8622054
  1
éméuébü\ü@éXéOéOégéRéa
 41
1.633695188612295
  7
EXCADSTD
 72
     5
 11
299.1199989999702
 21
112.2086959499999
 31
0.0
100
AcDbText
  0
TEXT
  5
16D
330
1F
100
AcDbEntity
  8
0
  6
CONTINUOUS
 62
     6
100
AcDbText
 10
103.9999989999701
 20
82.20868995000006
 30
0.0
 40
12.8622054
  1
éméuébü\éPéOéOéOégéRéa
 41
1.633695188612295
  7
EXCADSTD
 72
     5
 11
299.1199989999702
 21
82.20868995000006
 31
0.0
100
AcDbText
  0
LINE
  5
16E
330
1F
100
AcDbEntity
  8
0
  6
CONTINUOUS
 62
     6
100
AcDbLine
 10
307.3333293333027
 20
375.0000209999994
 30
0.0
 11
307.3333293333027
 21
75.0000120000001
 31
0.0
  0
TEXT
  5
16F
330
1F
100
AcDbEntity
  8
0
  6
CONTINUOUS
 62
     6
100
AcDbText
 10
347.2619939999695
 20
326.4094733999998
 30
0.0
 40
14.0314968
  1
āxāŗāgĢØ
 41
1.944722983555979
  7
EXCADSTD
 72
     5
 11
436.9205096249696
 21
326.4094733999998
 31
0.0
100
AcDbText
  0
TEXT
  5
170
330
1F
100
AcDbEntity
  8
0
  6
CONTINUOUS
 62
     6
100
AcDbText
 10
311.7009989999694
 20
350.2086839499994
 30
0.0
 40
12.8622054
  1
éaéģéēéö éŚéēéäéöéł
 41
1.52493288592639
  7
EXCADSTD
 72
     5
 11
479.8209989999694
 21
350.2086839499994
 31
0.0
100
AcDbText
  0
LINE
  5
171
330
1F
100
AcDbEntity
  8
0
  6
CONTINUOUS
 62
     6
100
AcDbLine
 10
480.6666666666353
 20
375.0000209999994
 30
0.0
 11
480.6666666666353
 21
75.0000120000001
 31
0.0
  0
TEXT
  5
172
330
1F
100
AcDbEntity
  8
0
  6
CONTINUOUS
 62
     6
100
AcDbText
 10
507.4466646666352
 20
322.2086859499997
 30
0.0
 40
12.8622054
  1
é`
 41
1.645751979672158
  7
EXCADSTD
 72
     5
 11
522.5666646666351
 21
322.2086859499997
 31
0.0
100
AcDbText
  0
LINE
  5
173
330
1F
100
AcDbEntity
  8
0
  6
CONTINUOUS
 62
     6
100
AcDbLine
 10
555.666668666635
 20
375.0000209999994
 30
0.0
 11
555.666668666635
 21
75.0000120000001
 31
0.0
  0
TEXT
  5
174
330
1F
100
AcDbEntity
  8
0
  6
CONTINUOUS
 62
     6
100
AcDbText
 10
586.4759979999682
 20
322.2086859499997
 30
0.0
 40
12.8622054
  1
éb
 41
1.645751979672164
  7
EXCADSTD
 72
     5
 11
601.5959979999682
 21
322.2086859499997
 31
0.0
100
AcDbText
  0
TEXT
  5
175
330
1F
100
AcDbEntity
  8
0
  6
CONTINUOUS
 62
     6
100
AcDbText
 10
311.8233323333004
 20
262.7086889500002
 30
0.0
 40
12.8622054
  1
ü@éSéOéOü`ü@éTéOéO
 41
1.633922675236066
  7
EXCADSTD
 72
     5
 11
470.9433323333004
 21
262.7086889500002
 31
0.0
100
AcDbText
  0
TEXT
  5
176
330
1F
100
AcDbEntity
  8
0
  6
CONTINUOUS
 62
     6
100
AcDbText
 10
311.8233323333004
 20
232.70868995
 30
0.0
 40
12.8622054
  1
ü@éTéOéOü`ü@éUéOéO
 41
1.633922675236066
  7
EXCADSTD
 72
     5
 11
470.9433323333004
 21
232.70868995
 31
0.0
100
AcDbText
  0
TEXT
  5
177
330
1F
100
AcDbEntity
  8
0
  6
CONTINUOUS
 62
     6
100
AcDbText
 10
311.8233323333004
 20
202.7086919500001
 30
0.0
 40
12.8622054
  1
ü@éUéOéOü`ü@éVéOéO
 41
1.633922675236066
  7
EXCADSTD
 72
     5
 11
470.9433323333004
 21
202.7086919500001
 31
0.0
100
AcDbText
  0
TEXT
  5
178
330
1F
100
AcDbEntity
  8
0
  6
CONTINUOUS
 62
     6
100
AcDbText
 10
311.8233323333004
 20
172.7086929500002
 30
0.0
 40
12.8622054
  1
ü@éVéOéOü`ü@éWéOéO
 41
1.633922675236066
  7
EXCADSTD
 72
     5
 11
470.9433323333004
 21
172.7086929500002
 31
0.0
100
AcDbText
  0
TEXT
  5
179
330
1F
100
AcDbEntity
  8
0
  6
CONTINUOUS
 62
     6
100
AcDbText
 10
311.8233323333004
 20
142.7086949500002
 30
0.0
 40
12.8622054
  1
ü@éWéOéOü`ü@éXéOéO
 41
1.633922675236066
  7
EXCADSTD
 72
     5
 11
470.9433323333004
 21
142.7086949500002
 31
0.0
100
AcDbText
  0
TEXT
  5
17A
330
1F
100
AcDbEntity
  8
0
  6
CONTINUOUS
 62
     6
100
AcDbText
 10
311.8233323333004
 20
112.7086959500001
 30
0.0
 40
12.8622054
  1
ü@éXéOéOü`éPéOéOéO
 41
1.633922675236066
  7
EXCADSTD
 72
     5
 11
470.9433323333004
 21
112.7086959500001
 31
0.0
100
AcDbText
  0
TEXT
  5
17B
330
1F
100
AcDbEntity
  8
0
  6
CONTINUOUS
 62
     6
100
AcDbText
 10
311.8233323333004
 20
82.70868995000006
 30
0.0
 40
12.8622054
  1
éPéOéOéOü`éPéPéOéO
 41
1.633922675236066
  7
EXCADSTD
 72
     5
 11
470.9433323333004
 21
82.70868995000006
 31
0.0
100
AcDbText
  0
TEXT
  5
17C
330
1F
100
AcDbEntity
  8
0
  6
CONTINUOUS
 62
     6
100
AcDbText
 10
311.8233323333004
 20
292.7086869500002
 30
0.0
 40
12.8622054
  1
ü@éRéOéOü`ü@éSéOéO
 41
1.633922675236066
  7
EXCADSTD
 72
     5
 11
470.9433323333004
 21
292.7086869500002
 31
0.0
100
AcDbText
  0
TEXT
  5
17D
330
1F
100
AcDbEntity
  8
0
  6
CONTINUOUS
 62
     6
100
AcDbText
 10
480.3333273333002
 20
82.70867595000011
 30
0.0
 40
12.8622054
  1
éPéOéOéX
 41
1.635529917686621
  7
EXCADSTD
 72
     5
 11
549.4533273333002
 21
82.70867595000011
 31
0.0
100
AcDbText
  0
TEXT
  5
17E
330
1F
100
AcDbEntity
  8
0
  6
CONTINUOUS
 62
     6
100
AcDbText
 10
473.3333273333002
 20
262.70868095
 30
0.0
 40
12.8622054
  1
ü@éSéOéR
 41
1.635529917686621
  7
EXCADSTD
 72
     5
 11
542.4533273333002
 21
262.70868095
 31
0.0
100
AcDbText
  0
TEXT
  5
17F
330
1F
100
AcDbEntity
  8
0
  6
CONTINUOUS
 62
     6
100
AcDbText
 10
473.3333273333002
 20
232.7086829500002
 30
0.0
 40
12.8622054
  1
ü@éTéOéS
 41
1.635529917686621
  7
EXCADSTD
 72
     5
 11
542.4533273333002
 21
232.7086829500002
 31
0.0
100
AcDbText
  0
TEXT
  5
180
330
1F
100
AcDbEntity
  8
0
  6
CONTINUOUS
 62
     6
100
AcDbText
 10
473.3333273333002
 20
202.7086759500001
 30
0.0
 40
12.8622054
  1
ü@éUéOéT
 41
1.635529917686621
  7
EXCADSTD
 72
     5
 11
542.4533273333002
 21
202.7086759500001
 31
0.0
100
AcDbText
  0
TEXT
  5
181
330
1F
100
AcDbEntity
  8
0
  6
CONTINUOUS
 62
     6
100
AcDbText
 10
473.3333273333002
 20
172.7086779500001
 30
0.0
 40
12.8622054
  1
ü@éVéOéU
 41
1.635529917686621
  7
EXCADSTD
 72
     5
 11
542.4533273333002
 21
172.7086779500001
 31
0.0
100
AcDbText
  0
TEXT
  5
182
330
1F
100
AcDbEntity
  8
0
  6
CONTINUOUS
 62
     6
100
AcDbText
 10
473.3333273333002
 20
142.7086799500001
 30
0.0
 40
12.8622054
  1
ü@éWéOéV
 41
1.635529917686621
  7
EXCADSTD
 72
     5
 11
542.4533273333002
 21
142.7086799500001
 31
0.0
100
AcDbText
  0
TEXT
  5
183
330
1F
100
AcDbEntity
  8
0
  6
CONTINUOUS
 62
     6
100
AcDbText
 10
473.3333273333002
 20
112.7086819500001
 30
0.0
 40
12.8622054
  1
ü@éXéOéW
 41
1.635529917686621
  7
EXCADSTD
 72
     5
 11
542.4533273333002
 21
112.7086819500001
 31
0.0
100
AcDbText
  0
TEXT
  5
184
330
1F
100
AcDbEntity
  8
0
  6
CONTINUOUS
 62
     6
100
AcDbText
 10
473.3333273333002
 20
292.7086869500002
 30
0.0
 40
12.8622054
  1
ü@éRéOéQ
 41
1.635529917686621
  7
EXCADSTD
 72
     5
 11
542.4533273333002
 21
292.7086869500002
 31
0.0
100
AcDbText
  0
LINE
  5
185
330
1F
100
AcDbEntity
  8
0
  6
CONTINUOUS
 62
     6
100
AcDbLine
 10
640.6666686666313
 20
375.0000139999993
 30
0.0
 11
640.6666686666313
 21
75.0000050000001
 31
0.0
  0
TEXT
  5
186
330
1F
100
AcDbEntity
  8
0
  6
CONTINUOUS
 62
     6
100
AcDbText
 10
651.9129979999647
 20
322.2086789499997
 30
0.0
 40
12.8622054
  1
ém
 41
1.645751979672164
  7
EXCADSTD
 72
     5
 11
667.0329979999647
 21
322.2086789499997
 31
0.0
100
AcDbText
  0
LINE
  5
187
330
1F
100
AcDbEntity
  8
0
  6
CONTINUOUS
 62
     6
100
AcDbLine
 10
682.333331333298
 20
375.0000139999993
 30
0.0
 11
682.333331333298
 21
75.0000050000001
 31
0.0
  0
LINE
  5
188
330
1F
100
AcDbEntity
  8
0
  6
CONTINUOUS
 62
     6
100
AcDbLine
 10
757.3333333332977
 20
375.0000139999993
 30
0.0
 11
757.3333333332977
 21
75.0000050000001
 31
0.0
  0
TEXT
  5
189
330
1F
100
AcDbEntity
  8
0
  6
CONTINUOUS
 62
     6
100
AcDbText
 10
759.333335333297
 20
322.2086499499995
 30
0.0
 40
12.8622054
  1
āAü[āĆéQ
 41
1.635529917686623
  7
EXCADSTD
 72
     5
 11
828.453335333297
 21
322.2086499499995
 31
0.0
100
AcDbText
  0
LINE
  5
18A
330
1F
100
AcDbEntity
  8
0
  6
CONTINUOUS
 62
     6
100
AcDbLine
 10
832.3333353332972
 20
375.0000139999993
 30
0.0
 11
832.3333353332972
 21
75.0000050000001
 31
0.0
  0
TEXT
  5
18B
330
1F
100
AcDbEntity
  8
0
  6
CONTINUOUS
 62
     6
100
AcDbText
 10
834.3333373332969
 20
322.2086499499995
 30
0.0
 40
12.8622054
  1
āAü[āĆéR
 41
1.635529917686623
  7
EXCADSTD
 72
     5
 11
903.4533373332969
 21
322.2086499499995
 31
0.0
100
AcDbText
  0
TEXT
  5
18C
330
1F
100
AcDbEntity
  8
0
  6
CONTINUOUS
 62
     6
100
AcDbText
 10
685.3333313332979
 20
322.7086499499995
 30
0.0
 40
12.8622054
  1
āAü[āĆéP
 41
1.635529917686623
  7
EXCADSTD
 72
     5
 11
754.4533313332979
 21
322.7086499499995
 31
0.0
100
AcDbText
  0
LINE
  5
18D
330
1F
100
AcDbEntity
  8
0
  6
CONTINUOUS
 62
     6
100
AcDbLine
 10
907.3333373332971
 20
375.0000139999993
 30
0.0
 11
907.3333373332971
 21
75.0000050000001
 31
0.0
  0
TEXT
  5
18E
330
1F
100
AcDbEntity
  8
0
  6
CONTINUOUS
 62
     6
100
AcDbText
 10
785.0686626666308
 20
292.2086809499996
 30
0.0
 40
12.8622054
  1
ü|
 41
1.645751979672164
  7
EXCADSTD
 72
     5
 11
800.1886626666308
 21
292.2086809499996
 31
0.0
100
AcDbText
  0
TEXT
  5
18F
330
1F
100
AcDbEntity
  8
0
  6
CONTINUOUS
 62
     6
100
AcDbText
 10
785.0686626666308
 20
262.2086829499997
 30
0.0
 40
12.8622054
  1
ü|
 41
1.645751979672164
  7
EXCADSTD
 72
     5
 11
800.1886626666308
 21
262.2086829499997
 31
0.0
100
AcDbText
  0
TEXT
  5
190
330
1F
100
AcDbEntity
  8
0
  6
CONTINUOUS
 62
     6
100
AcDbText
 10
860.0686646666304
 20
262.2086829499997
 30
0.0
 40
12.8622054
  1
éQ
 41
1.645751979672164
  7
EXCADSTD
 72
     5
 11
875.1886646666304
 21
262.2086829499997
 31
0.0
100
AcDbText
  0
TEXT
  5
191
330
1F
100
AcDbEntity
  8
0
  6
CONTINUOUS
 62
     6
100
AcDbText
 10
860.0686646666304
 20
232.2086849499999
 30
0.0
 40
12.8622054
  1
éQ
 41
1.645751979672164
  7
EXCADSTD
 72
     5
 11
875.1886646666304
 21
232.2086849499999
 31
0.0
100
AcDbText
  0
LINE
  5
192
330
1F
100
AcDbEntity
  8
0
  6
CONTINUOUS
 62
     6
100
AcDbLine
 10
99.99999999999989
 20
375.0000209999994
 30
0.0
 11
907.3333373332971
 21
375.0000139999993
 31
0.0
  0
TEXT
  5
193
330
1F
100
AcDbEntity
  8
0
  6
CONTINUOUS
 62
     6
100
AcDbText
 10
910.89277066663
 20
348.5078864999998
 30
0.0
 40
11.692914
  1
Weight
 41
1.530300439101102
  7
EXCADSTD
 72
     5
 11
994.3965706666299
 21
348.5078864999998
 31
0.0
100
AcDbText
  0
TEXT
  5
194
330
1F
100
AcDbEntity
  8
0
  6
CONTINUOUS
 62
     6
100
AcDbText
 10
910.1556646666302
 20
322.1417497999997
 30
0.0
 40
12.4724416
  1
ÅdŚ╩(éjéć)
 41
1.607414382187278
  7
EXCADSTD
 72
     5
 11
1001.805410992714
 21
322.1417497999997
 31
0.0
100
AcDbText
  0
LINE
  5
195
330
1F
100
AcDbEntity
  8
0
  6
CONTINUOUS
 62
     6
100
AcDbLine
 10
1004.833339333296
 20
375.0000139999993
 30
0.0
 11
1004.833339333296
 21
74.999998
 31
0.0
  0
LINE
  5
196
330
1F
100
AcDbEntity
  8
0
  6
CONTINUOUS
 62
     6
100
AcDbLine
 10
907.3333373333003
 20
375.0000139999993
 30
0.0
 11
1004.833339333296
 21
375.0000139999993
 31
0.0
  0
LINE
  5
197
330
1F
100
AcDbEntity
  8
0
  6
CONTINUOUS
 62
     6
100
AcDbLine
 10
99.99999999999989
 20
315.0000239999997
 30
0.0
 11
1004.8333393333
 21
315.0000169999999
 31
0.0
  0
TEXT
  5
198
330
1F
100
AcDbEntity
  8
0
  6
CONTINUOUS
 62
     6
100
AcDbText
 10
710.0686606666309
 20
202.2086859499998
 30
0.0
 40
12.8622054
  1
éQ
 41
1.645751979672164
  7
EXCADSTD
 72
     5
 11
725.1886606666309
 21
202.2086859499998
 31
0.0
100
AcDbText
  0
TEXT
  5
199
330
1F
100
AcDbEntity
  8
0
  6
CONTINUOUS
 62
     6
100
AcDbText
 10
860.0686646666304
 20
202.2086859499998
 30
0.0
 40
12.8622054
  1
éQ
 41
1.645751979672164
  7
EXCADSTD
 72
     5
 11
875.1886646666304
 21
202.2086859499998
 31
0.0
100
AcDbText
  0
TEXT
  5
19A
330
1F
100
AcDbEntity
  8
0
  6
CONTINUOUS
 62
     6
100
AcDbText
 10
860.0686646666304
 20
172.2086869499998
 30
0.0
 40
12.8622054
  1
éQ
 41
1.645751979672164
  7
EXCADSTD
 72
     5
 11
875.1886646666304
 21
172.2086869499998
 31
0.0
100
AcDbText
  0
TEXT
  5
19B
330
1F
100
AcDbEntity
  8
0
  6
CONTINUOUS
 62
     6
100
AcDbText
 10
710.0686606666309
 20
142.2086889499999
 30
0.0
 40
12.8622054
  1
éQ
 41
1.645751979672164
  7
EXCADSTD
 72
     5
 11
725.1886606666309
 21
142.2086889499999
 31
0.0
100
AcDbText
  0
TEXT
  5
19C
330
1F
100
AcDbEntity
  8
0
  6
CONTINUOUS
 62
     6
100
AcDbText
 10
860.0686646666304
 20
142.2086889499999
 30
0.0
 40
12.8622054
  1
éQ
 41
1.645751979672164
  7
EXCADSTD
 72
     5
 11
875.1886646666304
 21
142.2086889499999
 31
0.0
100
AcDbText
  0
TEXT
  5
19D
330
1F
100
AcDbEntity
  8
0
  6
CONTINUOUS
 62
     6
100
AcDbText
 10
860.0686646666304
 20
112.2086899499999
 30
0.0
 40
12.8622054
  1
éQ
 41
1.645751979672164
  7
EXCADSTD
 72
     5
 11
875.1886646666304
 21
112.2086899499999
 31
0.0
100
AcDbText
  0
TEXT
  5
19E
330
1F
100
AcDbEntity
  8
0
  6
CONTINUOUS
 62
     6
100
AcDbText
 10
561.6666666666305
 20
262.70868095
 30
0.0
 40
12.8622054
  1
éPéPéOéO
 41
1.635529917686623
  7
EXCADSTD
 72
     5
 11
630.7866666666305
 21
262.70868095
 31
0.0
100
AcDbText
  0
TEXT
  5
19F
330
1F
100
AcDbEntity
  8
0
  6
CONTINUOUS
 62
     6
100
AcDbText
 10
561.6666666666305
 20
232.7086829500002
 30
0.0
 40
12.8622054
  1
éPéQéOéO
 41
1.635529917686623
  7
EXCADSTD
 72
     5
 11
630.7866666666305
 21
232.7086829500002
 31
0.0
100
AcDbText
  0
TEXT
  5
1A0
330
1F
100
AcDbEntity
  8
0
  6
CONTINUOUS
 62
     6
100
AcDbText
 10
561.6666666666305
 20
202.7086759500001
 30
0.0
 40
12.8622054
  1
éPéRéOéO
 41
1.635529917686623
  7
EXCADSTD
 72
     5
 11
630.7866666666305
 21
202.7086759500001
 31
0.0
100
AcDbText
  0
TEXT
  5
1A1
330
1F
100
AcDbEntity
  8
0
  6
CONTINUOUS
 62
     6
100
AcDbText
 10
561.6666666666305
 20
172.7086779500001
 30
0.0
 40
12.8622054
  1
éPéSéOéO
 41
1.635529917686623
  7
EXCADSTD
 72
     5
 11
630.7866666666305
 21
172.7086779500001
 31
0.0
100
AcDbText
  0
TEXT
  5
1A2
330
1F
100
AcDbEntity
  8
0
  6
CONTINUOUS
 62
     6
100
AcDbText
 10
561.6666666666305
 20
142.7086799500001
 30
0.0
 40
12.8622054
  1
éPéTéOéO
 41
1.635529917686623
  7
EXCADSTD
 72
     5
 11
630.7866666666305
 21
142.7086799500001
 31
0.0
100
AcDbText
  0
TEXT
  5
1A3
330
1F
100
AcDbEntity
  8
0
  6
CONTINUOUS
 62
     6
100
AcDbText
 10
561.6666666666305
 20
112.7086819500001
 30
0.0
 40
12.8622054
  1
éPéUéOéO
 41
1.635529917686623
  7
EXCADSTD
 72
     5
 11
630.7866666666305
 21
112.7086819500001
 31
0.0
100
AcDbText
  0
TEXT
  5
1A4
330
1F
100
AcDbEntity
  8
0
  6
CONTINUOUS
 62
     6
100
AcDbText
 10
561.6666666666305
 20
82.70867595000011
 30
0.0
 40
12.8622054
  1
éPéVéOéO
 41
1.635529917686623
  7
EXCADSTD
 72
     5
 11
630.7866666666305
 21
82.70867595000011
 31
0.0
100
AcDbText
  0
TEXT
  5
1A5
330
1F
100
AcDbEntity
  8
0
  6
CONTINUOUS
 62
     6
100
AcDbText
 10
561.6666666666305
 20
292.7086869500002
 30
0.0
 40
12.8622054
  1
éPéOéOéO
 41
1.635529917686623
  7
EXCADSTD
 72
     5
 11
630.7866666666305
 21
292.7086869500002
 31
0.0
100
AcDbText
  0
TEXT
  5
1A6
330
1F
100
AcDbEntity
  8
0
  6
CONTINUOUS
 62
     6
100
AcDbText
 10
634.4749989999701
 20
262.70865695
 30
0.0
 40
12.8622054
  1
ü@éS
 41
1.638627512227696
  7
EXCADSTD
 72
     5
 11
667.5949989999701
 21
262.70865695
 31
0.0
100
AcDbText
  0
TEXT
  5
1A7
330
1F
100
AcDbEntity
  8
0
  6
CONTINUOUS
 62
     6
100
AcDbText
 10
634.4749989999701
 20
232.7086589500002
 30
0.0
 40
12.8622054
  1
ü@éT
 41
1.638627512227696
  7
EXCADSTD
 72
     5
 11
667.5949989999701
 21
232.7086589500002
 31
0.0
100
AcDbText
  0
TEXT
  5
1A8
330
1F
100
AcDbEntity
  8
0
  6
CONTINUOUS
 62
     6
100
AcDbText
 10
634.4749989999701
 20
202.7086519500001
 30
0.0
 40
12.8622054
  1
ü@éU
 41
1.638627512227696
  7
EXCADSTD
 72
     5
 11
667.5949989999701
 21
202.7086519500001
 31
0.0
100
AcDbText
  0
TEXT
  5
1A9
330
1F
100
AcDbEntity
  8
0
  6
CONTINUOUS
 62
     6
100
AcDbText
 10
634.4749989999701
 20
172.7086539500001
 30
0.0
 40
12.8622054
  1
ü@éV
 41
1.638627512227696
  7
EXCADSTD
 72
     5
 11
667.5949989999701
 21
172.7086539500001
 31
0.0
100
AcDbText
  0
TEXT
  5
1AA
330
1F
100
AcDbEntity
  8
0
  6
CONTINUOUS
 62
     6
100
AcDbText
 10
634.4749989999701
 20
142.7086559500001
 30
0.0
 40
12.8622054
  1
ü@éW
 41
1.638627512227696
  7
EXCADSTD
 72
     5
 11
667.5949989999701
 21
142.7086559500001
 31
0.0
100
AcDbText
  0
TEXT
  5
1AB
330
1F
100
AcDbEntity
  8
0
  6
CONTINUOUS
 62
     6
100
AcDbText
 10
634.4749989999701
 20
112.7086579500001
 30
0.0
 40
12.8622054
  1
ü@éX
 41
1.638627512227696
  7
EXCADSTD
 72
     5
 11
667.5949989999701
 21
112.7086579500001
 31
0.0
100
AcDbText
  0
TEXT
  5
1AC
330
1F
100
AcDbEntity
  8
0
  6
CONTINUOUS
 62
     6
100
AcDbText
 10
644.60200099997
 20
82.7086519500001
 30
0.0
 40
12.8622054
  1
éPéO
 41
1.638627512227696
  7
EXCADSTD
 72
     5
 11
677.72200099997
 21
82.7086519500001
 31
0.0
100
AcDbText
  0
TEXT
  5
1AD
330
1F
100
AcDbEntity
  8
0
  6
CONTINUOUS
 62
     6
100
AcDbText
 10
634.4749989999701
 20
292.7086629500002
 30
0.0
 40
12.8622054
  1
ü@éR
 41
1.638627512227696
  7
EXCADSTD
 72
     5
 11
667.5949989999701
 21
292.7086629500002
 31
0.0
100
AcDbText
  0
TEXT
  5
1AE
330
1F
100
AcDbEntity
  8
0
  6
CONTINUOUS
 62
     6
100
AcDbText
 10
710.0686606666309
 20
292.2086809499996
 30
0.0
 40
12.8622054
  1
éP
 41
1.645751979672164
  7
EXCADSTD
 72
     5
 11
725.1886606666309
 21
292.2086809499996
 31
0.0
100
AcDbText
  0
TEXT
  5
1AF
330
1F
100
AcDbEntity
  8
0
  6
CONTINUOUS
 62
     6
100
AcDbText
 10
860.0686646666304
 20
292.2086809499997
 30
0.0
 40
12.8622054
  1
éQ
 41
1.645751979672164
  7
EXCADSTD
 72
     5
 11
875.1886646666304
 21
292.2086809499997
 31
0.0
100
AcDbText
  0
TEXT
  5
1B0
330
1F
100
AcDbEntity
  8
0
  6
CONTINUOUS
 62
     6
100
AcDbText
 10
710.0686606666309
 20
262.2086829499997
 30
0.0
 40
12.8622054
  1
éQ
 41
1.645751979672164
  7
EXCADSTD
 72
     5
 11
725.1886606666309
 21
262.2086829499997
 31
0.0
100
AcDbText
  0
TEXT
  5
1B1
330
1F
100
AcDbEntity
  8
0
  6
CONTINUOUS
 62
     6
100
AcDbText
 10
710.0686606666309
 20
232.2086849499999
 30
0.0
 40
12.8622054
  1
éP
 41
1.645751979672164
  7
EXCADSTD
 72
     5
 11
725.1886606666309
 21
232.2086849499999
 31
0.0
100
AcDbText
  0
TEXT
  5
1B2
330
1F
100
AcDbEntity
  8
0
  6
CONTINUOUS
 62
     6
100
AcDbText
 10
785.0686626666308
 20
232.20871595
 30
0.0
 40
12.8622054
  1
éQ
 41
1.645751979672164
  7
EXCADSTD
 72
     5
 11
800.1886626666308
 21
232.20871595
 31
0.0
100
AcDbText
  0
TEXT
  5
1B3
330
1F
100
AcDbEntity
  8
0
  6
CONTINUOUS
 62
     6
100
AcDbText
 10
785.0686626666308
 20
202.2087169499999
 30
0.0
 40
12.8622054
  1
éQ
 41
1.645751979672164
  7
EXCADSTD
 72
     5
 11
800.1886626666308
 21
202.2087169499999
 31
0.0
100
AcDbText
  0
TEXT
  5
1B4
330
1F
100
AcDbEntity
  8
0
  6
CONTINUOUS
 62
     6
100
AcDbText
 10
710.0686606666309
 20
172.2086869499998
 30
0.0
 40
12.8622054
  1
éR
 41
1.645751979672164
  7
EXCADSTD
 72
     5
 11
725.1886606666309
 21
172.2086869499998
 31
0.0
100
AcDbText
  0
TEXT
  5
1B5
330
1F
100
AcDbEntity
  8
0
  6
CONTINUOUS
 62
     6
100
AcDbText
 10
785.0686626666308
 20
172.2087179499999
 30
0.0
 40
12.8622054
  1
éQ
 41
1.645751979672164
  7
EXCADSTD
 72
     5
 11
800.1886626666308
 21
172.2087179499999
 31
0.0
100
AcDbText
  0
TEXT
  5
1B6
330
1F
100
AcDbEntity
  8
0
  6
CONTINUOUS
 62
     6
100
AcDbText
 10
785.0686626666308
 20
142.2086889499999
 30
0.0
 40
12.8622054
  1
éS
 41
1.645751979672164
  7
EXCADSTD
 72
     5
 11
800.1886626666308
 21
142.2086889499999
 31
0.0
100
AcDbText
  0
TEXT
  5
1B7
330
1F
100
AcDbEntity
  8
0
  6
CONTINUOUS
 62
     6
100
AcDbText
 10
710.0686606666309
 20
112.2086899499999
 30
0.0
 40
12.8622054
  1
éR
 41
1.645751979672164
  7
EXCADSTD
 72
     5
 11
725.1886606666309
 21
112.2086899499999
 31
0.0
100
AcDbText
  0
TEXT
  5
1B8
330
1F
100
AcDbEntity
  8
0
  6
CONTINUOUS
 62
     6
100
AcDbText
 10
785.0686626666308
 20
112.2086899499999
 30
0.0
 40
12.8622054
  1
éS
 41
1.645751979672164
  7
EXCADSTD
 72
     5
 11
800.1886626666308
 21
112.2086899499999
 31
0.0
100
AcDbText
  0
TEXT
  5
1B9
330
1F
100
AcDbEntity
  8
0
  6
CONTINUOUS
 62
     6
100
AcDbText
 10
710.0686606666309
 20
82.20869094999999
 30
0.0
 40
12.8622054
  1
éS
 41
1.645751979672164
  7
EXCADSTD
 72
     5
 11
725.1886606666309
 21
82.20869094999999
 31
0.0
100
AcDbText
  0
TEXT
  5
1BA
330
1F
100
AcDbEntity
  8
0
  6
CONTINUOUS
 62
     6
100
AcDbText
 10
785.0686626666308
 20
82.20869195
 30
0.0
 40
12.8622054
  1
éS
 41
1.645751979672164
  7
EXCADSTD
 72
     5
 11
800.1886626666308
 21
82.20869195
 31
0.0
100
AcDbText
  0
TEXT
  5
1BB
330
1F
100
AcDbEntity
  8
0
  6
CONTINUOUS
 62
     6
100
AcDbText
 10
860.0686646666304
 20
82.20869094999999
 30
0.0
 40
12.8622054
  1
éQ
 41
1.645751979672164
  7
EXCADSTD
 72
     5
 11
875.1886646666304
 21
82.20869094999999
 31
0.0
100
AcDbText
  0
TEXT
  5
1BC
330
1F
100
AcDbEntity
  8
0
  6
CONTINUOUS
 62
     6
100
AcDbText
 10
936.1666706666301
 20
292.2086609499996
 30
0.0
 40
12.8622054
  1
éPéT
 41
1.638627512227696
  7
EXCADSTD
 72
     5
 11
969.2866706666301
 21
292.2086609499996
 31
0.0
100
AcDbText
  0
TEXT
  5
1BD
330
1F
100
AcDbEntity
  8
0
  6
CONTINUOUS
 62
     6
100
AcDbText
 10
936.1666706666301
 20
262.20866295
 30
0.0
 40
12.8622054
  1
éPéV
 41
1.638627512227696
  7
EXCADSTD
 72
     5
 11
969.2866706666301
 21
262.20866295
 31
0.0
100
AcDbText
  0
TEXT
  5
1BE
330
1F
100
AcDbEntity
  8
0
  6
CONTINUOUS
 62
     6
100
AcDbText
 10
936.1666706666301
 20
232.2086649499999
 30
0.0
 40
12.8622054
  1
éPéX
 41
1.638627512227696
  7
EXCADSTD
 72
     5
 11
969.2866706666301
 21
232.2086649499999
 31
0.0
100
AcDbText
  0
TEXT
  5
1BF
330
1F
100
AcDbEntity
  8
0
  6
CONTINUOUS
 62
     6
100
AcDbText
 10
936.1666706666301
 20
202.2086659499999
 30
0.0
 40
12.8622054
  1
éQéO
 41
1.638627512227696
  7
EXCADSTD
 72
     5
 11
969.2866706666301
 21
202.2086659499999
 31
0.0
100
AcDbText
  0
TEXT
  5
1C0
330
1F
100
AcDbEntity
  8
0
  6
CONTINUOUS
 62
     6
100
AcDbText
 10
936.1666706666301
 20
172.2086669499999
 30
0.0
 40
12.8622054
  1
éQéQ
 41
1.638627512227696
  7
EXCADSTD
 72
     5
 11
969.2866706666301
 21
172.2086669499999
 31
0.0
100
AcDbText
  0
TEXT
  5
1C1
330
1F
100
AcDbEntity
  8
0
  6
CONTINUOUS
 62
     6
100
AcDbText
 10
936.1666706666301
 20
142.2086689499999
 30
0.0
 40
12.8622054
  1
éQéR
 41
1.638627512227696
  7
EXCADSTD
 72
     5
 11
969.2866706666301
 21
142.2086689499999
 31
0.0
100
AcDbText
  0
TEXT
  5
1C2
330
1F
100
AcDbEntity
  8
0
  6
CONTINUOUS
 62
     6
100
AcDbText
 10
936.1666706666301
 20
112.2086699499999
 30
0.0
 40
12.8622054
  1
éQéT
 41
1.638627512227696
  7
EXCADSTD
 72
     5
 11
969.2866706666301
 21
112.2086699499999
 31
0.0
100
AcDbText
  0
TEXT
  5
1C3
330
1F
100
AcDbEntity
  8
0
  6
CONTINUOUS
 62
     6
100
AcDbText
 10
936.1666706666301
 20
82.20867095000011
 30
0.0
 40
12.8622054
  1
éQéV
 41
1.638627512227696
  7
EXCADSTD
 72
     5
 11
969.2866706666301
 21
82.20867095000011
 31
0.0
100
AcDbText
  0
LINE
  5
1C4
330
1F
100
AcDbEntity
  8
0
  6
CONTINUOUS
 62
     6
100
AcDbLine
 10
99.99999999999993
 20
105.0000340000002
 30
0.0
 11
1004.8333393333
 21
105.0000270000005
 31
0.0
  0
LINE
  5
1C5
330
1F
100
AcDbEntity
  8
0
  6
CONTINUOUS
 62
     6
100
AcDbLine
 10
99.99999999999989
 20
225.0000289999999
 30
0.0
 11
1004.8333393333
 21
225.0000220000001
 31
0.0
  0
LINE
  5
1C6
330
1F
100
AcDbEntity
  8
0
  6
CONTINUOUS
 62
     6
100
AcDbLine
 10
99.99999999999989
 20
255.0000279999999
 30
0.0
 11
1004.8333393333
 21
255.0000210000002
 31
0.0
  0
LINE
  5
1C7
330
1F
100
AcDbEntity
  8
0
  6
CONTINUOUS
 62
     6
100
AcDbLine
 10
99.99999999999989
 20
285.0000259999997
 30
0.0
 11
1004.8333393333
 21
285.0000189999998
 31
0.0
  0
LINE
  5
1C8
330
1F
100
AcDbEntity
  8
0
  6
CONTINUOUS
 62
     6
100
AcDbLine
 10
99.9999999999999
 20
195.0000299999999
 30
0.0
 11
1004.8333393333
 21
195.0000230000003
 31
0.0
  0
LINE
  5
1C9
330
1F
100
AcDbEntity
  8
0
  6
CONTINUOUS
 62
     6
100
AcDbLine
 10
99.99999999999993
 20
165.0000309999999
 30
0.0
 11
1004.8333393333
 21
165.0000240000007
 31
0.0
  0
LINE
  5
1CA
330
1F
100
AcDbEntity
  8
0
  6
CONTINUOUS
 62
     6
100
AcDbLine
 10
99.99999999999994
 20
135.0000319999999
 30
0.0
 11
1004.8333393333
 21
135.0000250000006
 31
0.0
  0
TEXT
  5
1CB
330
1F
100
AcDbEntity
  8
0
  6
CONTINUOUS
 62
     6
100
AcDbText
 10
150.2370969999999
 20
351.2086839499993
 30
0.0
 40
12.8622054
  1
éséÖéÉéģ
 41
2.725883196144371
  7
EXCADSTD
 72
     5
 11
265.4370969999999
 21
351.2086839499993
 31
0.0
100
AcDbText
  0
TEXT
  5
1CC
330
1F
100
AcDbEntity
  8
0
  6
CONTINUOUS
 62
     6
100
AcDbText
 10
146.2629979999999
 20
323.4094733999997
 30
0.0
 40
14.0314968
  1
ī^ü@ü@ü@Ä«
 41
2.08152394345585
  7
EXCADSTD
 72
     5
 11
267.2629979999999
 21
323.4094733999997
 31
0.0
100
AcDbText
  0
TEXT
  5
1CD
330
1F
100
AcDbEntity
  8
0
  6
CONTINUOUS
 62
     6
100
AcDbText
 10
1716.360004
 20
1120.708674949999
 30
0.0
 40
12.8622054
  1
éléPéQü~éRéOü@ém
 41
1.634079979816332
  7
EXCADSTD
 72
     5
 11
1857.480004
 21
1120.708674949999
 31
0.0
100
AcDbText
  0
TEXT
  5
1CE
330
1F
100
AcDbEntity
  8
0
  6
CONTINUOUS
 62
     2
100
AcDbText
 10
1270.373990738418
 20
411.8096589500001
 30
0.0
 40
12.8622054
  1
éb
 41
1.645751979672152
  7
EXCADSTD
 72
     5
 11
1285.493990738418
 21
411.8096589500001
 31
0.0
100
AcDbText
  0
TEXT
  5
1CF
330
1F
100
AcDbEntity
  8
0
  6
CONTINUOUS
 62
     6
100
AcDbText
 10
1571.939992
 20
1060.708670949999
 30
0.0
 40
12.8622054
  1
éP
 41
1.645751979672152
  7
EXCADSTD
 72
     5
 11
1587.059992
 21
1060.708670949999
 31
0.0
100
AcDbText
  0
TEXT
  5
1D0
330
1F
100
AcDbEntity
  8
0
  6
CONTINUOUS
 62
     6
100
AcDbText
 10
1571.939992
 20
1150.708680949999
 30
0.0
 40
12.8622054
  1
éP
 41
1.645751979672152
  7
EXCADSTD
 72
     5
 11
1587.059992
 21
1150.708680949999
 31
0.0
100
AcDbText
  0
TEXT
  5
1D1
330
1F
100
AcDbEntity
  8
0
  6
CONTINUOUS
 62
     6
100
AcDbText
 10
1391.799996
 20
224.9928745000001
 30
0.0
 40
11.692914
  1
éPéTüféPüféQéO
 41
1.098601568311935
  7
EXCADSTD
 72
     5
 11
1467.039996
 21
224.9928745000001
 31
0.0
100
AcDbText
  0
LINE
  5
1D2
330
1F
100
AcDbEntity
  8
0
  6
CONTINUOUS
 62
     6
100
AcDbLine
 10
921.9999930000001
 20
1022.500011
 30
0.0
 11
2014.999995
 21
1022.500011
 31
0.0
  0
TEXT
  5
1D3
330
1F
100
AcDbEntity
  8
0
  6
CONTINUOUS
 62
     6
100
AcDbText
 10
935.7100029999999
 20
1031.20867395
 30
0.0
 40
12.8622054
  1
éPéQ
 41
1.638627512227696
  7
EXCADSTD
 72
     5
 11
968.8300029999999
 21
1031.20867395
 31
0.0
100
AcDbText
  0
TEXT
  5
1D4
330
1F
100
AcDbEntity
  8
0
  6
CONTINUOUS
 62
     6
100
AcDbText
 10
1571.939992
 20
1030.708671949999
 30
0.0
 40
12.8622054
  1
éP
 41
1.645751979672152
  7
EXCADSTD
 72
     5
 11
1587.059992
 21
1030.708671949999
 31
0.0
100
AcDbText
  0
TEXT
  5
1D5
330
1F
100
AcDbEntity
  8
0
  6
CONTINUOUS
 62
     6
100
AcDbText
 10
1610.281311
 20
1030.708677949999
 30
0.0
 40
12.8622054
  1
SS400
 41
1.383655675810823
  7
EXCADSTD
 72
     5
 11
1692.485870999999
 21
1030.708677949999
 31
0.0
100
AcDbText
  0
TEXT
  5
1D6
330
1F
100
AcDbEntity
  8
0
  6
CONTINUOUS
 62
     6
100
AcDbText
 10
1428.5
 20
1030.70866195
 30
0.0
 40
12.8622054
  1
āŹābāNāŖāōāO
 41
1.634556387973712
  7
EXCADSTD
 72
     5
 11
1533.62
 21
1030.70866195
 31
0.0
100
AcDbText
  0
TEXT
  5
1D7
330
1F
100
AcDbEntity
  8
0
  6
CONTINUOUS
 62
     6
100
AcDbText
 10
991.5913130000001
 20
1030.70867195
 30
0.0
 40
12.8622054
  1
lock ring
 41
1.824408068024463
  7
EXCADSTD
 72
     5
 11
1145.795873
 21
1030.70867195
 31
0.0
100
AcDbText
  0
LINE
  5
1D8
330
1F
100
AcDbEntity
  8
0
  6
CONTINUOUS
 62
     6
100
AcDbLine
 10
921.9999929999994
 20
1435.000005
 30
0.0
 11
921.9999929999994
 21
1022.500011
 31
0.0
  0
LINE
  5
1D9
330
1F
100
AcDbEntity
  8
0
  6
CONTINUOUS
 62
     6
100
AcDbLine
 10
921.9999930000001
 20
1052.50001
 30
0.0
 11
2014.999995
 21
1052.50001
 31
0.0
  0
LINE
  5
1DA
330
1F
100
AcDbEntity
  8
0
  6
CONTINUOUS
 62
     6
100
AcDbLine
 10
984.9999969999988
 20
1435.000005000001
 30
0.0
 11
984.9999969999988
 21
1022.500011
 31
0.0
  0
LINE
  5
1DB
330
1F
100
AcDbEntity
  8
0
  6
CONTINUOUS
 62
     6
100
AcDbLine
 10
1555.999993
 20
1435.000005000001
 30
0.0
 11
1555.999993
 21
1022.500011
 31
0.0
  0
LINE
  5
1DC
330
1F
100
AcDbEntity
  8
0
  6
CONTINUOUS
 62
     6
100
AcDbLine
 10
1604.999992
 20
1022.500011000001
 30
0.0
 11
1604.999992
 21
1435.000005000001
 31
0.0
  0
LINE
  5
1DD
330
1F
100
AcDbEntity
  8
0
  6
CONTINUOUS
 62
     6
100
AcDbLine
 10
1712.999994
 20
1435.000005000001
 30
0.0
 11
1712.999994
 21
1022.500011
 31
0.0
  0
TEXT
  5
1DE
330
1F
100
AcDbEntity
  8
0
  6
CONTINUOUS
 62
     6
100
AcDbText
 10
1571.939992
 20
1120.708674949999
 30
0.0
 40
12.8622054
  1
éQ
 41
1.645751979672152
  7
EXCADSTD
 72
     5
 11
1587.059992
 21
1120.708674949999
 31
0.0
100
AcDbText
  0
TEXT
  5
1DF
330
1F
100
AcDbEntity
  8
0
  6
CONTINUOUS
 62
     6
100
AcDbText
 10
1718.0
 20
1329.70866495
 30
0.0
 40
12.8622054
  1
éléWü~éPéUü@érévüAév
 41
1.633797364807716
  7
EXCADSTD
 72
     5
 11
1895.12
 21
1329.70866495
 31
0.0
100
AcDbText
  0
TEXT
  5
1E0
330
1F
100
AcDbEntity
  8
0
  6
CONTINUOUS
 62
     6
100
AcDbText
 10
1718.0
 20
1299.70866595
 30
0.0
 40
12.8622054
  1
éléWü~éPéUü@érévüAév
 41
1.633797364807716
  7
EXCADSTD
 72
     5
 11
1895.12
 21
1299.70866595
 31
0.0
100
AcDbText
  0
TEXT
  5
1E1
330
1F
100
AcDbEntity
  8
0
  6
CONTINUOUS
 62
     6
100
AcDbText
 10
1718.0
 20
1269.70866795
 30
0.0
 40
12.8622054
  1
éléWü~éPéUü@érévüAév
 41
1.633797364807716
  7
EXCADSTD
 72
     5
 11
1895.12
 21
1269.70866795
 31
0.0
100
AcDbText
  0
LINE
  5
1E2
330
1F
100
AcDbEntity
  8
0
  6
CONTINUOUS
 62
     7
100
AcDbLine
 10
357.1500014057304
 20
1001.2599981396
 30
0.0
 11
357.1500014057304
 21
1033.4999991396
 31
0.0
  0
LINE
  5
1E3
330
1F
100
AcDbEntity
  8
0
  6
CONTINUOUS
 62
     7
100
AcDbLine
 10
399.8500014057307
 20
1001.2599981396
 30
0.0
 11
399.8500014057307
 21
1033.4999991396
 31
0.0
  0
LINE
  5
1E4
330
1F
100
AcDbEntity
  8
0
  6
CONTINUOUS
 62
     7
100
AcDbLine
 10
357.1500014057304
 20
1001.2599981396
 30
0.0
 11
358.1500014057304
 21
1000.2599981396
 31
0.0
  0
LINE
  5
1E5
330
1F
100
AcDbEntity
  8
0
  6
CONTINUOUS
 62
     7
100
AcDbLine
 10
399.8500014057307
 20
1001.2599981396
 30
0.0
 11
398.8500014057307
 21
1000.2599981396
 31
0.0
  0
LINE
  5
1E6
330
1F
100
AcDbEntity
  8
0
  6
CONTINUOUS
 62
     7
100
AcDbLine
 10
398.8500014057316
 20
1000.2599981396
 30
0.0
 11
358.1500014057304
 21
1000.2599981396
 31
0.0
  0
POLYLINE
  5
1E7
330
1F
100
AcDbEntity
  8
0
  6
EXLTYPE3
 62
     6
100
AcDb2dPolyline
 66
     1
 10
0.0
 20
0.0
 30
0.0
 70
   128
  0
VERTEX
  5
1E8
330
1E7
100
AcDbEntity
  8
0
  6
EXLTYPE3
 62
     6
100
AcDbVertex
100
AcDb2dVertex
 10
399.8499984057311
 20
1133.5679771396
 30
0.0
  0
VERTEX
  5
1E9
330
1E7
100
AcDbEntity
  8
0
  6
EXLTYPE3
 62
     6
100
AcDbVertex
100
AcDb2dVertex
 10
399.7345313717054
 20
1133.425406111989
 30
0.0
  0
VERTEX
  5
1EA
330
1E7
100
AcDbEntity
  8
0
  6
EXLTYPE3
 62
     6
100
AcDbVertex
100
AcDb2dVertex
 10
399.4053498853922
 20
1133.028605737722
 30
0.0
  0
VERTEX
  5
1EB
330
1E7
100
AcDbEntity
  8
0
  6
EXLTYPE3
 62
     6
100
AcDbVertex
100
AcDb2dVertex
 10
398.8882833704369
 20
1132.423945079645
 30
0.0
  0
VERTEX
  5
1EC
330
1E7
100
AcDbEntity
  8
0
  6
EXLTYPE3
 62
     6
100
AcDbVertex
100
AcDb2dVertex
 10
398.2091612504872
 20
1131.657793200607
 30
0.0
  0
VERTEX
  5
1ED
330
1E7
100
AcDbEntity
  8
0
  6
EXLTYPE3
 62
     6
100
AcDbVertex
100
AcDb2dVertex
 10
397.3938129491879
 20
1130.776519163455
 30
0.0
  0
VERTEX
  5
1EE
330
1E7
100
AcDbEntity
  8
0
  6
EXLTYPE3
 62
     6
100
AcDbVertex
100
AcDb2dVertex
 10
396.4680678901849
 20
1129.826492031036
 30
0.0
  0
VERTEX
  5
1EF
330
1E7
100
AcDbEntity
  8
0
  6
EXLTYPE3
 62
     6
100
AcDbVertex
100
AcDb2dVertex
 10
395.457755497125
 20
1128.854080866197
 30
0.0
  0
VERTEX
  5
1F0
330
1E7
100
AcDbEntity
  8
0
  6
EXLTYPE3
 62
     6
100
AcDbVertex
100
AcDb2dVertex
 10
394.388705193653
 20
1127.905654731787
 30
0.0
  0
VERTEX
  5
1F1
330
1E7
100
AcDbEntity
  8
0
  6
EXLTYPE3
 62
     6
100
AcDbVertex
100
AcDb2dVertex
 10
393.2867464034165
 20
1127.027582690653
 30
0.0
  0
VERTEX
  5
1F2
330
1E7
100
AcDbEntity
  8
0
  6
EXLTYPE3
 62
     6
100
AcDbVertex
100
AcDb2dVertex
 10
392.1777085500602
 20
1126.266233805641
 30
0.0
  0
VERTEX
  5
1F3
330
1E7
100
AcDbEntity
  8
0
  6
EXLTYPE3
 62
     6
100
AcDbVertex
100
AcDb2dVertex
 10
391.0874210572309
 20
1125.6679771396
 30
0.0
  0
VERTEX
  5
1F4
330
1E7
100
AcDbEntity
  8
0
  6
EXLTYPE3
 62
     6
100
AcDbVertex
100
AcDb2dVertex
 10
389.4160695168342
 20
1125.119269586165
 30
0.0
  0
VERTEX
  5
1F5
330
1E7
100
AcDbEntity
  8
0
  6
EXLTYPE3
 62
     6
100
AcDbVertex
100
AcDb2dVertex
 10
387.8329412771212
 20
1125.03157392362
 30
0.0
  0
VERTEX
  5
1F6
330
1E7
100
AcDbEntity
  8
0
  6
EXLTYPE3
 62
     6
100
AcDbVertex
100
AcDb2dVertex
 10
386.3109610981327
 20
1125.324163661594
 30
0.0
  0
VERTEX
  5
1F7
330
1E7
100
AcDbEntity
  8
0
  6
EXLTYPE3
 62
     6
100
AcDbVertex
100
AcDb2dVertex
 10
384.8230537399103
 20
1125.916312309717
 30
0.0
  0
VERTEX
  5
1F8
330
1E7
100
AcDbEntity
  8
0
  6
EXLTYPE3
 62
     6
100
AcDbVertex
100
AcDb2dVertex
 10
383.3421439624934
 20
1126.727293377618
 30
0.0
  0
VERTEX
  5
1F9
330
1E7
100
AcDbEntity
  8
0
  6
EXLTYPE3
 62
     6
100
AcDbVertex
100
AcDb2dVertex
 10
381.8411565259252
 20
1127.676380374926
 30
0.0
  0
VERTEX
  5
1FA
330
1E7
100
AcDbEntity
  8
0
  6
EXLTYPE3
 62
     6
100
AcDbVertex
100
AcDb2dVertex
 10
380.2930161902444
 20
1128.682846811271
 30
0.0
  0
VERTEX
  5
1FB
330
1E7
100
AcDbEntity
  8
0
  6
EXLTYPE3
 62
     6
100
AcDbVertex
100
AcDb2dVertex
 10
378.6706477154943
 20
1129.665966196281
 30
0.0
  0
VERTEX
  5
1FC
330
1E7
100
AcDbEntity
  8
0
  6
EXLTYPE3
 62
     6
100
AcDbVertex
100
AcDb2dVertex
 10
376.946975861715
 20
1130.545012039586
 30
0.0
  0
VERTEX
  5
1FD
330
1E7
100
AcDbEntity
  8
0
  6
EXLTYPE3
 62
     6
100
AcDbVertex
100
AcDb2dVertex
 10
375.0949253889465
 20
1131.239257850817
 30
0.0
  0
VERTEX
  5
1FE
330
1E7
100
AcDbEntity
  8
0
  6
EXLTYPE3
 62
     6
100
AcDbVertex
100
AcDb2dVertex
 10
373.0874210572309
 20
1131.6679771396
 30
0.0
  0
VERTEX
  5
1FF
330
1E7
100
AcDbEntity
  8
0
  6
EXLTYPE3
 62
     6
100
AcDbVertex
100
AcDb2dVertex
 10
371.2207259618857
 20
1131.778397816058
 30
0.0
  0
VERTEX
  5
200
330
1E7
100
AcDbEntity
  8
0
  6
EXLTYPE3
 62
     6
100
AcDbVertex
100
AcDb2dVertex
 10
369.2726312011185
 20
1131.67388342885
 30
0.0
  0
VERTEX
  5
201
330
1E7
100
AcDbEntity
  8
0
  6
EXLTYPE3
 62
     6
100
AcDbVertex
100
AcDb2dVertex
 10
367.2977466394581
 20
1131.397505499556
 30
0.0
  0
VERTEX
  5
202
330
1E7
100
AcDbEntity
  8
0
  6
EXLTYPE3
 62
     6
100
AcDbVertex
100
AcDb2dVertex
 10
365.3506821414293
 20
1130.992335549755
 30
0.0
  0
VERTEX
  5
203
330
1E7
100
AcDbEntity
  8
0
  6
EXLTYPE3
 62
     6
100
AcDbVertex
100
AcDb2dVertex
 10
363.4860475715603
 20
1130.501445101026
 30
0.0
  0
VERTEX
  5
204
330
1E7
100
AcDbEntity
  8
0
  6
EXLTYPE3
 62
     6
100
AcDbVertex
100
AcDb2dVertex
 10
361.758452794379
 20
1129.967905674948
 30
0.0
  0
VERTEX
  5
205
330
1E7
100
AcDbEntity
  8
0
  6
EXLTYPE3
 62
     6
100
AcDbVertex
100
AcDb2dVertex
 10
360.2225076744115
 20
1129.434788793101
 30
0.0
  0
VERTEX
  5
206
330
1E7
100
AcDbEntity
  8
0
  6
EXLTYPE3
 62
     6
100
AcDbVertex
100
AcDb2dVertex
 10
358.9328220761857
 20
1128.945165977063
 30
0.0
  0
VERTEX
  5
207
330
1E7
100
AcDbEntity
  8
0
  6
EXLTYPE3
 62
     6
100
AcDbVertex
100
AcDb2dVertex
 10
357.9440058642289
 20
1128.542108748414
 30
0.0
  0
VERTEX
  5
208
330
1E7
100
AcDbEntity
  8
0
  6
EXLTYPE3
 62
     6
100
AcDbVertex
100
AcDb2dVertex
 10
357.3106689030682
 20
1128.268688628733
 30
0.0
  0
VERTEX
  5
209
330
1E7
100
AcDbEntity
  8
0
  6
EXLTYPE3
 62
     6
100
AcDbVertex
100
AcDb2dVertex
 10
357.1499984057394
 20
1128.196207010893
 30
0.0
  0
SEQEND
  5
20A
330
1E7
100
AcDbEntity
  8
0
  6
EXLTYPE3
 62
     6
  0
LINE
  5
20B
330
1F
100
AcDbEntity
  8
0
  6
CONTINUOUS
 62
     7
100
AcDbLine
 10
498.4999960000106
 20
1120.9999971396
 30
0.0
 11
399.8500014057425
 21
1120.9999971396
 31
0.0
  0
LINE
  5
20C
330
1F
100
AcDbEntity
  8
0
  6
CONTINUOUS
 62
     7
100
AcDbLine
 10
498.4999960000106
 20
1071.0000011396
 30
0.0
 11
399.8500014057425
 21
1071.0000011396
 31
0.0
  0
LINE
  5
20D
330
1F
100
AcDbEntity
  8
0
  6
CONTINUOUS
 62
     7
100
AcDbLine
 10
498.4999960000106
 20
1071.0000011396
 30
0.0
 11
498.4999960000106
 21
1120.9999971396
 31
0.0
  0
LINE
  5
20E
330
1F
100
AcDbEntity
  8
0
  6
CONTINUOUS
 62
     7
100
AcDbLine
 10
357.1500014057391
 20
1120.9999971396
 30
0.0
 11
198.4999960000101
 21
1120.9999971396
 31
0.0
  0
LINE
  5
20F
330
1F
100
AcDbEntity
  8
0
  6
CONTINUOUS
 62
     7
100
AcDbLine
 10
198.4999960000101
 20
1071.0000011396
 30
0.0
 11
198.4999960000101
 21
1120.9999971396
 31
0.0
  0
LINE
  5
210
330
1F
100
AcDbEntity
  8
0
  6
EXLTYPE2
 62
     4
100
AcDbLine
 10
378.5000000000101
 20
988.9999999999601
 30
0.0
 11
378.5000000000101
 21
1129.752993877702
 31
0.0
  0
LINE
  5
211
330
1F
100
AcDbEntity
  8
0
  6
CONTINUOUS
 62
     7
100
AcDbLine
 10
357.1500024719342
 20
1101.49999906656
 30
0.0
 11
357.1499984057394
 21
1128.196207010893
 31
0.0
  0
LINE
  5
212
330
1F
100
AcDbEntity
  8
0
  6
CONTINUOUS
 62
     7
100
AcDbLine
 10
399.8500022434645
 20
1101.499999066561
 30
0.0
 11
399.8499984057433
 21
1133.5679771396
 31
0.0
  0
LINE
  5
213
330
1F
100
AcDbEntity
  8
0
  6
CONTINUOUS
 62
     7
100
AcDbLine
 10
346.7625154823157
 20
1064.4999991396
 30
0.0
 11
346.7500014057403
 21
1064.4999991396
 31
0.0
  0
LINE
  5
214
330
1F
100
AcDbEntity
  8
0
  6
CONTINUOUS
 62
     7
100
AcDbLine
 10
357.1500014057391
 20
1074.49999921264
 30
0.0
 11
357.1500014057391
 21
1069.4999991396
 31
0.0
  0
LINE
  5
215
330
1F
100
AcDbEntity
  8
0
  6
CONTINUOUS
 62
     7
100
AcDbLine
 10
399.8500014057425
 20
1074.49999959513
 30
0.0
 11
399.8500014057425
 21
1069.4999991396
 31
0.0
  0
ARC
  5
216
330
1F
100
AcDbEntity
  8
0
  6
CONTINUOUS
 62
     7
100
AcDbCircle
 10
244.7500014057617
 20
1097.4999991396
 30
0.0
 40
3.000000000000001
100
AcDbArc
 50
90.00000000000001
 51
180.0
  0
LINE
  5
217
330
1F
100
AcDbEntity
  8
0
  6
CONTINUOUS
 62
     7
100
AcDbLine
 10
241.7500014057617
 20
1097.4999991396
 30
0.0
 11
241.7500014057617
 21
1078.4999991396
 31
0.0
  0
CIRCLE
  5
218
330
1F
100
AcDbEntity
  8
0
  6
CONTINUOUS
 62
     4
100
AcDbCircle
 10
305.5000000000011
 20
759.5000000000002
 30
0.0
 40
17.5
  0
TEXT
  5
219
330
1F
100
AcDbEntity
  8
0
  6
CONTINUOUS
 62
     6
100
AcDbText
 10
293.1256313323986
 20
750.4384552392348
 30
0.0
 40
19.29232381794281
  1
éT
 41
1.50860598136615
  7
EXCADSTD
 72
     5
 11
313.9145706939709
 21
750.4384552392348
 31
0.0
100
AcDbText
  0
LEADER
  5
21A
330
1F
100
AcDbEntity
  8
0
  6
CONTINUOUS
 62
     4
100
AcDbLeader
  3
ISO-25
 76
     2
 10
353.4999999999988
 20
688.9999999999983
 30
0.0
 10
315.348842098936
 20
745.0345131671886
 30
0.0
1001
ACAD
1000
DSTYLE
1002
{
1070
     5
1000
EX_NORM
1070
    41
1040
15.0
1070
   341
1005
76
1002
}
  0
DIMENSION
  5
21C
330
1F
100
AcDbEntity
  8
0
  6
CONTINUOUS
 62
     2
100
AcDbDimension
  2
*D15
 10
557.0
 20
567.3300049999901
 30
0.0
 11
545.2500000000003
 21
594.83000499999
 31
0.0
 70
   160
 53
90.00000000000001
  3
ISO-25
100
AcDbAlignedDimension
 13
445.0999960000099
 23
617.3300049999901
 33
0.0
 14
498.49999600001
 24
567.3300049999901
 34
0.0
 50
90.0
100
AcDbRotatedDimension
1001
ACAD
1000
DSTYLE
1002
{
1070
   270
1070
     2
1070
     6
1000
EX_NORM
1070
     7
1000
EX_NORM
1070
    41
1040
15.0
1070
    42
1040
7.5
1070
    44
1040
7.5
1070
    73
1070
     0
1070
    74
1070
     0
1070
    75
1070
     0
1070
    76
1070
     0
1070
    77
1070
     1
1070
    78
1070
     8
1070
   140
1040
12.8622054
1070
   147
1040
0.0
1070
   173
1070
     1
1070
   176
1070
     2
1070
   177
1070
     2
1070
   178
1070
     2
1070
   271
1070
     1
1070
   277
1070
     2
1070
   279
1070
     2
1070
   280
1070
     0
1070
   287
1070
     5
1070
   340
1005
21B
1002
}
  0
DIMENSION
  5
22A
330
1F
100
AcDbEntity
  8
0
  6
CONTINUOUS
 62
     2
100
AcDbDimension
  2
*D16
 10
557.0
 20
567.3300049999901
 30
0.0
 11
545.75
 21
542.3300064999901
 31
0.0
 70
   160
  3
ISO-25
100
AcDbAlignedDimension
 13
498.49999600001
 23
517.3300079999901
 33
0.0
 14
557.0
 24
567.3300049999901
 34
0.0
 50
90.0
100
AcDbRotatedDimension
1001
ACAD
1000
DSTYLE
1002
{
1070
   270
1070
     2
1070
     6
1000
EX_NORM
1070
     7
1000
EX_NORM
1070
    41
1040
15.0
1070
    42
1040
7.5
1070
    44
1040
7.5
1070
    73
1070
     0
1070
    74
1070
     0
1070
    75
1070
     0
1070
    76
1070
     1
1070
    77
1070
     1
1070
    78
1070
     8
1070
   140
1040
12.8622054
1070
   147
1040
0.0
1070
   173
1070
     1
1070
   176
1070
     2
1070
   177
1070
     2
1070
   178
1070
     2
1070
   271
1070
     1
1070
   277
1070
     2
1070
   279
1070
     2
1070
   280
1070
     0
1070
   287
1070
     5
1070
   340
1005
21B
1002
}
  0
DIMENSION
  5
236
330
1F
100
AcDbEntity
  8
0
  6
CONTINUOUS
 62
     2
100
AcDbDimension
  2
*D17
 10
557.0
 20
617.3300049999901
 30
0.0
 11
545.7500000000001
 21
705.8300033430701
 31
0.0
 70
   160
  3
ISO-25
100
AcDbAlignedDimension
 13
395.5000030598401
 23
794.3300016861501
 33
0.0
 14
557.0
 24
617.3300049999901
 34
0.0
 50
90.0
100
AcDbRotatedDimension
1001
ACAD
1000
DSTYLE
1002
{
1070
   270
1070
     2
1070
     6
1000
EX_NORM
1070
     7
1000
EX_NORM
1070
    41
1040
15.0
1070
    42
1040
3.499999940395412
1070
    44
1040
7.5
1070
    73
1070
     0
1070
    74
1070
     0
1070
    75
1070
     0
1070
    76
1070
     1
1070
    77
1070
     1
1070
    78
1070
     8
1070
   140
1040
12.8622054
1070
   147
1040
0.0
1070
   173
1070
     1
1070
   176
1070
     2
1070
   177
1070
     2
1070
   178
1070
     2
1070
   271
1070
     1
1070
   277
1070
     2
1070
   279
1070
     2
1070
   280
1070
     0
1070
   287
1070
     5
1070
   340
1005
21B
1002
}
  0
DIMENSION
  5
242
330
1F
100
AcDbEntity
  8
0
  6
CONTINUOUS
 62
     2
100
AcDbDimension
  2
*D18
 10
378.50000000001
 20
846.5000040000002
 30
0.0
 11
320.9999975000052
 21
857.7500040000002
 31
0.0
 70
   160
  3
ISO-25
100
AcDbAlignedDimension
 13
263.4999950000001
 23
635.6699920000099
 33
0.0
 14
378.50000000001
 24
794.3300016861502
 34
0.0
100
AcDbRotatedDimension
1001
ACAD
1000
DSTYLE
1002
{
1070
   270
1070
     2
1070
     6
1000
EX_NORM
1070
     7
1000
EX_NORM
1070
    41
1040
15.0
1070
    42
1040
33.3299994468689
1070
    44
1040
7.5
1070
    73
1070
     0
1070
    74
1070
     0
1070
    75
1070
     0
1070
    76
1070
     0
1070
    77
1070
     1
1070
    78
1070
     8
1070
   140
1040
12.8622054
1070
   147
1040
0.0
1070
   173
1070
     1
1070
   176
1070
     2
1070
   177
1070
     2
1070
   178
1070
     2
1070
   271
1070
     1
1070
   277
1070
     2
1070
   279
1070
     2
1070
   280
1070
     0
1070
   287
1070
     5
1070
   340
1005
21B
1002
}
  0
DIMENSION
  5
24F
330
1F
100
AcDbEntity
  8
0
  6
CONTINUOUS
 62
     2
100
AcDbDimension
  2
*D19
 10
378.50000000001
 20
846.5000040000002
 30
0.0
 11
428.5000025830034
 21
857.7500040000002
 31
0.0
 70
   160
  3
ISO-25
100
AcDbAlignedDimension
 13
395.5000030598401
 23
794.3300016861502
 33
0.0
 14
378.50000000001
 24
820.5000040000002
 34
0.0
100
AcDbRotatedDimension
1001
ACAD
1000
DSTYLE
1002
{
1070
   270
1070
     2
1070
     6
1000
EX_NORM
1070
     7
1000
EX_NORM
1070
    41
1040
15.0
1070
    42
1040
2.669999897480011
1070
    44
1040
7.5
1070
    73
1070
     0
1070
    74
1070
     0
1070
    75
1070
     0
1070
    76
1070
     0
1070
    77
1070
     1
1070
    78
1070
     8
1070
   140
1040
12.8622054
1070
   147
1040
0.0
1070
   173
1070
     1
1070
   176
1070
     2
1070
   177
1070
     2
1070
   178
1070
     2
1070
   271
1070
     1
1070
   277
1070
     2
1070
   279
1070
     2
1070
   280
1070
     1
1070
   287
1070
     5
1070
   340
1005
21B
1002
}
  0
LINE
  5
25E
330
1F
100
AcDbEntity
  8
0
  6
CONTINUOUS
 62
     7
100
AcDbLine
 10
409.0325284022308
 20
567.3300049999937
 30
0.0
 11
401.0325284022279
 21
567.3300049999937
 31
0.0
  0
LINE
  5
25F
330
1F
100
AcDbEntity
  8
0
  6
CONTINUOUS
 62
     7
100
AcDbLine
 10
400.9999999999948
 20
567.3279877085904
 30
0.0
 11
409.0000000000048
 21
567.3279877085904
 31
0.0
  0
LINE
  5
260
330
1F
100
AcDbEntity
  8
0
  6
CONTINUOUS
 62
     7
100
AcDbLine
 10
356.0325284022333
 20
567.3300049999935
 30
0.0
 11
348.0325284022306
 21
567.3300049999937
 31
0.0
  0
LINE
  5
261
330
1F
100
AcDbEntity
  8
0
  6
CONTINUOUS
 62
     7
100
AcDbLine
 10
356.0000000000048
 20
567.3279877085904
 30
0.0
 11
348.0000000000048
 21
567.3279877085904
 31
0.0
  0
LINE
  5
262
330
1F
100
AcDbEntity
  8
0
  6
EXLTYPE2
 62
     4
100
AcDbLine
 10
445.0999960000147
 20
617.3300049999901
 30
0.0
 11
378.5000000000045
 21
617.3300049999901
 31
0.0
  0
LINE
  5
263
330
1F
100
AcDbEntity
  8
0
  6
CONTINUOUS
 62
     7
100
AcDbLine
 10
498.4999960000143
 20
567.3300049999901
 30
0.0
 11
498.4999960000143
 21
517.3300079999901
 31
0.0
  0
LINE
  5
264
330
1F
100
AcDbEntity
  8
0
  6
CONTINUOUS
 62
     7
100
AcDbLine
 10
498.4999960000143
 20
517.3300079999901
 30
0.0
 11
198.4999960000016
 21
517.3300079999907
 31
0.0
  0
LINE
  5
265
330
1F
100
AcDbEntity
  8
0
  6
CONTINUOUS
 62
     7
100
AcDbLine
 10
198.4999960000016
 20
567.3300049999901
 30
0.0
 11
198.4999960000016
 21
517.3300079999902
 31
0.0
  0
LINE
  5
266
330
1F
100
AcDbEntity
  8
0
  6
CONTINUOUS
 62
     7
100
AcDbLine
 10
198.4999960000148
 20
561.3300049999901
 30
0.0
 11
498.4999960000143
 21
561.3300049999899
 31
0.0
  0
LINE
  5
267
330
1F
100
AcDbEntity
  8
0
  6
EXLTYPE2
 62
     4
100
AcDbLine
 10
378.5000000000075
 20
794.3300016861501
 30
0.0
 11
378.5000000000075
 21
474.4300079999905
 31
0.0
  0
LINE
  5
268
330
1F
100
AcDbEntity
  8
0
  6
CONTINUOUS
 62
     7
100
AcDbLine
 10
365.5000027711133
 20
794.3300006861305
 30
0.0
 11
395.5000030598339
 21
794.33000068613
 31
0.0
  0
CIRCLE
  5
269
330
1F
100
AcDbEntity
  8
0
  6
CONTINUOUS
 62
     7
100
AcDbCircle
 10
378.5
 20
617.33000499999
 30
0.0
 40
21.35
  0
LINE
  5
26A
330
1F
100
AcDbEntity
  8
0
  6
CONTINUOUS
 62
     7
100
AcDbLine
 10
198.4999960000148
 20
567.3300049999901
 30
0.0
 11
498.4999960000143
 21
567.3300049999901
 31
0.0
  0
LINE
  5
26B
330
1F
100
AcDbEntity
  8
0
  6
EXLTYPE2
 62
     4
100
AcDbLine
 10
263.5000000000023
 20
662.7241581958699
 30
0.0
 11
263.5000000000023
 21
564.8299937183203
 31
0.0
  0
LINE
  5
26C
330
1F
100
AcDbEntity
  8
0
  6
EXLTYPE2
 62
     4
100
AcDbLine
 10
378.5000000000045
 20
617.3300049999901
 30
0.0
 11
235.0
 21
617.3300049999901
 31
0.0
  0
CIRCLE
  5
26D
330
1F
100
AcDbEntity
  8
0
  6
CONTINUOUS
 62
     4
100
AcDbCircle
 10
497.5
 20
762.0
 30
0.0
 40
17.5
  0
TEXT
  5
26E
330
1F
100
AcDbEntity
  8
0
  6
CONTINUOUS
 62
     6
100
AcDbText
 10
485.1256313323975
 20
752.9384552392346
 30
0.0
 40
19.29232381794281
  1
éX
 41
1.50860598136615
  7
EXCADSTD
 72
     5
 11
505.9145706939697
 21
752.9384552392346
 31
0.0
100
AcDbText
  0
LEADER
  5
26F
330
1F
100
AcDbEntity
  8
0
  6
CONTINUOUS
 62
     4
100
AcDbLeader
  3
ISO-25
 76
     2
 10
437.83410762731
 20
629.33000810224
 30
0.0
 10
490.3221802105848
 20
746.0397712086988
 30
0.0
1001
ACAD
1000
DSTYLE
1002
{
1070
     5
1000
EX_NORM
1070
    41
1040
15.0
1070
   341
1005
76
1002
}
  0
LEADER
  5
270
330
1F
100
AcDbEntity
  8
0
  6
CONTINUOUS
 62
     4
100
AcDbLeader
  3
ISO-25
 76
     2
 10
252.5304999999987
 20
654.1930049999883
 30
0.0
 10
204.3384762794447
 20
743.1142984125796
 30
0.0
1001
ACAD
1000
DSTYLE
1002
{
1070
     5
1000
EX_NORM
1070
    41
1040
15.0
1070
   341
1005
76
1002
}
  0
CIRCLE
  5
271
330
1F
100
AcDbEntity
  8
0
  6
CONTINUOUS
 62
     4
100
AcDbCircle
 10
196.0000000000011
 20
758.5000000000002
 30
0.0
 40
17.5
  0
TEXT
  5
272
330
1F
100
AcDbEntity
  8
0
  6
CONTINUOUS
 62
     6
100
AcDbText
 10
183.6256313323986
 20
749.4384552392348
 30
0.0
 40
19.29232381794281
  1
éPéP
 41
0.7510376097710273
  7
EXCADSTD
 72
     5
 11
206.3944696807873
 21
749.4384552392348
 31
0.0
100
AcDbText
  0
TEXT
  5
273
330
1F
100
AcDbEntity
  8
0
  6
CONTINUOUS
 62
     6
100
AcDbText
 10
746.9499900000096
 20
882.7086606956849
 30
0.0
 40
12.8622054
  1
ébéÅéÆéÄéģéÆéōü@éqéT
 41
1.633797364807718
  7
EXCADSTD
 72
     5
 11
924.0699900000096
 21
882.7086606956849
 31
0.0
100
AcDbText
  0
LEADER
  5
274
330
1F
100
AcDbEntity
  8
0
  6
CONTINUOUS
 62
     4
100
AcDbLeader
  3
ISO-25
 76
     3
 10
977.8499950000098
 20
794.3300016860802
 30
0.0
 10
929.7499900000096
 20
878.9999986860803
 30
0.0
 10
744.1499900000097
 20
878.9999986860803
 30
0.0
1001
ACAD
1000
DSTYLE
1002
{
1070
     5
1000
EX_NORM
1070
    41
1040
15.0
1070
   341
1005
76
1002
}
  0
CIRCLE
  5
275
330
1F
100
AcDbEntity
  8
0
  6
CONTINUOUS
 62
     4
100
AcDbCircle
 10
1307.350000000019
 20
833.0000020000003
 30
0.0
 40
17.5
  0
TEXT
  5
276
330
1F
100
AcDbEntity
  8
0
  6
CONTINUOUS
 62
     6
100
AcDbText
 10
1298.483517362308
 20
823.9384572392349
 30
0.0
 40
19.29232381794281
  1
1
 41
1.388407309993673
  7
EXCADSTD
 72
     5
 11
1312.514071532383
 21
823.9384572392349
 31
0.0
100
AcDbText
  0
LEADER
  5
277
330
1F
100
AcDbEntity
  8
0
  6
CONTINUOUS
 62
     4
100
AcDbLeader
  3
ISO-25
 76
     2
 10
1338.849990000018
 20
794.5000020000001
 30
0.0
 10
1318.431659222211
 20
819.4557475397797
 30
0.0
1001
ACAD
1000
DSTYLE
1002
{
1070
     5
1000
EX_NORM
1070
    41
1040
15.0
1070
   341
1005
76
1002
}
  0
CIRCLE
  5
278
330
1F
100
AcDbEntity
  8
0
  6
CONTINUOUS
 62
     4
100
AcDbCircle
 10
1223.350000000019
 20
833.0000020000004
 30
0.0
 40
17.5
  0
TEXT
  5
279
330
1F
100
AcDbEntity
  8
0
  6
CONTINUOUS
 62
     6
100
AcDbText
 10
1210.975631332416
 20
823.938457239235
 30
0.0
 40
19.29232381794281
  1
éQ
 41
1.508605981366158
  7
EXCADSTD
 72
     5
 11
1231.764570693989
 21
823.938457239235
 31
0.0
100
AcDbText
  0
LEADER
  5
27A
330
1F
100
AcDbEntity
  8
0
  6
CONTINUOUS
 62
     4
100
AcDbLeader
  3
ISO-25
 76
     2
 10
1265.55000000001
 20
760.4500010000045
 30
0.0
 10
1232.148938119695
 20
817.8729174175002
 30
0.0
1001
ACAD
1000
DSTYLE
1002
{
1070
     5
1000
EX_NORM
1070
    41
1040
15.0
1070
   341
1005
76
1002
}
  0
CIRCLE
  5
27B
330
1F
100
AcDbEntity
  8
0
  6
CONTINUOUS
 62
     4
100
AcDbCircle
 10
1132.350000000018
 20
835.5000020000002
 30
0.0
 40
17.5
  0
TEXT
  5
27C
330
1F
100
AcDbEntity
  8
0
  6
CONTINUOUS
 62
     6
100
AcDbText
 10
1119.975631332416
 20
826.4384572392348
 30
0.0
 40
19.29232381794281
  1
éR
 41
1.508605981366158
  7
EXCADSTD
 72
     5
 11
1140.764570693988
 21
826.4384572392348
 31
0.0
100
AcDbText
  0
LEADER
  5
27D
330
1F
100
AcDbEntity
  8
0
  6
CONTINUOUS
 62
     4
100
AcDbLeader
  3
ISO-25
 76
     2
 10
1164.35000000002
 20
753.5000009999977
 30
0.0
 10
1138.711993431609
 20
819.1973936327361
 30
0.0
1001
ACAD
1000
DSTYLE
1002
{
1070
     5
1000
EX_NORM
1070
    41
1040
15.0
1070
   341
1005
76
1002
}
  0
TEXT
  5
27E
330
1F
100
AcDbEntity
  8
0
  6
CONTINUOUS
 62
     6
100
AcDbText
 10
1878.752619931356
 20
662.3086620096045
 30
0.0
 40
12.8622054
  1
éQü|āėéPéTāLāŖ
 41
1.634283324761558
  7
EXCADSTD
 72
     5
 11
2001.872619931356
 21
662.3086620096045
 31
0.0
100
AcDbText
  0
LEADER
  5
27F
330
1F
100
AcDbEntity
  8
0
  6
CONTINUOUS
 62
     4
100
AcDbLeader
  3
ISO-25
 76
     3
 10
1862.435440238181
 20
623.9174625357861
 30
0.0
 10
1882.000000000013
 20
659.4999999999974
 30
0.0
 10
1998.6052398627
 20
659.5000000000002
 30
0.0
1001
ACAD
1000
DSTYLE
1002
{
1070
     5
1000
EX_NORM
1070
    41
1040
15.0
1070
   341
1005
76
1002
}
  0
CIRCLE
  5
280
330
1F
100
AcDbEntity
  8
0
  6
CONTINUOUS
 62
     4
100
AcDbCircle
 10
865.5000000000007
 20
834.5000000000005
 30
0.0
 40
17.5
  0
TEXT
  5
281
330
1F
100
AcDbEntity
  8
0
  6
CONTINUOUS
 62
     6
100
AcDbText
 10
853.1256313323981
 20
825.438455239235
 30
0.0
 40
19.29232381794281
  1
éU
 41
1.50860598136615
  7
EXCADSTD
 72
     5
 11
873.9145706939704
 21
825.438455239235
 31
0.0
100
AcDbText
  0
LEADER
  5
282
330
1F
100
AcDbEntity
  8
0
  6
CONTINUOUS
 62
     4
100
AcDbLeader
  3
ISO-25
 76
     2
 10
941.3500000000033
 20
639.0000010000027
 30
0.0
 10
871.8299204851619
 20
818.1849116872902
 30
0.0
1001
ACAD
1000
DSTYLE
1002
{
1070
     5
1000
EX_NORM
1070
    41
1040
15.0
1070
   341
1005
76
1002
}
  0
CIRCLE
  5
283
330
1F
100
AcDbEntity
  8
0
  6
CONTINUOUS
 62
     4
100
AcDbCircle
 10
1024.350010000001
 20
835.5000020000002
 30
0.0
 40
17.5
  0
TEXT
  5
284
330
1F
100
AcDbEntity
  8
0
  6
CONTINUOUS
 62
     6
100
AcDbText
 10
1011.975641332398
 20
826.4384572392348
 30
0.0
 40
19.29232381794281
  1
éS
 41
1.508605981366158
  7
EXCADSTD
 72
     5
 11
1032.76458069397
 21
826.4384572392348
 31
0.0
100
AcDbText
  0
LEADER
  5
285
330
1F
100
AcDbEntity
  8
0
  6
CONTINUOUS
 62
     4
100
AcDbLeader
  3
ISO-25
 76
     2
 10
1062.849999999995
 20
751.0000009999955
 30
0.0
 10
1031.605756132349
 20
819.5750483717188
 30
0.0
1001
ACAD
1000
DSTYLE
1002
{
1070
     5
1000
EX_NORM
1070
    41
1040
15.0
1070
   341
1005
76
1002
}
  0
LINE
  5
286
330
1F
100
AcDbEntity
  8
0
  6
CONTINUOUS
 62
     2
100
AcDbLine
 10
977.8499950000099
 20
801.8300016860801
 30
0.0
 11
977.8499950000099
 21
884.0000030000002
 31
0.0
  0
LINE
  5
287
330
1F
100
AcDbEntity
  8
0
  6
CONTINUOUS
 62
     2
100
AcDbLine
 10
1582.849995
 20
801.8300016860902
 30
0.0
 11
1582.849995
 21
884.0000030000002
 31
0.0
  0
LINE
  5
288
330
1F
100
AcDbEntity
  8
0
  6
CONTINUOUS
 62
     2
100
AcDbLine
 10
977.8499950000099
 20
876.5000030000002
 30
0.0
 11
1582.849995
 21
876.5000030000002
 31
0.0
  0
LINE
  5
289
330
1F
100
AcDbEntity
  8
0
  6
CONTINUOUS
 62
     2
100
AcDbLine
 10
992.8499950000098
 20
879.0000030000002
 30
0.0
 11
977.8499950000098
 21
876.5000030000002
 31
0.0
  0
LINE
  5
28A
330
1F
100
AcDbEntity
  8
0
  6
CONTINUOUS
 62
     2
100
AcDbLine
 10
977.8499950000098
 20
876.5000030000002
 30
0.0
 11
992.8499950000098
 21
874.0000030000002
 31
0.0
  0
LINE
  5
28B
330
1F
100
AcDbEntity
  8
0
  6
CONTINUOUS
 62
     2
100
AcDbLine
 10
1567.849995
 20
874.0000030000002
 30
0.0
 11
1582.849995
 21
876.5000030000002
 31
0.0
  0
LINE
  5
28C
330
1F
100
AcDbEntity
  8
0
  6
CONTINUOUS
 62
     2
100
AcDbLine
 10
1582.849995
 20
876.5000030000002
 30
0.0
 11
1567.849995
 21
879.0000030000002
 31
0.0
  0
LINE
  5
28D
330
1F
100
AcDbEntity
  8
0
  6
CONTINUOUS
 62
     2
100
AcDbLine
 10
1582.849995
 20
869.0000030000002
 30
0.0
 11
1582.849995
 21
827.5000030000001
 31
0.0
  0
DIMENSION
  5
28E
330
1F
100
AcDbEntity
  8
0
  6
CONTINUOUS
 62
     2
100
AcDbDimension
  2
*D20
 10
656.3499999999999
 20
638.6800049999902
 30
0.0
 11
645.1
 21
694.1800039271064
 31
0.0
 70
   160
  1
%%c<>
  3
ISO-25
100
AcDbAlignedDimension
 13
687.8499939999998
 23
595.9800049999901
 33
0.0
 14
687.8499939999998
 24
638.6800049999902
 34
0.0
 50
90.0
100
AcDbRotatedDimension
1001
ACAD
1000
DSTYLE
1002
{
1070
   270
1070
     2
1070
     6
1000
EX_NORM
1070
     7
1000
EX_NORM
1070
    41
1040
15.0
1070
    42
1040
7.5
1070
    44
1040
7.5
1070
    73
1070
     0
1070
    74
1070
     0
1070
    75
1070
     0
1070
    76
1070
     0
1070
    77
1070
     1
1070
    78
1070
     8
1070
   140
1040
12.8622054
1070
   147
1040
0.0
1070
   173
1070
     1
1070
   176
1070
     2
1070
   177
1070
     2
1070
   178
1070
     2
1070
   271
1070
     1
1070
   277
1070
     2
1070
   279
1070
     2
1070
   280
1070
     2
1070
   287
1070
     5
1070
   340
1005
21B
1002
}
  0
LEADER
  5
29B
330
1F
100
AcDbEntity
  8
0
  6
CONTINUOUS
 62
     4
100
AcDbLeader
  3
ISO-25
 76
     2
 10
814.3500000000001
 20
542.5000020000002
 30
0.0
 10
849.4119921287162
 20
492.7997236752644
 30
0.0
1001
ACAD
1000
DSTYLE
1002
{
1070
     5
1000
EX_NORM
1070
    41
1040
15.0
1070
   341
1005
76
1002
}
  0
CIRCLE
  5
29C
330
1F
100
AcDbEntity
  8
0
  6
CONTINUOUS
 62
     4
100
AcDbCircle
 10
859.5
 20
478.5000000000001
 30
0.0
 40
17.5
  0
TEXT
  5
29D
330
1F
100
AcDbEntity
  8
0
  6
CONTINUOUS
 62
     6
100
AcDbText
 10
847.1256313323975
 20
469.4384552392347
 30
0.0
 40
19.29232381794281
  1
éPéO
 41
0.7510376097710292
  7
EXCADSTD
 72
     5
 11
869.8944696807862
 21
469.4384552392347
 31
0.0
100
AcDbText
  0
LINE
  5
29E
330
1F
100
AcDbEntity
  8
0
  6
CONTINUOUS
 62
     7
100
AcDbLine
 10
977.8499950000105
 20
794.3300016860841
 30
0.0
 11
1077.84999500001
 21
794.3300016860854
 31
0.0
  0
LINE
  5
29F
330
1F
100
AcDbEntity
  8
0
  6
CONTINUOUS
 62
     7
100
AcDbLine
 10
1078.84999500001
 20
794.3300016860841
 30
0.0
 11
1178.84999500001
 21
794.3300016860854
 31
0.0
  0
LINE
  5
2A0
330
1F
100
AcDbEntity
  8
0
  6
CONTINUOUS
 62
     7
100
AcDbLine
 10
1381.84999500001
 20
794.3300016860841
 30
0.0
 11
1481.84999500001
 21
794.3300016860854
 31
0.0
  0
LINE
  5
2A1
330
1F
100
AcDbEntity
  8
0
  6
CONTINUOUS
 62
     7
100
AcDbLine
 10
1482.849995
 20
794.3300016860841
 30
0.0
 11
1582.849995
 21
794.3300016860854
 31
0.0
  0
LINE
  5
2A2
330
1F
100
AcDbEntity
  8
0
  6
CONTINUOUS
 62
     7
100
AcDbLine
 10
1179.84999500001
 20
794.3300016860841
 30
0.0
 11
1268.381498424957
 21
794.3300016860853
 31
0.0
  0
LINE
  5
2A3
330
1F
100
AcDbEntity
  8
0
  6
CONTINUOUS
 62
     7
100
AcDbLine
 10
1284.359499306421
 20
794.3300016860841
 30
0.0
 11
1380.84999500001
 21
794.3300016860854
 31
0.0
  0
TEXT
  5
2A4
330
1F
100
AcDbEntity
  8
0
  6
CONTINUOUS
 62
     6
100
AcDbText
 10
754.6379890000096
 20
860.7386626360801
 30
0.0
 40
12.8622054
  1
Ś╝ü@Æ[
 41
1.636532080626382
  7
EXCADSTD
 72
     5
 11
805.7579890000096
 21
860.7386626360801
 31
0.0
100
AcDbText
  0
LINE
  5
2A5
330
1F
100
AcDbEntity
  8
0
  6
CONTINUOUS
 62
     7
100
AcDbLine
 10
815.3499949999998
 20
567.3300050000018
 30
0.0
 11
815.3499950000007
 21
517.3300050000018
 31
0.0
  0
LINE
  5
2A6
330
1F
100
AcDbEntity
  8
0
  6
CONTINUOUS
 62
     7
100
AcDbLine
 10
765.3499949999998
 20
567.3300050000009
 30
0.0
 11
765.3499949999998
 21
565.8300050000009
 31
0.0
  0
ARC
  5
2A7
330
1F
100
AcDbEntity
  8
0
  6
CONTINUOUS
 62
     7
100
AcDbCircle
 10
769.8499949999996
 20
565.8300050000009
 30
0.0
 40
4.5
100
AcDbArc
 50
180.0
 51
270.0000000000015
  0
LINE
  5
2A8
330
1F
100
AcDbEntity
  8
0
  6
CONTINUOUS
 62
     7
100
AcDbLine
 10
815.3499950000007
 20
517.3300050000018
 30
0.0
 11
813.849995000001
 21
517.3300050000017
 31
0.0
  0
ARC
  5
2A9
330
1F
100
AcDbEntity
  8
0
  6
CONTINUOUS
 62
     7
100
AcDbCircle
 10
813.8499950000005
 20
521.8300050000017
 30
0.0
 40
4.5
100
AcDbArc
 50
180.0
 51
270.0000000000007
  0
LINE
  5
2AA
330
1F
100
AcDbEntity
  8
0
  6
CONTINUOUS
 62
     7
100
AcDbLine
 10
809.349995
 20
554.8300050000017
 30
0.0
 11
809.3499950000005
 21
521.8300050000017
 31
0.0
  0
ARC
  5
2AB
330
1F
100
AcDbEntity
  8
0
  6
CONTINUOUS
 62
     7
100
AcDbCircle
 10
802.849995
 20
554.8300050000016
 30
0.0
 40
6.500000000000004
100
AcDbArc
 50
0.000000000000974
 51
90.000000000001
  0
LINE
  5
2AC
330
1F
100
AcDbEntity
  8
0
  6
CONTINUOUS
 62
     7
100
AcDbLine
 10
802.8499949999998
 20
561.3300050000016
 30
0.0
 11
769.8499949999996
 21
561.3300050000009
 31
0.0
  0
LINE
  5
2AD
330
1F
100
AcDbEntity
  8
0
  6
CONTINUOUS
 62
     7
100
AcDbLine
 10
1745.349995
 20
567.3300050000018
 30
0.0
 11
1745.349994999999
 21
517.3300050000018
 31
0.0
  0
LINE
  5
2AE
330
1F
100
AcDbEntity
  8
0
  6
CONTINUOUS
 62
     7
100
AcDbLine
 10
1745.349994999999
 20
517.3300050000018
 30
0.0
 11
1746.849994999999
 21
517.3300050000017
 31
0.0
  0
ARC
  5
2AF
330
1F
100
AcDbEntity
  8
0
  6
CONTINUOUS
 62
     7
100
AcDbCircle
 10
1746.849994999999
 20
521.8300050000017
 30
0.0
 40
4.5
100
AcDbArc
 50
270.0
 51
0.0
  0
LINE
  5
2B0
330
1F
100
AcDbEntity
  8
0
  6
CONTINUOUS
 62
     7
100
AcDbLine
 10
1751.349995
 20
554.8300050000017
 30
0.0
 11
1751.349994999999
 21
521.8300050000017
 31
0.0
  0
ARC
  5
2B1
330
1F
100
AcDbEntity
  8
0
  6
CONTINUOUS
 62
     7
100
AcDbCircle
 10
1757.849995
 20
554.8300050000016
 30
0.0
 40
6.500000000000004
100
AcDbArc
 50
90.00000000000001
 51
179.999999999999
  0
ARC
  5
2B2
330
1F
100
AcDbEntity
  8
0
  6
CONTINUOUS
 62
     7
100
AcDbCircle
 10
1790.849995
 20
565.8300050000009
 30
0.0
 40
4.5
100
AcDbArc
 50
269.9999999999972
 51
0.0
  0
LINE
  5
2B3
330
1F
100
AcDbEntity
  8
0
  6
CONTINUOUS
 62
     7
100
AcDbLine
 10
1757.849995
 20
561.3300050000016
 30
0.0
 11
1790.849995
 21
561.3300050000009
 31
0.0
  0
LINE
  5
2B4
330
1F
100
AcDbEntity
  8
0
  6
CONTINUOUS
 62
     7
100
AcDbLine
 10
1795.349995
 20
567.3300050000009
 30
0.0
 11
1795.349995
 21
565.8300050000009
 31
0.0
  0
LINE
  5
2B5
330
1F
100
AcDbEntity
  8
0
  6
CONTINUOUS
 62
     7
100
AcDbLine
 10
1764.849995
 20
657.3300049999901
 30
0.0
 11
1764.849995
 21
567.3300050000009
 31
0.0
  0
LINE
  5
2B6
330
1F
100
AcDbEntity
  8
0
  6
EXLTYPE1
 62
     3
100
AcDbLine
 10
1278.349995000032
 20
677.5002595569384
 30
0.0
 11
1278.349995000032
 21
680.3896010156778
 31
0.0
  0
LINE
  5
2B7
330
1F
100
AcDbEntity
  8
0
  6
CONTINUOUS
 62
     7
100
AcDbLine
 10
1764.849995
 20
595.980005
 30
0.0
 11
1301.712880227789
 21
595.980005
 31
0.0
  0
LINE
  5
2B8
330
1F
100
AcDbEntity
  8
0
  6
CONTINUOUS
 62
     7
100
AcDbLine
 10
795.8499950000028
 20
657.3300050000037
 30
0.0
 11
795.8499950000003
 21
567.3300050000145
 31
0.0
  0
LINE
  5
2B9
330
1F
100
AcDbEntity
  8
0
  6
CONTINUOUS
 62
     7
100
AcDbLine
 10
795.8499950000012
 20
595.9800049999914
 30
0.0
 11
1285.734880113959
 21
595.980005
 31
0.0
  0
LINE
  5
2BA
330
1F
100
AcDbEntity
  8
0
  6
CONTINUOUS
 62
     7
100
AcDbLine
 10
687.8499939999983
 20
638.6800049999895
 30
0.0
 11
686.8499939999986
 21
637.6800049999895
 31
0.0
  0
LINE
  5
2BB
330
1F
100
AcDbEntity
  8
0
  6
CONTINUOUS
 62
     7
100
AcDbLine
 10
686.8499939999995
 20
596.9800049999882
 30
0.0
 11
686.8499939999986
 21
637.6800049999895
 31
0.0
  0
LINE
  5
2BC
330
1F
100
AcDbEntity
  8
0
  6
EXLTYPE2
 62
     4
100
AcDbLine
 10
701.8499929999987
 20
630.7660789999895
 30
0.0
 11
701.8499929999994
 21
601.5732299999894
 31
0.0
  0
CIRCLE
  5
2BD
330
1F
100
AcDbEntity
  8
0
  6
CONTINUOUS
 62
     7
100
AcDbCircle
 10
701.8499929999987
 20
617.3300049999896
 30
0.0
 40
7.500000000000004
  0
LINE
  5
2BE
330
1F
100
AcDbEntity
  8
0
  6
CONTINUOUS
 62
     7
100
AcDbLine
 10
687.8499939999995
 20
595.9800049999892
 30
0.0
 11
686.8499939999995
 21
596.9800049999892
 31
0.0
  0
LINE
  5
2BF
330
1F
100
AcDbEntity
  8
0
  6
EXLTYPE2
 62
     4
100
AcDbLine
 10
677.9499949999993
 20
617.3300049999891
 30
0.0
 11
1283.866996548291
 21
617.3300050000004
 31
0.0
  0
LINE
  5
2C0
330
1F
100
AcDbEntity
  8
0
  6
CONTINUOUS
 62
     7
100
AcDbLine
 10
1872.849996
 20
638.6800050000002
 30
0.0
 11
1873.849996
 21
637.6800050000002
 31
0.0
  0
LINE
  5
2C1
330
1F
100
AcDbEntity
  8
0
  6
CONTINUOUS
 62
     7
100
AcDbLine
 10
1873.849996
 20
596.9800049999989
 30
0.0
 11
1873.849996
 21
637.6800050000002
 31
0.0
  0
LINE
  5
2C2
330
1F
100
AcDbEntity
  8
0
  6
EXLTYPE2
 62
     4
100
AcDbLine
 10
1858.849997
 20
630.766079
 30
0.0
 11
1858.849997
 21
601.57323
 31
0.0
  0
CIRCLE
  5
2C3
330
1F
100
AcDbEntity
  8
0
  6
CONTINUOUS
 62
     7
100
AcDbCircle
 10
1858.849997
 20
617.330005
 30
0.0
 40
7.500000000000004
  0
LINE
  5
2C4
330
1F
100
AcDbEntity
  8
0
  6
CONTINUOUS
 62
     7
100
AcDbLine
 10
1872.849996
 20
595.9800049999999
 30
0.0
 11
1873.849996
 21
596.9800049999998
 31
0.0
  0
LINE
  5
2C5
330
1F
100
AcDbEntity
  8
0
  6
EXLTYPE2
 62
     4
100
AcDbLine
 10
1882.749995
 20
617.330005
 30
0.0
 11
1299.844996744748
 21
617.3300050000003
 31
0.0
  0
LINE
  5
2C6
330
1F
100
AcDbEntity
  8
0
  6
CONTINUOUS
 62
     7
100
AcDbLine
 10
687.8499939999983
 20
638.6800049999895
 30
0.0
 11
728.849995
 21
638.6800049999895
 31
0.0
  0
LINE
  5
2C7
330
1F
100
AcDbEntity
  8
0
  6
CONTINUOUS
 62
     7
100
AcDbLine
 10
687.8499939999995
 20
595.9800049999892
 30
0.0
 11
728.8499949999998
 21
595.980004999991
 31
0.0
  0
LEADER
  5
2C8
330
1F
100
AcDbEntity
  8
0
  6
CONTINUOUS
 62
     4
100
AcDbLeader
  3
ISO-25
 76
     2
 10
730.8499949999953
 20
649.0800092816585
 30
0.0
 10
659.1681376879607
 20
774.7975860790941
 30
0.0
1001
ACAD
1000
DSTYLE
1002
{
1070
     5
1000
EX_NORM
1070
    41
1040
15.0
1070
   341
1005
76
1002
}
  0
CIRCLE
  5
2C9
330
1F
100
AcDbEntity
  8
0
  6
CONTINUOUS
 62
     4
100
AcDbCircle
 10
650.5000000000005
 20
790.0000000000003
 30
0.0
 40
17.5
  0
TEXT
  5
2CA
330
1F
100
AcDbEntity
  8
0
  6
CONTINUOUS
 62
     6
100
AcDbText
 10
638.1256313323979
 20
780.9384552392349
 30
0.0
 40
19.29232381794281
  1
éW
 41
1.50860598136615
  7
EXCADSTD
 72
     5
 11
658.9145706939702
 21
780.9384552392349
 31
0.0
100
AcDbText
  0
CIRCLE
  5
2CB
330
1F
100
AcDbEntity
  8
0
  6
CONTINUOUS
 62
     4
100
AcDbCircle
 10
853.0000000000002
 20
769.5000000000006
 30
0.0
 40
17.5
  0
TEXT
  5
2CC
330
1F
100
AcDbEntity
  8
0
  6
CONTINUOUS
 62
     6
100
AcDbText
 10
840.6256313323977
 20
760.4384552392352
 30
0.0
 40
19.29232381794281
  1
éV
 41
1.50860598136615
  7
EXCADSTD
 72
     5
 11
861.41457069397
 21
760.4384552392352
 31
0.0
100
AcDbText
  0
LEADER
  5
2CD
330
1F
100
AcDbEntity
  8
0
  6
CONTINUOUS
 62
     4
100
AcDbLeader
  3
ISO-25
 76
     2
 10
795.849995000005
 20
657.3300049999984
 30
0.0
 10
845.0555483347495
 20
753.9071911530194
 30
0.0
1001
ACAD
1000
DSTYLE
1002
{
1070
     5
1000
EX_NORM
1070
    41
1040
15.0
1070
   341
1005
76
1002
}
  0
DIMENSION
  5
2CE
330
1F
100
AcDbEntity
  8
0
  6
CONTINUOUS
 62
     2
100
AcDbDimension
  2
*D21
 10
1873.849996
 20
532.5
 30
0.0
 11
1906.849995523163
 21
543.75
 31
0.0
 70
   160
  3
ISO-25
100
AcDbAlignedDimension
 13
1858.849997
 23
601.5732300000001
 33
0.0
 14
1873.849996
 24
596.9800050000001
 34
0.0
100
AcDbRotatedDimension
1001
ACAD
1000
DSTYLE
1002
{
1070
   270
1070
     2
1070
     6
1000
EX_NORM
1070
     7
1000
EX_NORM
1070
    41
1040
15.0
1070
    42
1040
7.5
1070
    44
1040
7.5
1070
    73
1070
     0
1070
    74
1070
     0
1070
    75
1070
     0
1070
    76
1070
     1
1070
    77
1070
     1
1070
    78
1070
     8
1070
   140
1040
12.8622054
1070
   147
1040
0.0
1070
   173
1070
     1
1070
   176
1070
     2
1070
   177
1070
     2
1070
   178
1070
     2
1070
   271
1070
     1
1070
   277
1070
     2
1070
   279
1070
     2
1070
   280
1070
     2
1070
   287
1070
     5
1070
   340
1005
21B
1002
}
  0
DIMENSION
  5
2DC
330
1F
100
AcDbEntity
  8
0
  6
CONTINUOUS
 62
     2
100
AcDbDimension
  2
*D22
 10
378.50000000001
 20
449.0000000000001
 30
0.0
 11
438.49999800001
 21
460.2500000000001
 31
0.0
 70
   160
  3
ISO-25
100
AcDbAlignedDimension
 13
498.49999600001
 23
577.33000599999
 33
0.0
 14
378.50000000001
 24
474.4300079999902
 34
0.0
100
AcDbRotatedDimension
1001
ACAD
1000
DSTYLE
1002
{
1070
   270
1070
     2
1070
     6
1000
EX_NORM
1070
     7
1000
EX_NORM
1070
    41
1040
15.0
1070
    42
1040
7.5
1070
    44
1040
7.5
1070
    73
1070
     0
1070
    74
1070
     0
1070
    75
1070
     1
1070
    76
1070
     0
1070
    77
1070
     1
1070
    78
1070
     8
1070
   140
1040
12.8622054
1070
   147
1040
0.0
1070
   173
1070
     1
1070
   176
1070
     2
1070
   177
1070
     2
1070
   178
1070
     2
1070
   271
1070
     1
1070
   277
1070
     2
1070
   279
1070
     2
1070
   280
1070
     0
1070
   287
1070
     5
1070
   340
1005
21B
1002
}
  0
DIMENSION
  5
2E8
330
1F
100
AcDbEntity
  8
0
  6
CONTINUOUS
 62
     2
100
AcDbDimension
  2
*D23
 10
378.50000000001
 20
449.0000000000001
 30
0.0
 11
288.4999980000051
 21
460.2500000000001
 31
0.0
 70
   160
  3
ISO-25
100
AcDbAlignedDimension
 13
198.499996
 23
577.33000599999
 33
0.0
 14
378.50000000001
 24
504.0000000000001
 34
0.0
100
AcDbRotatedDimension
1001
ACAD
1000
DSTYLE
1002
{
1070
   270
1070
     2
1070
     6
1000
EX_NORM
1070
     7
1000
EX_NORM
1070
    41
1040
15.0
1070
    42
1040
0.0
1070
    44
1040
0.0
1070
    73
1070
     0
1070
    74
1070
     0
1070
    75
1070
     1
1070
    76
1070
     1
1070
    77
1070
     1
1070
    78
1070
     8
1070
   140
1040
12.8622054
1070
   147
1040
0.0
1070
   173
1070
     1
1070
   176
1070
     2
1070
   177
1070
     2
1070
   178
1070
     2
1070
   271
1070
     1
1070
   277
1070
     2
1070
   279
1070
     2
1070
   280
1070
     0
1070
   287
1070
     5
1070
   340
1005
21B
1002
}
  0
DIMENSION
  5
2F3
330
1F
100
AcDbEntity
  8
0
  6
CONTINUOUS
 62
     2
100
AcDbDimension
  2
*D24
 10
198.499996
 20
404.0000000000002
 30
0.0
 11
348.4999960000051
 21
415.2500000000001
 31
0.0
 70
   160
  3
ISO-25
100
AcDbAlignedDimension
 13
498.49999600001
 23
513.1699940000102
 33
0.0
 14
198.499996
 24
513.1699940000102
 34
0.0
100
AcDbRotatedDimension
1001
ACAD
1000
DSTYLE
1002
{
1070
   270
1070
     2
1070
     6
1000
EX_NORM
1070
     7
1000
EX_NORM
1070
    41
1040
15.0
1070
    42
1040
1.669999957084656
1070
    44
1040
7.5
1070
    73
1070
     0
1070
    74
1070
     0
1070
    75
1070
     0
1070
    76
1070
     0
1070
    77
1070
     1
1070
    78
1070
     8
1070
   140
1040
12.8622054
1070
   147
1040
0.0
1070
   173
1070
     1
1070
   176
1070
     2
1070
   177
1070
     2
1070
   178
1070
     2
1070
   271
1070
     1
1070
   277
1070
     2
1070
   279
1070
     2
1070
   280
1070
     0
1070
   287
1070
     5
1070
   340
1005
21B
1002
}
  0
TEXT
  5
300
330
1F
100
AcDbEntity
  8
0
  6
CONTINUOUS
 62
     2
100
AcDbText
 10
1118.873992672325
 20
457.0586569500002
 30
0.0
 40
12.8622054
  1
éléÅéĢéÄéöéēéÄéć éŚéēéäéöéłü@ÄµĢtĢØ
 41
1.572825139303093
  7
EXCADSTD
 72
     5
 11
1430.993992672325
 21
457.0586569500002
 31
0.0
100
AcDbText
  0
LINE
  5
301
330
1F
100
AcDbEntity
  8
0
  6
CONTINUOUS
 62
     2
100
AcDbLine
 10
1745.349995
 20
514.7000096440663
 30
0.0
 11
1745.349995
 21
441.5000000000001
 31
0.0
  0
LINE
  5
302
330
1F
100
AcDbEntity
  8
0
  6
CONTINUOUS
 62
     2
100
AcDbLine
 10
815.3499949999998
 20
509.8300050000101
 30
0.0
 11
815.3499949999998
 21
441.5000000000004
 31
0.0
  0
LINE
  5
303
330
1F
100
AcDbEntity
  8
0
  6
CONTINUOUS
 62
     2
100
AcDbLine
 10
1745.349995
 20
449.0000000000001
 30
0.0
 11
815.3499949999998
 21
449.0000000000004
 31
0.0
  0
LINE
  5
304
330
1F
100
AcDbEntity
  8
0
  6
CONTINUOUS
 62
     2
100
AcDbLine
 10
1730.349995
 20
446.5000000000001
 30
0.0
 11
1745.349995
 21
449.0000000000001
 31
0.0
  0
LINE
  5
305
330
1F
100
AcDbEntity
  8
0
  6
CONTINUOUS
 62
     2
100
AcDbLine
 10
1745.349995
 20
449.0000000000001
 30
0.0
 11
1730.349995
 21
451.5000000000001
 31
0.0
  0
LINE
  5
306
330
1F
100
AcDbEntity
  8
0
  6
CONTINUOUS
 62
     2
100
AcDbLine
 10
830.3499949999998
 20
451.5000000000004
 30
0.0
 11
815.3499949999998
 21
449.0000000000004
 31
0.0
  0
LINE
  5
307
330
1F
100
AcDbEntity
  8
0
  6
CONTINUOUS
 62
     2
100
AcDbLine
 10
815.3499949999998
 20
449.0000000000004
 30
0.0
 11
830.3499949999998
 21
446.5000000000004
 31
0.0
  0
LINE
  5
308
330
1F
100
AcDbEntity
  8
0
  6
CONTINUOUS
 62
     2
100
AcDbLine
 10
1873.849996
 20
589.4800050000001
 30
0.0
 11
1873.849996
 21
396.4999999999992
 31
0.0
  0
LINE
  5
309
330
1F
100
AcDbEntity
  8
0
  6
CONTINUOUS
 62
     2
100
AcDbLine
 10
686.8499939999995
 20
589.4800050000001
 30
0.0
 11
686.8499939999995
 21
396.5000000000001
 31
0.0
  0
LINE
  5
30A
330
1F
100
AcDbEntity
  8
0
  6
CONTINUOUS
 62
     2
100
AcDbLine
 10
1873.849996
 20
403.9999999999992
 30
0.0
 11
686.8499939999995
 21
404.0000000000001
 31
0.0
  0
LINE
  5
30B
330
1F
100
AcDbEntity
  8
0
  6
CONTINUOUS
 62
     2
100
AcDbLine
 10
1858.849996
 20
401.4999999999992
 30
0.0
 11
1873.849996
 21
403.9999999999992
 31
0.0
  0
LINE
  5
30C
330
1F
100
AcDbEntity
  8
0
  6
CONTINUOUS
 62
     2
100
AcDbLine
 10
1873.849996
 20
403.9999999999992
 30
0.0
 11
1858.849996
 21
406.4999999999992
 31
0.0
  0
LINE
  5
30D
330
1F
100
AcDbEntity
  8
0
  6
CONTINUOUS
 62
     2
100
AcDbLine
 10
701.8499939999995
 20
406.5000000000001
 30
0.0
 11
686.8499939999995
 21
404.0000000000001
 31
0.0
  0
LINE
  5
30E
330
1F
100
AcDbEntity
  8
0
  6
CONTINUOUS
 62
     2
100
AcDbLine
 10
686.8499939999995
 20
404.0000000000001
 30
0.0
 11
701.8499939999995
 21
401.5000000000001
 31
0.0
  0
DIMENSION
  5
30F
330
1F
100
AcDbEntity
  8
0
  6
CONTINUOUS
 62
     2
100
AcDbDimension
  2
*D25
 10
1745.349995
 20
449.0000000000001
 30
0.0
 11
1770.349995
 21
460.2500000000001
 31
0.0
 70
   160
  3
ISO-25
100
AcDbAlignedDimension
 13
1795.349995
 23
565.830005
 33
0.0
 14
1745.349995
 24
474.000001
 34
0.0
100
AcDbRotatedDimension
1001
ACAD
1000
DSTYLE
1002
{
1070
   270
1070
     2
1070
     6
1000
EX_NORM
1070
     7
1000
EX_NORM
1070
    41
1040
15.0
1070
    42
1040
7.5
1070
    44
1040
7.5
1070
    73
1070
     0
1070
    74
1070
     0
1070
    75
1070
     0
1070
    76
1070
     1
1070
    77
1070
     1
1070
    78
1070
     8
1070
   140
1040
12.8622054
1070
   147
1040
0.0
1070
   173
1070
     1
1070
   176
1070
     2
1070
   177
1070
     2
1070
   178
1070
     2
1070
   271
1070
     1
1070
   277
1070
     2
1070
   279
1070
     2
1070
   280
1070
     0
1070
   287
1070
     5
1070
   340
1005
21B
1002
}
  0
DIMENSION
  5
31B
330
1F
100
AcDbEntity
  8
0
  6
CONTINUOUS
 62
     2
100
AcDbDimension
  2
*D26
 10
815.349995
 20
449.0000000000001
 30
0.0
 11
772.099995
 21
460.2500000000001
 31
0.0
 70
   160
  3
ISO-25
100
AcDbAlignedDimension
 13
728.849995
 23
587.58000928166
 33
0.0
 14
815.349995
 24
474.000001
 34
0.0
100
AcDbRotatedDimension
1001
ACAD
1000
DSTYLE
1002
{
1070
   270
1070
     2
1070
     6
1000
EX_NORM
1070
     7
1000
EX_NORM
1070
    41
1040
15.0
1070
    42
1040
22.73000928165993
1070
    44
1040
7.5
1070
    73
1070
     0
1070
    74
1070
     0
1070
    75
1070
     0
1070
    76
1070
     1
1070
    77
1070
     1
1070
    78
1070
     8
1070
   140
1040
12.8622054
1070
   147
1040
0.0
1070
   173
1070
     1
1070
   176
1070
     2
1070
   177
1070
     2
1070
   178
1070
     2
1070
   271
1070
     1
1070
   277
1070
     2
1070
   279
1070
     2
1070
   280
1070
     0
1070
   287
1070
     5
1070
   340
1005
21B
1002
}
  0
DIMENSION
  5
327
330
1F
100
AcDbEntity
  8
0
  6
CONTINUOUS
 62
     2
100
AcDbDimension
  2
*D27
 10
815.349995
 20
493.0
 30
0.0
 11
798.8499950000001
 21
504.25
 31
0.0
 70
   160
  3
ISO-25
100
AcDbAlignedDimension
 13
782.3499950000003
 23
542.430005
 33
0.0
 14
815.349995
 24
509.83000500001
 34
0.0
100
AcDbRotatedDimension
1001
ACAD
1000
DSTYLE
1002
{
1070
   270
1070
     2
1070
     6
1000
EX_NORM
1070
     7
1000
EX_NORM
1070
    41
1040
15.0
1070
    42
1040
7.5
1070
    44
1040
7.5
1070
    73
1070
     0
1070
    74
1070
     0
1070
    75
1070
     0
1070
    76
1070
     0
1070
    77
1070
     1
1070
    78
1070
     8
1070
   140
1040
12.8622054
1070
   147
1040
0.0
1070
   173
1070
     1
1070
   176
1070
     2
1070
   177
1070
     2
1070
   178
1070
     2
1070
   271
1070
     1
1070
   277
1070
     2
1070
   279
1070
     2
1070
   280
1070
     0
1070
   287
1070
     5
1070
   340
1005
21B
1002
}
  0
DIMENSION
  5
334
330
1F
100
AcDbEntity
  8
0
  6
CONTINUOUS
 62
     2
100
AcDbDimension
  2
*D28
 10
763.849995
 20
722.9999999999999
 30
0.0
 11
721.8499957152559
 21
734.2500000000022
 31
0.0
 70
   160
  1
5īäŖį
  3
ISO-25
100
AcDbAlignedDimension
 13
768.849995
 23
636.8300135633499
 33
0.0
 14
763.849995
 24
647.08000928166
 34
0.0
100
AcDbRotatedDimension
1001
ACAD
1000
DSTYLE
1002
{
1070
   270
1070
     2
1070
     6
1000
EX_NORM
1070
     7
1000
EX_NORM
1070
    41
1040
15.0
1070
    42
1040
25.56999921798695
1070
    44
1040
7.5
1070
    73
1070
     0
1070
    74
1070
     0
1070
    75
1070
     0
1070
    76
1070
     0
1070
    77
1070
     1
1070
    78
1070
     8
1070
   140
1040
12.8622054
1070
   147
1040
0.0
1070
   173
1070
     1
1070
   176
1070
     2
1070
   177
1070
     2
1070
   178
1070
     2
1070
   271
1070
     1
1070
   277
1070
     2
1070
   279
1070
     2
1070
   280
1070
     2
1070
   287
1070
     5
1070
   340
1005
21B
1002
}
  0
LINE
  5
343
330
1F
100
AcDbEntity
  8
0
  6
CONTINUOUS
 62
     7
100
AcDbLine
 10
1872.849996
 20
638.6800050000002
 30
0.0
 11
1831.849994999998
 21
638.680004999999
 31
0.0
  0
LINE
  5
344
330
1F
100
AcDbEntity
  8
0
  6
CONTINUOUS
 62
     7
100
AcDbLine
 10
1872.849996
 20
595.9800049999999
 30
0.0
 11
1831.849995
 21
595.980005000001
 31
0.0
  0
CIRCLE
  5
345
330
1F
100
AcDbEntity
  8
0
  6
CONTINUOUS
 62
     4
100
AcDbCircle
 10
1880.5
 20
749.5000000000006
 30
0.0
 40
17.5
  0
TEXT
  5
346
330
1F
100
AcDbEntity
  8
0
  6
CONTINUOUS
 62
     6
100
AcDbText
 10
1868.125631332398
 20
740.4384552392352
 30
0.0
 40
19.29232381794281
  1
éPéQ
 41
0.7510376097710292
  7
EXCADSTD
 72
     5
 11
1890.894469680787
 21
740.4384552392352
 31
0.0
100
AcDbText
  0
LEADER
  5
347
330
1F
100
AcDbEntity
  8
0
  6
CONTINUOUS
 62
     4
100
AcDbLeader
  3
ISO-25
 76
     2
 10
1829.849995000005
 20
649.0800092816784
 30
0.0
 10
1872.619038840935
 20
733.8750055613042
 30
0.0
1001
ACAD
1000
DSTYLE
1002
{
1070
     5
1000
EX_NORM
1070
    41
1040
15.0
1070
   341
1005
76
1002
}
  0
LINE
  5
348
330
1F
100
AcDbEntity
  8
0
  6
CONTINUOUS
 62
     7
100
AcDbLine
 10
385.5000030598228
 20
794.3299977989445
 30
0.0
 11
385.5000030598237
 21
794.3300031297134
 31
0.0
  0
ARC
  5
349
330
1F
100
AcDbEntity
  8
0
  6
CONTINUOUS
 62
     7
100
AcDbCircle
 10
348.0000000000007
 20
568.3279877085602
 30
0.0
 40
1.0
100
AcDbArc
 50
266.3600536106047
 51
270.0
  0
ARC
  5
34A
330
1F
100
AcDbEntity
  8
0
  6
CONTINUOUS
 62
     7
100
AcDbCircle
 10
356.0000000000052
 20
568.3279877085602
 30
0.0
 40
1.0
100
AcDbArc
 50
270.0
 51
273.6399463893953
  0
ARC
  5
34B
330
1F
100
AcDbEntity
  8
0
  6
CONTINUOUS
 62
     7
100
AcDbCircle
 10
400.9999999999998
 20
568.3279877085602
 30
0.0
 40
1.0
100
AcDbArc
 50
266.3600536106047
 51
270.0
  0
LINE
  5
34C
330
1F
100
AcDbEntity
  8
0
  6
CONTINUOUS
 62
     7
100
AcDbLine
 10
357.1500029288701
 20
1101.4999990666
 30
0.0
 11
357.1500029288701
 21
1074.4999992126
 31
0.0
  0
LINE
  5
34D
330
1F
100
AcDbEntity
  8
0
  6
CONTINUOUS
 62
     7
100
AcDbLine
 10
399.8499970711501
 20
1101.4999990666
 30
0.0
 11
399.8499970711501
 21
1074.4999995951
 31
0.0
  0
LINE
  5
34E
330
1F
100
AcDbEntity
  8
0
  6
EXLTYPE3
 62
     3
100
AcDbLine
 10
1265.701807
 20
824.9590050000003
 30
0.0
 11
1288.308185
 21
566.5670050000003
 31
0.0
  0
LINE
  5
34F
330
1F
100
AcDbEntity
  8
0
  6
EXLTYPE3
 62
     3
100
AcDbLine
 10
1281.679808
 20
824.9590050000003
 30
0.0
 11
1304.164814072169
 21
567.9542806693498
 31
0.0
  0
LINE
  5
350
330
1F
100
AcDbEntity
  8
0
  6
CONTINUOUS
 62
     7
100
AcDbLine
 10
357.1500014057304
 20
1071.0000011396
 30
0.0
 11
327.9888138602025
 21
1071.0000011396
 31
0.0
  0
LINE
  5
351
330
1F
100
AcDbEntity
  8
0
  6
CONTINUOUS
 62
     7
100
AcDbLine
 10
328.7445025420332
 20
1070.513519412822
 30
0.0
 11
292.1642466143277
 21
1100.4999991396
 31
0.0
  0
LINE
  5
352
330
1F
100
AcDbEntity
  8
0
  6
CONTINUOUS
 62
     7
100
AcDbLine
 10
244.7500014057617
 20
1100.4999991396
 30
0.0
 11
292.1642466143277
 21
1100.4999991396
 31
0.0
  0
LINE
  5
353
330
1F
100
AcDbEntity
  8
0
  6
EXLTYPE3
 62
     6
100
AcDbLine
 10
177.4999999999954
 20
1134.000000000007
 30
0.0
 11
179.5683199964178
 21
1135.735526546162
 31
0.0
  0
TEXT
  5
354
330
1F
100
AcDbEntity
  8
0
  6
CONTINUOUS
 62
     6
100
AcDbText
 10
243.7134820202773
 20
1256.0620834425
 30
0.0
 40
11.10826755658455
  1
üÓ15ü`25ćo
 50
90.00000000000001
 41
1.500939687759686
  7
EXCADSTD
 72
     5
 11
243.7134820202773
 21
1360.068844993404
 31
0.0
100
AcDbText
  0
LINE
  5
355
330
1F
100
AcDbEntity
  8
0
  6
CONTINUOUS
 62
     6
100
AcDbLine
 10
177.0000000000043
 20
1299.636004799965
 30
0.0
 11
177.0000000000043
 21
1144.499999999962
 31
0.0
  0
LINE
  5
356
330
1F
100
AcDbEntity
  8
0
  6
CONTINUOUS
 62
     6
100
AcDbLine
 10
139.3539868800034
 20
1241.136543359964
 30
0.0
 11
142.2776496000035
 21
1252.047813119964
 31
0.0
  0
LINE
  5
357
330
1F
100
AcDbEntity
  8
0
  6
EXLTYPE1
 62
     6
100
AcDbLine
 10
125.0479104000032
 20
1205.952189119963
 30
0.0
 11
189.6867379200043
 21
1236.093768959964
 31
0.0
  0
ARC
  5
358
330
1F
100
AcDbEntity
  8
0
  6
CONTINUOUS
 62
     6
100
AcDbCircle
 10
177.000000000004
 20
1224.861603839964
 30
0.0
 40
41.01336192000062
100
AcDbArc
 50
60.2526109999997
 51
156.620451
  0
LINE
  5
359
330
1F
100
AcDbEntity
  8
0
  6
CONTINUOUS
 62
     6
100
AcDbLine
 10
248.6601600000056
 20
1204.835988479963
 30
0.0
 11
248.6601600000056
 21
1387.907988479967
 31
0.0
  0
LINE
  5
35A
330
1F
100
AcDbEntity
  8
0
  6
CONTINUOUS
 62
     6
100
AcDbLine
 10
248.6601600000056
 20
1230.177839039964
 30
0.0
 11
246.1754966400055
 21
1239.450726719964
 31
0.0
  0
LINE
  5
35B
330
1F
100
AcDbEntity
  8
0
  6
CONTINUOUS
 62
     6
100
AcDbLine
 10
248.6601600000056
 20
1230.177839039964
 30
0.0
 11
251.1448224000056
 21
1239.450726719964
 31
0.0
  0
LINE
  5
35C
330
1F
100
AcDbEntity
  8
0
  6
CONTINUOUS
 62
     6
100
AcDbLine
 10
248.6601600000056
 20
1224.861603839964
 30
0.0
 11
251.1448224000056
 21
1215.588716159963
 31
0.0
  0
LINE
  5
35D
330
1F
100
AcDbEntity
  8
0
  6
CONTINUOUS
 62
     6
100
AcDbLine
 10
248.6601600000056
 20
1224.861603839964
 30
0.0
 11
246.1754966400055
 21
1215.588716159963
 31
0.0
  0
LINE
  5
35E
330
1F
100
AcDbEntity
  8
0
  6
CONTINUOUS
 62
     6
100
AcDbLine
 10
101.1427200000027
 20
1224.861603839964
 30
0.0
 11
257.3807990400056
 21
1224.861603839964
 31
0.0
  0
LINE
  5
35F
330
1F
100
AcDbEntity
  8
0
  6
CONTINUOUS
 62
     6
100
AcDbLine
 10
163.6377580800039
 20
1230.177839039964
 30
0.0
 11
257.3807990400056
 21
1230.177839039964
 31
0.0
  0
CIRCLE
  5
360
330
1F
100
AcDbEntity
  8
0
  6
CONTINUOUS
 62
     6
100
AcDbCircle
 10
177.0000000000042
 20
1224.861603839964
 30
0.0
 40
55.28639424000112
  0
LINE
  5
361
330
1F
100
AcDbEntity
  8
0
  6
EXLTYPE3
 62
     6
100
AcDbLine
 10
125.0479104000019
 20
1205.952189119939
 30
0.0
 11
125.3014813570464
 21
1205.408404447717
 31
0.0
  0
LINE
  5
362
330
1F
100
AcDbEntity
  8
0
  6
EXLTYPE3
 62
     6
100
AcDbLine
 10
115.2597863000061
 20
1201.38791189314
 30
0.0
 11
125.0479104000019
 21
1205.952189119939
 31
0.0
  0
LINE
  5
363
330
1F
100
AcDbEntity
  8
0
  6
EXLTYPE3
 62
     6
100
AcDbLine
 10
125.3014813570464
 20
1205.408404447717
 30
0.0
 11
125.2568935795888
 21
1205.387612825629
 31
0.0
  0
CIRCLE
  5
364
330
1F
100
AcDbEntity
  8
0
  6
CONTINUOUS
 62
     6
100
AcDbCircle
 10
135.98792090594
 20
1156.9362837814
 30
0.0
 40
5.0
  0
LINE
  5
365
330
1F
100
AcDbEntity
  8
0
  6
CONTINUOUS
 62
     6
100
AcDbLine
 10
115.25978630001
 20
1201.3879118931
 30
0.0
 11
133.8748295972482
 21
1161.467822716589
 31
0.0
  0
LINE
  5
366
330
1F
100
AcDbEntity
  8
0
  6
CONTINUOUS
 62
     7
100
AcDbLine
 10
241.7500014057599
 20
1097.4999991396
 30
0.0
 11
241.7500014057599
 21
1044.4999991396
 31
0.0
  0
LINE
  5
367
330
1F
100
AcDbEntity
  8
0
  6
CONTINUOUS
 62
     7
100
AcDbLine
 10
251.7500014057599
 20
1034.4999991396
 30
0.0
 11
438.67488869661
 21
1034.4999991396
 31
0.0
  0
ARC
  5
368
330
1F
100
AcDbEntity
  8
0
  6
CONTINUOUS
 62
     7
100
AcDbCircle
 10
251.7500014057599
 20
1044.4999991396
 30
0.0
 40
10.0
100
AcDbArc
 50
180.0
 51
270.0
  0
LINE
  5
369
330
1F
100
AcDbEntity
  8
0
  6
CONTINUOUS
 62
     7
100
AcDbLine
 10
241.7500014057599
 20
1071.0000011396
 30
0.0
 11
198.4999960000101
 21
1071.0000011396
 31
0.0
  0
LINE
  5
36A
330
1F
100
AcDbEntity
  8
0
  6
CONTINUOUS
 62
     7
100
AcDbLine
 10
330.1793915305577
 20
1069.499999139601
 30
0.0
 11
438.70012798187
 21
1069.499999139601
 31
0.0
  0
LINE
  5
36B
330
1F
100
AcDbEntity
  8
0
  6
CONTINUOUS
 62
     7
100
AcDbLine
 10
438.7064316420419
 20
1069.499993463014
 30
0.0
 11
438.6748886966076
 21
1034.472600852484
 31
0.0
  0
ARC
  5
36C
330
1F
100
AcDbEntity
  8
0
  6
CONTINUOUS
 62
     7
100
AcDbCircle
 10
346.7625154823357
 20
1094.4999991396
 30
0.0
 40
30.0
100
AcDbArc
 50
233.0870875127531
 51
236.4426902380768
  0
LINE
  5
36D
330
1F
100
AcDbEntity
  8
0
  6
CONTINUOUS
 62
     7
100
AcDbLine
 10
382.4542037362056
 20
791.3299996861305
 30
0.0
 11
395.5000030598339
 21
791.3299996861301
 31
0.0
  0
LINE
  5
36E
330
1F
100
AcDbEntity
  8
0
  6
CONTINUOUS
 62
     7
100
AcDbLine
 10
395.50000305983
 20
794.3299953553501
 30
0.0
 11
395.50000305983
 21
791.3299996861302
 31
0.0
  0
LINE
  5
36F
330
1F
100
AcDbEntity
  8
0
  6
CONTINUOUS
 62
     7
100
AcDbLine
 10
382.4542037362057
 20
791.3299996861305
 30
0.0
 11
373.1582365557268
 21
655.3300049999903
 31
0.0
  0
LINE
  5
370
330
1F
100
AcDbEntity
  8
0
  6
CONTINUOUS
 62
     7
100
AcDbLine
 10
365.50000277111
 20
794.3299996861302
 30
0.0
 11
350.9862517073609
 21
655.3300049999903
 31
0.0
  0
LINE
  5
371
330
1F
100
AcDbEntity
  8
0
  6
CONTINUOUS
 62
     7
100
AcDbLine
 10
728.849995
 20
657.3300050000043
 30
0.0
 11
795.84999500001
 21
657.3300050000043
 31
0.0
  0
LINE
  5
372
330
1F
100
AcDbEntity
  8
0
  6
CONTINUOUS
 62
     7
100
AcDbLine
 10
728.8499950000003
 20
567.3300050000003
 30
0.0
 11
815.3499949999998
 21
567.3300050000018
 31
0.0
  0
LINE
  5
373
330
1F
100
AcDbEntity
  8
0
  6
CONTINUOUS
 62
     7
100
AcDbLine
 10
728.849995
 20
567.330005
 30
0.0
 11
728.849995
 21
657.330005
 31
0.0
  0
LINE
  5
374
330
1F
100
AcDbEntity
  8
0
  6
CONTINUOUS
 62
     7
100
AcDbLine
 10
1582.849995
 20
794.33000168609
 30
0.0
 11
1582.849995
 21
596.3300050000101
 31
0.0
  0
LINE
  5
375
330
1F
100
AcDbEntity
  8
0
  6
CONTINUOUS
 62
     7
100
AcDbLine
 10
977.8499950000105
 20
794.3300016860841
 30
0.0
 11
977.8499950000105
 21
596.33000500001
 31
0.0
  0
LINE
  5
376
330
1F
100
AcDbEntity
  8
0
  6
CONTINUOUS
 62
     7
100
AcDbLine
 10
795.8499950000004
 20
638.6800049999913
 30
0.0
 11
977.8499950000094
 21
638.6800049999947
 31
0.0
  0
LINE
  5
377
330
1F
100
AcDbEntity
  8
0
  6
CONTINUOUS
 62
     7
100
AcDbLine
 10
1764.849995
 20
638.6800049999999
 30
0.0
 11
1582.849995
 21
638.6800049999999
 31
0.0
  0
LINE
  5
378
330
1F
100
AcDbEntity
  8
0
  6
CONTINUOUS
 62
     7
100
AcDbLine
 10
1831.849995
 20
567.3300050000003
 30
0.0
 11
1745.349995
 21
567.3300050000018
 31
0.0
  0
LINE
  5
379
330
1F
100
AcDbEntity
  8
0
  6
CONTINUOUS
 62
     7
100
AcDbLine
 10
1831.849995
 20
567.330005
 30
0.0
 11
1831.849994999997
 21
657.3300049999901
 31
0.0
  0
LINE
  5
37A
330
1F
100
AcDbEntity
  8
0
  6
CONTINUOUS
 62
     7
100
AcDbLine
 10
1831.849995
 20
657.3300049999901
 30
0.0
 11
1764.849995
 21
657.3300049999901
 31
0.0
  0
LINE
  5
37B
330
1F
100
AcDbEntity
  8
0
  6
CONTINUOUS
 62
     7
100
AcDbLine
 10
241.75
 20
645.3300049999903
 30
0.0
 11
352.80953484268
 21
645.3300049999903
 31
0.0
  0
LINE
  5
37C
330
1F
100
AcDbEntity
  8
0
  6
CONTINUOUS
 62
     7
100
AcDbLine
 10
378.50000000001
 20
655.3300049999903
 30
0.0
 11
241.75
 21
655.3300049999903
 31
0.0
  0
LINE
  5
37D
330
1F
100
AcDbEntity
  8
0
  6
CONTINUOUS
 62
     7
100
AcDbLine
 10
438.6456449825103
 20
567.3300049999901
 30
0.0
 11
438.645640809703
 21
567.3253712360931
 31
0.0
  0
ARC
  5
37E
330
1F
100
AcDbEntity
  8
0
  6
CONTINUOUS
 62
     7
100
AcDbCircle
 10
378.50000000001
 20
617.33000499999
 30
0.0
 40
38.0
100
AcDbArc
 50
132.5368983629857
 51
90.00000000000375
  0
LINE
  5
37F
330
1F
100
AcDbEntity
  8
0
  6
CONTINUOUS
 62
     7
100
AcDbLine
 10
255.5000000000025
 20
645.33000499999
 30
0.0
 11
255.5000000000025
 21
567.33000499999
 31
0.0
  0
LINE
  5
380
330
1F
100
AcDbEntity
  8
0
  6
CONTINUOUS
 62
     7
100
AcDbLine
 10
241.7500000000016
 20
655.33000499999
 30
0.0
 11
241.7500000000016
 21
645.3300049999903
 31
0.0
  0
LINE
  5
381
330
1F
100
AcDbEntity
  8
0
  6
CONTINUOUS
 62
     7
100
AcDbLine
 10
271.5000000000023
 20
645.33000499999
 30
0.0
 11
271.5000000000023
 21
567.33000499999
 31
0.0
  0
ENDSEC
  0
SECTION
  2
OBJECTS
  0
DICTIONARY
  5
C
330
0
100
AcDbDictionary
  3
ACAD_GROUP
350
D
  3
ACAD_LAYOUT
350
1A
  3
ACAD_MATERIAL
350
43
  3
ACAD_MLEADERSTYLE
350
6B
  3
ACAD_MLINESTYLE
350
17
  3
ACAD_PLOTSETTINGS
350
19
  3
ACAD_SCALELIST
350
47
  3
ACAD_VISUALSTYLE
350
2A
  3
ACDBHEADERROUNDTRIPXREC
350
382
  3
ACDBVARIABLEDICTIONARY
350
3A3
  0
DICTIONARY
  5
3AC
330
8
100
AcDbDictionary
280
     1
  3
ACAD_XREC_ROUNDTRIP
360
3AD
  0
DICTIONARY
  5
D
102
{ACAD_REACTORS
330
C
102
}
330
C
100
AcDbDictionary
  0
DICTIONARY
  5
1A
102
{ACAD_REACTORS
330
C
102
}
330
C
100
AcDbDictionary
  0
DICTIONARY
  5
43
102
{ACAD_REACTORS
330
C
102
}
330
C
100
AcDbDictionary
  3
BYBLOCK
350
45
  3
BYLAYER
350
44
  3
GLOBAL
350
46
  0
DICTIONARY
  5
6B
102
{ACAD_REACTORS
330
C
102
}
330
C
100
AcDbDictionary
  3
STANDARD
350
6C
  0
DICTIONARY
  5
17
102
{ACAD_REACTORS
330
C
102
}
330
C
100
AcDbDictionary
  3
STANDARD
350
18
  0
DICTIONARY
  5
19
102
{ACAD_REACTORS
330
C
102
}
330
C
100
AcDbDictionary
  0
DICTIONARY
  5
47
102
{ACAD_REACTORS
330
C
102
}
330
C
100
AcDbDictionary
  3
A0
350
48
  3
A1
350
49
  3
A2
350
4A
  3
A3
350
4B
  3
A4
350
4C
  3
A5
350
4D
  3
A6
350
4E
  3
A7
350
4F
  3
A8
350
50
  3
A9
350
51
  3
B0
350
52
  3
B1
350
53
  3
B2
350
54
  3
B3
350
55
  3
B4
350
56
  3
B5
350
57
  3
B6
350
58
  3
B7
350
59
  3
B8
350
5A
  3
B9
350
5B
  3
C0
350
5C
  3
C1
350
5D
  3
C2
350
5E
  3
C3
350
5F
  3
C4
350
60
  3
C5
350
61
  3
C6
350
62
  3
C7
350
63
  3
C8
350
64
  3
C9
350
65
  3
D0
350
66
  3
D1
350
67
  3
D2
350
68
  0
DICTIONARY
  5
2A
102
{ACAD_REACTORS
330
C
102
}
330
C
100
AcDbDictionary
  3
2DWIREFRAME
350
2F
  3
BASIC
350
32
  3
BRIGHTEN
350
36
  3
COLORCHANGE
350
3A
  3
CONCEPTUAL
350
34
  3
DIM
350
35
  3
EDGECOLOROFF
350
3D
  3
FACEPATTERN
350
39
  3
FLAT
350
2B
  3
FLATWITHEDGES
350
2C
  3
GOURAUD
350
2D
  3
GOURAUDWITHEDGES
350
2E
  3
HIDDEN
350
31
  3
JITTEROFF
350
3B
  3
LINEPATTERN
350
38
  3
OVERHANGOFF
350
3C
  3
REALISTIC
350
33
  3
SHADED
350
42
  3
SHADED_WITH_EDGES
350
41
  3
SHADES_OF_GRAY
350
3E
  3
SKETCHY
350
3F
  3
THICKEN
350
37
  3
WIREFRAME
350
30
  3
X-RAY
350
40
  0
DICTIONARY
  5
382
102
{ACAD_REACTORS
330
C
102
}
330
C
100
AcDbDictionary
  3
CEPSNID
350
38C
  3
CEPSNTYPE
350
38B
  3
DIMSTYLEDATA
350
3A2
  3
FINGERPRINTGUID
350
38D
  3
HYPERLINKBASE
350
385
  3
INSUNITS
350
38A
  3
LAYOUTDICT
350
387
  3
LWETCUNION
350
389
  3
PLOTSETDICT
350
388
  3
PSVPSCALE
350
38F
  3
PUCSBASE
350
392
  3
PUCSORGBACK
350
398
  3
PUCSORGBOTTOM
350
394
  3
PUCSORGFRONT
350
397
  3
PUCSORGLEFT
350
395
  3
PUCSORGRIGHT
350
396
  3
PUCSORGTOP
350
393
  3
PUCSORTHOREF
350
390
  3
PUCSORTHOVIEW
350
391
  3
STYLESHEET
350
386
  3
TSTACKALIGN
350
383
  3
TSTACKSIZE
350
384
  3
UCSBASE
350
39B
  3
UCSORGBACK
350
3A1
  3
UCSORGBOTTOM
350
39D
  3
UCSORGFRONT
350
3A0
  3
UCSORGLEFT
350
39E
  3
UCSORGRIGHT
350
39F
  3
UCSORGTOP
350
39C
  3
UCSORTHOREF
350
399
  3
UCSORTHOVIEW
350
39A
  3
VERSIONGUID
350
38E
  0
DICTIONARY
  5
3A3
102
{ACAD_REACTORS
330
C
102
}
330
C
100
AcDbDictionary
  3
CANNOSCALE
350
3AE
  3
CMLEADERSTYLE
350
3A5
  3
CTABLESTYLE
350
3A4
  3
DIMASSOC
350
3AA
  3
HIDETEXT
350
3AB
  3
MSLTSCALE
350
3AF
  3
PSOLHEIGHT
350
3A7
  3
PSOLWIDTH
350
3A6
  0
XRECORD
  5
3AD
102
{ACAD_REACTORS
330
3AC
102
}
330
3AC
100
AcDbXrecord
102
VTR_0.000_0.000_1.000_1.000_VISUALSTYLE
340
2F
102
VTR_0.000_0.000_1.000_1.000_GRIDDISPLAY
 70
     3
102
VTR_0.000_0.000_1.000_1.000_GRIDMAJOR
 70
     5
102
VTR_0.000_0.000_1.000_1.000_DEFAULTLIGHTING
280
     1
102
VTR_0.000_0.000_1.000_1.000_DEFAULTLIGHTINGTYPE
 70
     1
102
VTR_0.000_0.000_1.000_1.000_BRIGHTNESS
141
0.0
102
VTR_0.000_0.000_1.000_1.000_CONTRAST
142
0.0
  0
MATERIAL
  5
45
102
{ACAD_REACTORS
330
43
102
}
102
{ACAD_XDICTIONARY
360
3B2
102
}
330
43
100
AcDbMaterial
  1
BYBLOCK
  0
MATERIAL
  5
44
102
{ACAD_REACTORS
330
43
102
}
102
{ACAD_XDICTIONARY
360
3B0
102
}
330
43
100
AcDbMaterial
  1
BYLAYER
  0
MATERIAL
  5
46
102
{ACAD_REACTORS
330
43
102
}
102
{ACAD_XDICTIONARY
360
3B4
102
}
330
43
100
AcDbMaterial
  1
GLOBAL
  0
ACAD_PROXY_OBJECT
  5
6C
102
{ACAD_REACTORS
330
6B
102
}
330
6B
100
AcDbProxyObject
 90
      499
 91
      505
 93
      610
310
40901902A4063FBFFFFFE0000000000000020400000000000020404214DD185B99185C990000000000000104090141901A00000000000004100000000000000041025764000000000000039000
340
14
340
0
340
11
340
0
 94
        0
1001
ACAD_MLEADERVER
1070
     2
  0
MLINESTYLE
  5
18
102
{ACAD_REACTORS
330
17
102
}
330
17
100
AcDbMlineStyle
  2
Standard
 70
     0
  3

 62
   256
 51
90.0
 52
90.0
 71
     2
 49
0.5
 62
   256
  6
BYLAYER
 49
-0.5
 62
   256
  6
BYLAYER
  0
ACAD_PROXY_OBJECT
  5
48
102
{ACAD_REACTORS
330
47
102
}
330
47
100
AcDbProxyObject
 90
      499
 91
      503
 93
       41
310
903313A31580
  0
ACAD_PROXY_OBJECT
  5
49
102
{ACAD_REACTORS
330
47
102
}
330
47
100
AcDbProxyObject
 90
      499
 91
      503
 93
      105
310
903313A324000000000000004000
  0
ACAD_PROXY_OBJECT
  5
4A
102
{ACAD_REACTORS
330
47
102
}
330
47
100
AcDbProxyObject
 90
      499
 91
      503
 93
      105
310
903313A344000000000000104000
  0
ACAD_PROXY_OBJECT
  5
4B
102
{ACAD_REACTORS
330
47
102
}
330
47
100
AcDbProxyObject
 90
      499
 91
      503
 93
      105
310
903313A354000000000000144000
  0
ACAD_PROXY_OBJECT
  5
4C
102
{ACAD_REACTORS
330
47
102
}
330
47
100
AcDbProxyObject
 90
      499
 91
      503
 93
      105
310
903313A384000000000000204000
  0
ACAD_PROXY_OBJECT
  5
4D
102
{ACAD_REACTORS
330
47
102
}
330
47
100
AcDbProxyObject
 90
      499
 91
      503
 93
      113
310
904313A31304000000000000244000
  0
ACAD_PROXY_OBJECT
  5
4E
102
{ACAD_REACTORS
330
47
102
}
330
47
100
AcDbProxyObject
 90
      499
 91
      503
 93
      113
310
904313A31364000000000000304000
  0
ACAD_PROXY_OBJECT
  5
4F
102
{ACAD_REACTORS
330
47
102
}
330
47
100
AcDbProxyObject
 90
      499
 91
      503
 93
      113
310
904313A32304000000000000344000
  0
ACAD_PROXY_OBJECT
  5
50
102
{ACAD_REACTORS
330
47
102
}
330
47
100
AcDbProxyObject
 90
      499
 91
      503
 93
      113
310
904313A333040000000000003E4000
  0
ACAD_PROXY_OBJECT
  5
51
102
{ACAD_REACTORS
330
47
102
}
330
47
100
AcDbProxyObject
 90
      499
 91
      503
 93
      113
310
904313A34304000000000000444000
  0
ACAD_PROXY_OBJECT
  5
52
102
{ACAD_REACTORS
330
47
102
}
330
47
100
AcDbProxyObject
 90
      499
 91
      503
 93
      113
310
904313A35304000000000000494000
  0
ACAD_PROXY_OBJECT
  5
53
102
{ACAD_REACTORS
330
47
102
}
330
47
100
AcDbProxyObject
 90
      499
 91
      503
 93
      121
310
905313A3130304000000000000594000
  0
ACAD_PROXY_OBJECT
  5
54
102
{ACAD_REACTORS
330
47
102
}
330
47
100
AcDbProxyObject
 90
      499
 91
      503
 93
      105
310
903323A310000000000000010100
  0
ACAD_PROXY_OBJECT
  5
55
102
{ACAD_REACTORS
330
47
102
}
330
47
100
AcDbProxyObject
 90
      499
 91
      503
 93
      105
310
903343A310000000000000410100
  0
ACAD_PROXY_OBJECT
  5
56
102
{ACAD_REACTORS
330
47
102
}
330
47
100
AcDbProxyObject
 90
      499
 91
      503
 93
      105
310
903383A310000000000000810100
  0
ACAD_PROXY_OBJECT
  5
57
102
{ACAD_REACTORS
330
47
102
}
330
47
100
AcDbProxyObject
 90
      499
 91
      503
 93
      113
310
90431303A310000000000000910100
  0
ACAD_PROXY_OBJECT
  5
58
102
{ACAD_REACTORS
330
47
102
}
330
47
100
AcDbProxyObject
 90
      499
 91
      503
 93
      121
310
9053130303A310000000000001650100
  0
ACAD_PROXY_OBJECT
  5
59
102
{ACAD_REACTORS
330
47
102
}
330
47
100
AcDbProxyObject
 90
      499
 91
      503
 93
      257
310
90E312F31323822203D2031272D3022000000000000200FC000000000000284000
  0
ACAD_PROXY_OBJECT
  5
5A
102
{ACAD_REACTORS
330
47
102
}
330
47
100
AcDbProxyObject
 90
      499
 91
      503
 93
      249
310
90D312F363422203D2031272D3022000000000000240FC000000000000284000
  0
ACAD_PROXY_OBJECT
  5
5B
102
{ACAD_REACTORS
330
47
102
}
330
47
100
AcDbProxyObject
 90
      499
 91
      503
 93
      249
310
90D312F333222203D2031272D3022000000000000280FC000000000000284000
  0
ACAD_PROXY_OBJECT
  5
5C
102
{ACAD_REACTORS
330
47
102
}
330
47
100
AcDbProxyObject
 90
      499
 91
      503
 93
      249
310
90D312F313622203D2031272D30220000000000002C0FC000000000000284000
  0
ACAD_PROXY_OBJECT
  5
5D
102
{ACAD_REACTORS
330
47
102
}
330
47
100
AcDbProxyObject
 90
      499
 91
      503
 93
      249
310
90D332F333222203D2031272D30220000000000002E0FC000000000000284000
  0
ACAD_PROXY_OBJECT
  5
5E
102
{ACAD_REACTORS
330
47
102
}
330
47
100
AcDbProxyObject
 90
      499
 91
      503
 93
      241
310
90C312F3822203D2031272D3022000000000000300FC000000000000284000
  0
ACAD_PROXY_OBJECT
  5
5F
102
{ACAD_REACTORS
330
47
102
}
330
47
100
AcDbProxyObject
 90
      499
 91
      503
 93
      249
310
90D332F313622203D2031272D3022000000000000320FC000000000000284000
  0
ACAD_PROXY_OBJECT
  5
60
102
{ACAD_REACTORS
330
47
102
}
330
47
100
AcDbProxyObject
 90
      499
 91
      503
 93
      241
310
90C312F3422203D2031272D3022000000000000340FC000000000000284000
  0
ACAD_PROXY_OBJECT
  5
61
102
{ACAD_REACTORS
330
47
102
}
330
47
100
AcDbProxyObject
 90
      499
 91
      503
 93
      241
310
90C332F3822203D2031272D3022000000000000360FC000000000000284000
  0
ACAD_PROXY_OBJECT
  5
62
102
{ACAD_REACTORS
330
47
102
}
330
47
100
AcDbProxyObject
 90
      499
 91
      503
 93
      241
310
90C312F3222203D2031272D3022000000000000380FC000000000000284000
  0
ACAD_PROXY_OBJECT
  5
63
102
{ACAD_REACTORS
330
47
102
}
330
47
100
AcDbProxyObject
 90
      499
 91
      503
 93
      241
310
90C332F3422203D2031272D30220000000000003A0FC000000000000284000
  0
ACAD_PROXY_OBJECT
  5
64
102
{ACAD_REACTORS
330
47
102
}
330
47
100
AcDbProxyObject
 90
      499
 91
      503
 93
      161
310
90A3122203D2031272D30224000000000000284000
  0
ACAD_PROXY_OBJECT
  5
65
102
{ACAD_REACTORS
330
47
102
}
330
47
100
AcDbProxyObject
 90
      499
 91
      503
 93
      257
310
90E312D312F3222203D2031272D30220000000000003E0FC000000000000284000
  0
ACAD_PROXY_OBJECT
  5
66
102
{ACAD_REACTORS
330
47
102
}
330
47
100
AcDbProxyObject
 90
      499
 91
      503
 93
      225
310
90A3322203D2031272D302200000000000002100000000000000284000
  0
ACAD_PROXY_OBJECT
  5
67
102
{ACAD_REACTORS
330
47
102
}
330
47
100
AcDbProxyObject
 90
      499
 91
      503
 93
      225
310
90A3622203D2031272D302200000000000006100000000000000284000
  0
ACAD_PROXY_OBJECT
  5
68
102
{ACAD_REACTORS
330
47
102
}
330
47
100
AcDbProxyObject
 90
      499
 91
      503
 93
      249
310
90D31272D3022203D2031272D30220000000000000A100000000000000284000
  0
ACAD_PROXY_OBJECT
  5
2F
102
{ACAD_REACTORS
330
2A
102
}
330
2A
100
AcDbProxyObject
 90
      499
 91
      501
 93
      436
310
42CC9915DA5C99599C985B595049028333333333333E33F0000000000000F90107901411070040501600405405064090741402480A0340
1001
ACAD
1000
AcDbSavedByObjectVersion
1070
     0
  0
ACAD_PROXY_OBJECT
  5
32
102
{ACAD_REACTORS
330
2A
102
}
330
2A
100
AcDbProxyObject
 90
      499
 91
      501
 93
      388
310
4150985CDA58D07406404333333333333E33F0000000000000F90107A41107004050150841D405064090741402480A0350
1001
ACAD
1000
AcDbSavedByObjectVersion
1070
     0
  0
ACAD_PROXY_OBJECT
  5
36
102
{ACAD_REACTORS
330
2A
102
}
330
2A
100
AcDbProxyObject
 90
      499
 91
      501
 93
      428
310
42109C9A59DA1D195B90C409028333333333333E33F0000000000000F9010790141107004050150841D405064090741402480A029950
1001
ACAD
1000
AcDbSavedByObjectVersion
1070
     0
  0
ACAD_PROXY_OBJECT
  5
3A
102
{ACAD_REACTORS
330
2A
102
}
330
2A
100
AcDbProxyObject
 90
      499
 91
      501
 93
      452
310
42D0DBDB1BDC90DA185B99D95104090240C333333333333E33F0000000000000F90108901411070040501508421405064090741402480A0350
1001
ACAD
1000
AcDbSavedByObjectVersion
1070
     0
  0
ACAD_PROXY_OBJECT
  5
34
102
{ACAD_REACTORS
330
2A
102
}
330
2A
100
AcDbProxyObject
 90
      499
 91
      501
 93
      500
310
4290DBDB98D95C1D1D585B10940D028333333333333E33F0000000000000F90107902409070040501000000000018199010841D405064090740C02480A0340
1001
ACAD
1000
AcDbSavedByObjectVersion
1070
     0
  0
ACAD_PROXY_OBJECT
  5
35
102
{ACAD_REACTORS
330
2A
102
}
330
2A
100
AcDbProxyObject
 90
      499
 91
      501
 93
      412
310
40D11A5B50B409028333333333333E33F0000000000000F9010790141107004050150841D405064090741402480A02677FFFFFD0
1001
ACAD
1000
AcDbSavedByObjectVersion
1070
     0
  0
ACAD_PROXY_OBJECT
  5
3D
102
{ACAD_REACTORS
330
2A
102
}
330
2A
100
AcDbProxyObject
 90
      499
 91
      501
 93
      452
310
43115919D950DBDB1BDC93D999916409028333333333333E33F0000000000000F9010790141107004050150841D405064090741402480A0350
1001
ACAD
1000
AcDbSavedByObjectVersion
1070
     0
  0
ACAD_PROXY_OBJECT
  5
39
102
{ACAD_REACTORS
330
2A
102
}
330
2A
100
AcDbProxyObject
 90
      499
 91
      501
 93
      444
310
42D19858D95C185D1D195C9B90F409028333333333333E33F0000000000000F9010790141107004050150841D405064090741402480A0350
1001
ACAD
1000
AcDbSavedByObjectVersion
1070
     0
  0
ACAD_PROXY_OBJECT
  5
2B
102
{ACAD_REACTORS
330
2A
102
}
330
2A
100
AcDbProxyObject
 90
      499
 91
      501
 93
      380
310
41119B185D240901404333333333333E33F0000000000000F9010740A907004050150841D405064090741402480A1B50
1001
ACAD
1000
AcDbSavedByObjectVersion
1070
     0
  0
ACAD_PROXY_OBJECT
  5
2C
102
{ACAD_REACTORS
330
2A
102
}
330
2A
100
AcDbProxyObject
 90
      499
 91
      501
 93
      468
310
43519B185D15DA5D1A115919D95CD0140901404333333333333E33F0000000000000F90107409019070040501600405405064090741402480A1B50
1001
ACAD
1000
AcDbSavedByObjectVersion
1070
     0
  0
ACAD_PROXY_OBJECT
  5
2D
102
{ACAD_REACTORS
330
2A
102
}
330
2A
100
AcDbProxyObject
 90
      499
 91
      501
 93
      404
310
41D1DBDD5C985D5910240902404333333333333E33F0000000000000F9010740A9070040501641D405064090741402480A1B50
1001
ACAD
1000
AcDbSavedByObjectVersion
1070
     0
  0
ACAD_PROXY_OBJECT
  5
2E
102
{ACAD_REACTORS
330
2A
102
}
330
2A
100
AcDbProxyObject
 90
      499
 91
      501
 93
      492
310
4411DBDD5C985D5915DA5D1A115919D95CD0340902404333333333333E33F0000000000000F90107409019070040501600405405064090741402480A1B50
1001
ACAD
1000
AcDbSavedByObjectVersion
1070
     0
  0
ACAD_PROXY_OBJECT
  5
31
102
{ACAD_REACTORS
330
2A
102
}
330
2A
100
AcDbProxyObject
 90
      499
 91
      501
 93
      476
310
41921A5919195B90640502408333333333333E33F0000000000000F901079024090700405020000000000001110200405405064090740C02480A0340
1001
ACAD
1000
AcDbSavedByObjectVersion
1070
     0
  0
ACAD_PROXY_OBJECT
  5
3B
102
{ACAD_REACTORS
330
2A
102
}
330
2A
100
AcDbProxyObject
 90
      499
 91
      501
 93
      428
310
42529A5D1D195C93D999914409028333333333333E33F0000000000000F9010790141107004050150A41D405064090741402480A0350
1001
ACAD
1000
AcDbSavedByObjectVersion
1070
     0
  0
ACAD_PROXY_OBJECT
  5
38
102
{ACAD_REACTORS
330
2A
102
}
330
2A
100
AcDbProxyObject
 90
      499
 91
      501
 93
      444
310
42D31A5B995C185D1D195C9B90E409028333333333333E33F0000000000000F9010790141107004050750841D405064090741402483A0350
1001
ACAD
1000
AcDbSavedByObjectVersion
1070
     0
  0
ACAD_PROXY_OBJECT
  5
3C
102
{ACAD_REACTORS
330
2A
102
}
330
2A
100
AcDbProxyObject
 90
      499
 91
      501
 93
      444
310
42D3DD995C9A185B99D3D999915409028333333333333E33F0000000000000F9010790141107004050150941D405064090741402480A0350
1001
ACAD
1000
AcDbSavedByObjectVersion
1070
     0
  0
ACAD_PROXY_OBJECT
  5
33
102
{ACAD_REACTORS
330
2A
102
}
330
2A
100
AcDbProxyObject
 90
      499
 91
      501
 93
      428
310
425499585B1A5CDD1A58D08409038333333333333E33F0000000000000F9010740A907004050150800405405064090740C02480A1B40
1001
ACAD
1000
AcDbSavedByObjectVersion
1070
     0
  0
ACAD_PROXY_OBJECT
  5
42
102
{ACAD_REACTORS
330
2A
102
}
330
2A
100
AcDbProxyObject
 90
      499
 91
      501
 93
      420
310
4194DA1859195911B40902404333333333333E33F0000000000000F9010740A41107004050150800405405064090840C02480A0B40
1001
ACAD
1000
AcDbSavedByObjectVersion
1070
     0
  0
ACAD_PROXY_OBJECT
  5
41
102
{ACAD_REACTORS
330
2A
102
}
330
2A
100
AcDbProxyObject
 90
      499
 91
      501
 93
      516
310
4454DA18591959081DDA5D1A08195919D95CD1A40902404333333333333E33F0000000000000F901074090142907004050250800405405064090740C02480A0B40
1001
ACAD
1000
AcDbSavedByObjectVersion
1070
     0
  0
ACAD_PROXY_OBJECT
  5
3E
102
{ACAD_REACTORS
330
2A
102
}
330
2A
100
AcDbProxyObject
 90
      499
 91
      501
 93
      532
310
4394DA1859195CC81BD98811DC985E5174090240C333333333333E33F0000000000000F901079024090741D01000000000000111010841D405064090740C02480A0340
1001
ACAD
1000
AcDbSavedByObjectVersion
1070
     0
  0
ACAD_PROXY_OBJECT
  5
3F
102
{ACAD_REACTORS
330
2A
102
}
330
2A
100
AcDbProxyObject
 90
      499
 91
      501
 93
      476
310
41D4DAD95D18DA1E51840502408333333333333E33F0000000000000F901079024090741D01000000000000111010B41D405064090741802480A0340
1001
ACAD
1000
AcDbSavedByObjectVersion
1070
     0
  0
ACAD_PROXY_OBJECT
  5
37
102
{ACAD_REACTORS
330
2A
102
}
330
2A
100
AcDbProxyObject
 90
      499
 91
      501
 93
      412
310
41D51A1A58DAD95B90D409028333333333333E33F0000000000000F9010790141107004050150C41D405064090741402480A0350
1001
ACAD
1000
AcDbSavedByObjectVersion
1070
     0
  0
ACAD_PROXY_OBJECT
  5
30
102
{ACAD_REACTORS
330
2A
102
}
330
2A
100
AcDbProxyObject
 90
      499
 91
      501
 93
      420
310
4255DA5C99599C985B595059028333333333333E33F0000000000000F90107901411070040501600405405064090740C02480A0340
1001
ACAD
1000
AcDbSavedByObjectVersion
1070
     0
  0
ACAD_PROXY_OBJECT
  5
40
102
{ACAD_REACTORS
330
2A
102
}
330
2A
100
AcDbProxyObject
 90
      499
 91
      501
 93
      404
310
41560B54985E51940902404000000000000E03F0000000000000F9010740501907004050150841D405064090740C02480A1B40
1001
ACAD
1000
AcDbSavedByObjectVersion
1070
     0
  0
XRECORD
  5
38C
102
{ACAD_REACTORS
330
382
102
}
330
382
100
AcDbXrecord
340
0
  0
XRECORD
  5
38B
102
{ACAD_REACTORS
330
382
102
}
330
382
100
AcDbXrecord
 90
        0
  0
XRECORD
  5
3A2
102
{ACAD_REACTORS
330
382
102
}
330
382
100
AcDbXrecord
1000
DSTYLE
1002
{
1070
   340
340
11
1002
}
  0
XRECORD
  5
38D
102
{ACAD_REACTORS
330
382
102
}
330
382
100
AcDbXrecord
  1
{05E5F636-BCF8-4688-B857-BB1BBF51EBC2}
  0
XRECORD
  5
385
102
{ACAD_REACTORS
330
382
102
}
330
382
100
AcDbXrecord
  1

  0
XRECORD
  5
38A
102
{ACAD_REACTORS
330
382
102
}
330
382
100
AcDbXrecord
 90
        4
  0
XRECORD
  5
387
102
{ACAD_REACTORS
330
382
102
}
330
382
100
AcDbXrecord
340
1A
  0
XRECORD
  5
389
102
{ACAD_REACTORS
330
382
102
}
330
382
100
AcDbXrecord
 90
    10781
  0
XRECORD
  5
388
102
{ACAD_REACTORS
330
382
102
}
330
382
100
AcDbXrecord
340
19
  0
XRECORD
  5
38F
102
{ACAD_REACTORS
330
382
102
}
330
382
100
AcDbXrecord
 40
0.0
  0
XRECORD
  5
392
102
{ACAD_REACTORS
330
382
102
}
330
382
100
AcDbXrecord
340
0
  0
XRECORD
  5
398
102
{ACAD_REACTORS
330
382
102
}
330
382
100
AcDbXrecord
 10
0.0
 20
0.0
 30
0.0
  0
XRECORD
  5
394
102
{ACAD_REACTORS
330
382
102
}
330
382
100
AcDbXrecord
 10
0.0
 20
0.0
 30
0.0
  0
XRECORD
  5
397
102
{ACAD_REACTORS
330
382
102
}
330
382
100
AcDbXrecord
 10
0.0
 20
0.0
 30
0.0
  0
XRECORD
  5
395
102
{ACAD_REACTORS
330
382
102
}
330
382
100
AcDbXrecord
 10
0.0
 20
0.0
 30
0.0
  0
XRECORD
  5
396
102
{ACAD_REACTORS
330
382
102
}
330
382
100
AcDbXrecord
 10
0.0
 20
0.0
 30
0.0
  0
XRECORD
  5
393
102
{ACAD_REACTORS
330
382
102
}
330
382
100
AcDbXrecord
 10
0.0
 20
0.0
 30
0.0
  0
XRECORD
  5
390
102
{ACAD_REACTORS
330
382
102
}
330
382
100
AcDbXrecord
340
0
  0
XRECORD
  5
391
102
{ACAD_REACTORS
330
382
102
}
330
382
100
AcDbXrecord
 70
     0
  0
XRECORD
  5
386
102
{ACAD_REACTORS
330
382
102
}
330
382
100
AcDbXrecord
  1

  0
XRECORD
  5
383
102
{ACAD_REACTORS
330
382
102
}
330
382
100
AcDbXrecord
 90
        1
  0
XRECORD
  5
384
102
{ACAD_REACTORS
330
382
102
}
330
382
100
AcDbXrecord
 90
       70
  0
XRECORD
  5
39B
102
{ACAD_REACTORS
330
382
102
}
330
382
100
AcDbXrecord
340
0
  0
XRECORD
  5
3A1
102
{ACAD_REACTORS
330
382
102
}
330
382
100
AcDbXrecord
 10
0.0
 20
0.0
 30
0.0
  0
XRECORD
  5
39D
102
{ACAD_REACTORS
330
382
102
}
330
382
100
AcDbXrecord
 10
0.0
 20
0.0
 30
0.0
  0
XRECORD
  5
3A0
102
{ACAD_REACTORS
330
382
102
}
330
382
100
AcDbXrecord
 10
0.0
 20
0.0
 30
0.0
  0
XRECORD
  5
39E
102
{ACAD_REACTORS
330
382
102
}
330
382
100
AcDbXrecord
 10
0.0
 20
0.0
 30
0.0
  0
XRECORD
  5
39F
102
{ACAD_REACTORS
330
382
102
}
330
382
100
AcDbXrecord
 10
0.0
 20
0.0
 30
0.0
  0
XRECORD
  5
39C
102
{ACAD_REACTORS
330
382
102
}
330
382
100
AcDbXrecord
 10
0.0
 20
0.0
 30
0.0
  0
XRECORD
  5
399
102
{ACAD_REACTORS
330
382
102
}
330
382
100
AcDbXrecord
340
0
  0
XRECORD
  5
39A
102
{ACAD_REACTORS
330
382
102
}
330
382
100
AcDbXrecord
 70
     0
  0
XRECORD
  5
38E
102
{ACAD_REACTORS
330
382
102
}
330
382
100
AcDbXrecord
  1
{FAEB1C32-E019-11D5-929B-00C0DF256EC4}
  0
DICTIONARYVAR
  5
3AE
102
{ACAD_REACTORS
330
3A3
102
}
330
3A3
100
DictionaryVariables
280
     0
  1
1:1
  0
DICTIONARYVAR
  5
3A5
102
{ACAD_REACTORS
330
3A3
102
}
330
3A3
100
DictionaryVariables
280
     0
  1
Standard
  0
DICTIONARYVAR
  5
3A4
102
{ACAD_REACTORS
330
3A3
102
}
330
3A3
100
DictionaryVariables
280
     0
  1
Standard
  0
DICTIONARYVAR
  5
3AA
102
{ACAD_REACTORS
330
3A3
102
}
330
3A3
100
DictionaryVariables
280
     0
  1
2
  0
DICTIONARYVAR
  5
3AB
102
{ACAD_REACTORS
330
3A3
102
}
330
3A3
100
DictionaryVariables
280
     0
  1
1
  0
DICTIONARYVAR
  5
3AF
102
{ACAD_REACTORS
330
3A3
102
}
330
3A3
100
DictionaryVariables
280
     0
  1
1
  0
DICTIONARYVAR
  5
3A7
102
{ACAD_REACTORS
330
3A3
102
}
330
3A3
100
DictionaryVariables
280
     0
  1
80.000000
  0
DICTIONARYVAR
  5
3A6
102
{ACAD_REACTORS
330
3A3
102
}
330
3A3
100
DictionaryVariables
280
     0
  1
5.000000
  0
DICTIONARY
  5
3B2
330
45
100
AcDbDictionary
280
     1
  3
ACAD_XREC_ROUNDTRIP
360
3B3
  0
DICTIONARY
  5
3B0
330
44
100
AcDbDictionary
280
     1
  3
ACAD_XREC_ROUNDTRIP
360
3B1
  0
DICTIONARY
  5
3B4
330
46
100
AcDbDictionary
280
     1
  3
ACAD_XREC_ROUNDTRIP
360
3B5
  0
XRECORD
  5
3B3
102
{ACAD_REACTORS
330
3B2
102
}
330
3B2
100
AcDbXrecord
102
MATERIAL
148
0.0
149
0.0
149
0.0
 93
        0
 94
      127
282
     0
 72
     1
 77
     1
171
     1
175
     1
179
     1
273
     0
  0
XRECORD
  5
3B1
102
{ACAD_REACTORS
330
3B0
102
}
330
3B0
100
AcDbXrecord
102
MATERIAL
148
0.0
149
0.0
149
0.0
 93
        0
 94
      127
282
     0
 72
     1
 77
     1
171
     1
175
     1
179
     1
273
     0
  0
XRECORD
  5
3B5
102
{ACAD_REACTORS
330
3B4
102
}
330
3B4
100
AcDbXrecord
102
MATERIAL
148
0.0
149
0.0
149
0.0
 93
        0
 94
      127
282
     0
 72
     1
 77
     1
171
     1
175
     1
179
     1
273
     0
  0
ENDSEC
  0
EOF
